<svg xmlns="http://www.w3.org/2000/svg" width="25" height="21" viewBox="0 0 25 21"><g><g><path fill="#002c4d" d="M16.834 4.19c0-.123.052-.246.158-.34a.588.588 0 0 1 .765 0l7.073 6.29a.445.445 0 0 1 0 .68l-.001.002-7.072 6.29a.59.59 0 0 1-.765 0 .454.454 0 0 1-.158-.34c0-.123.052-.246.158-.34l6.69-5.951-6.69-5.95a.455.455 0 0 1-.158-.341zm-5.496 0c0-.123.054-.246.16-.34a.588.588 0 0 1 .764 0l7.072 6.29a.444.444 0 0 1 0 .68l-.001.002-7.071 6.29a.59.59 0 0 1-.765 0 .454.454 0 0 1-.159-.34c0-.123.054-.246.16-.34l6.689-5.951-6.69-5.95a.455.455 0 0 1-.159-.341zm-5.495 0c0-.123.053-.246.159-.34a.588.588 0 0 1 .764 0l7.073 6.29a.445.445 0 0 1 0 .68v.002l-7.073 6.29a.59.59 0 0 1-.764 0 .454.454 0 0 1-.159-.34c0-.123.053-.246.159-.34l6.69-5.951-6.69-5.95a.454.454 0 0 1-.159-.341zM.032 20.47V.491C.032.225.273.01.572.01c.299 0 .541.215.541.48v19.981c0 .266-.242.481-.54.481-.3 0-.541-.215-.541-.48z"/></g></g></svg>