<svg width="45" height="45" viewBox="0 0 45 45" fill="none" xmlns="http://www.w3.org/2000/svg">
<path d="M22.5 45C18.0499 45 13.6998 43.6804 9.99968 41.2081C6.29957 38.7357 3.41569 35.2217 1.71272 31.1104C0.00974894 26.999 -0.435826 22.475 0.432341 18.1105C1.30051 13.7459 3.44343 9.73679 6.59011 6.59011C9.73679 3.44343 13.7459 1.30051 18.1105 0.432341C22.475 -0.435826 26.999 0.00974894 31.1104 1.71272C35.2217 3.41569 38.7357 6.29957 41.2081 9.99968C43.6804 13.6998 45 18.0499 45 22.5C45 28.4674 42.6295 34.1903 38.4099 38.4099C34.1903 42.6295 28.4674 45 22.5 45ZM22.5 1.62897C18.3721 1.62897 14.3369 2.85303 10.9047 5.14637C7.47245 7.43971 4.79736 10.6993 3.21768 14.513C1.638 18.3267 1.22469 22.5232 2.03 26.5717C2.83531 30.6203 4.82309 34.3392 7.74195 37.2581C10.6608 40.1769 14.3797 42.1647 18.4283 42.97C22.4769 43.7753 26.6733 43.362 30.487 41.7823C34.3007 40.2026 37.5603 37.5276 39.8536 34.0953C42.147 30.6631 43.371 26.6279 43.371 22.5C43.371 16.9647 41.1721 11.656 37.2581 7.74195C33.344 3.82788 28.0353 1.62897 22.5 1.62897Z" fill="#F4D7AB"/>
<path d="M19.0387 34.7171C18.9459 34.7707 18.8405 34.7989 18.7333 34.7989C18.6261 34.7989 18.5207 34.7707 18.4279 34.7171L10.894 22.9071C10.7701 22.7467 10.7029 22.5498 10.7029 22.3472C10.7029 22.1445 10.7701 21.9476 10.894 21.7872C11.0452 21.644 11.2456 21.5642 11.4539 21.5642C11.6622 21.5642 11.8626 21.644 12.0139 21.7872L18.8351 31.9682L32.7831 14.5587C32.8498 14.474 32.9348 14.4055 33.0318 14.3584C33.1288 14.3114 33.2352 14.2869 33.343 14.2869C33.4509 14.2869 33.5573 14.3114 33.6543 14.3584C33.7513 14.4055 33.8363 14.474 33.903 14.5587C34.0462 14.71 34.126 14.9104 34.126 15.1187C34.126 15.327 34.0462 15.5274 33.903 15.6786L19.6496 34.4117L19.0387 34.7171Z" fill="#F4D7AB"/>
</svg>
