<svg width="63" height="80" viewBox="0 0 63 80" fill="none" xmlns="http://www.w3.org/2000/svg">
<path d="M22.2325 79.3783C21.9885 79.386 21.7491 79.3099 21.5537 79.1624C21.3584 79.0148 21.2188 78.8047 21.1579 78.5666L19.2773 68.0152L16.9937 59.493C7.76946 52.244 1.70112 41.6709 0.0683154 30.0033C-0.430434 22.8662 1.81591 15.8093 6.34207 10.2944C10.8682 4.7794 17.3274 1.2289 24.3817 0.378259C31.3143 -0.786648 38.4269 0.762022 44.2623 4.70703C47.0506 6.44451 49.4471 8.75019 51.2978 11.4759C53.1485 14.2016 54.4125 17.2871 55.0086 20.5341C55.0086 21.2104 55.0086 22.5632 55.0086 24.0512V24.8628C55.0086 28.2447 57.2922 30.2738 62.3967 35.6848C62.5601 35.8979 62.6487 36.1595 62.6487 36.4288C62.6487 36.698 62.5601 36.9597 62.3967 37.1728L58.7698 42.0426V45.4245L57.2922 47.7241L58.2325 48.8063C58.3042 49.026 58.3042 49.263 58.2325 49.4827V58.005C58.2346 58.27 58.14 58.5266 57.9666 58.7261C57.7933 58.9255 57.5533 59.054 57.2922 59.0872L47.3519 61.2515C46.4054 61.7375 45.6064 62.4713 45.039 63.3759C44.4717 64.2805 44.157 65.3224 44.128 66.392L45.337 77.0786C45.3799 77.2232 45.3879 77.376 45.3603 77.5243C45.3327 77.6727 45.2703 77.8122 45.1783 77.9313C45.0863 78.0504 44.9674 78.1457 44.8314 78.2091C44.6955 78.2726 44.5464 78.3024 44.3967 78.2961C44.2554 78.315 44.1118 78.3054 43.9742 78.2679C43.8366 78.2304 43.7078 78.1657 43.5953 78.0775C43.4828 77.9894 43.3888 77.8796 43.3188 77.7546C43.2489 77.6295 43.2043 77.4917 43.1877 77.3491L41.9788 66.5272C41.9677 64.9973 42.4088 63.4986 43.246 62.2219C44.0832 60.9452 45.2787 59.9482 46.6803 59.3577L55.9489 57.3286V50.5649L54.74 49.3474C54.6071 49.1472 54.5362 48.9118 54.5362 48.6711C54.5362 48.4303 54.6071 48.1949 54.74 47.9947L56.4862 45.1539V41.7721C56.4862 41.7721 56.4862 41.7721 56.4862 41.0957L59.7101 36.6317C55.6803 31.356 53.7997 29.0563 53.7997 24.9981V24.1865C53.8894 23.1062 53.8894 22.0202 53.7997 20.9399C53.167 17.8833 51.877 15.0033 50.0204 12.5026C48.1639 10.002 45.7857 7.9413 43.0534 6.46559C37.6007 3.07019 31.0966 1.81799 24.7847 2.94846C18.2719 3.60052 12.2731 6.80012 8.0782 11.8593C3.88328 16.9186 1.82716 23.4334 2.3519 30.0033C3.9678 41.1458 9.73028 51.2528 18.4713 58.2755L21.4265 68.0152L23.3071 78.7019C23.3259 78.8442 23.3164 78.9888 23.2791 79.1273C23.2419 79.2659 23.1776 79.3956 23.0901 79.5089C23.0026 79.6222 22.8936 79.7168 22.7694 79.7873C22.6452 79.8578 22.5084 79.9027 22.3668 79.9193L22.2325 79.3783Z" fill="#D0B37B"/>
<path d="M33.2474 40.9604C33.0429 40.9496 32.8458 40.8801 32.6793 40.7603C32.5127 40.6405 32.3835 40.4752 32.3071 40.284L23.8444 17.6933C23.7803 17.5524 23.7471 17.3992 23.7469 17.2443C23.7467 17.0893 23.7795 16.9361 23.8432 16.795C23.9069 16.6539 23.9999 16.5282 24.116 16.4265C24.232 16.3248 24.3685 16.2493 24.516 16.2053C24.7829 16.149 25.0608 16.1851 25.3046 16.3079C25.5485 16.4307 25.7439 16.6329 25.8593 16.8816L34.1877 39.0666C34.3446 39.2012 34.4597 39.3785 34.5193 39.5773C34.579 39.776 34.5806 39.9879 34.5239 40.1875C34.4673 40.3872 34.3548 40.5662 34.1999 40.7032C34.045 40.8403 33.8542 40.9295 33.6503 40.9604H33.2474Z" fill="#D0B37B"/>
<path d="M14.8444 47.9947C14.7032 48.035 14.5553 48.0458 14.4098 48.0263C14.2643 48.0068 14.1243 47.9575 13.9984 47.8815C13.8726 47.8055 13.7635 47.7042 13.678 47.5841C13.5924 47.464 13.5323 47.3275 13.5011 47.183L4.90411 23.7806C4.75151 23.5887 4.66837 23.3502 4.66837 23.1043C4.66837 22.8584 4.75151 22.6198 4.90411 22.4279L7.18769 21.481C7.38727 21.2907 7.65166 21.1847 7.9265 21.1847C8.20133 21.1847 8.46572 21.2907 8.66531 21.481C8.82869 21.6941 8.91732 21.9558 8.91732 22.225C8.91732 22.4942 8.82869 22.7559 8.66531 22.969H7.32202L15.3817 44.3423L25.725 40.9604C25.8006 40.8741 25.8937 40.8049 25.9979 40.7575C26.1021 40.7102 26.2151 40.6856 26.3295 40.6856C26.4438 40.6856 26.5569 40.7102 26.6611 40.7575C26.7653 40.8049 26.8583 40.8741 26.934 40.9604C26.934 40.9604 28.8146 42.0426 33.6504 40.1488C38.3519 38.255 39.1578 36.6317 39.0235 36.2259C38.9528 36.1025 38.9155 35.9625 38.9155 35.82C38.9155 35.6776 38.9528 35.5376 39.0235 35.4142C39.2438 35.3569 39.4749 35.3569 39.6952 35.4142L49.9041 31.4913L42.3817 10.5238H41.0384C40.8056 10.5653 40.5658 10.517 40.3668 10.3885C40.2774 10.3004 40.2065 10.1951 40.158 10.079C40.1095 9.96284 40.0846 9.83813 40.0846 9.71215C40.0846 9.58618 40.1095 9.46147 40.158 9.34533C40.2065 9.22919 40.2774 9.12395 40.3668 9.03578L42.6504 8.08887H43.4564L52.322 31.6265C52.3928 31.7499 52.43 31.8899 52.43 32.0324C52.43 32.1748 52.3928 32.3148 52.322 32.4382L41.7101 36.4964C41.7729 36.7632 41.7729 37.0412 41.7101 37.308C40.9041 39.0666 38.7549 40.5546 34.9937 42.0426C32.5128 43.3414 29.645 43.6783 26.934 42.9896H26.2623L15.7847 47.0478L14.8444 47.9947Z" fill="#D0B37B"/>
<path d="M18.0683 43.3952H17.2623C16.984 43.3381 16.7256 43.2079 16.5133 43.0179C16.301 42.8278 16.1423 42.5847 16.0534 42.313L8.26233 21.7514C8.09283 21.1773 8.15238 20.5593 8.42832 20.0288C8.70426 19.4983 9.17483 19.0972 9.73995 18.9106L21.0235 14.7171C21.9502 14.3637 22.9779 14.3927 23.8834 14.798C24.7888 15.2033 25.4989 15.952 25.8593 16.8815C26.0119 17.0735 26.0951 17.312 26.0951 17.5579C26.0951 17.8038 26.0119 18.0423 25.8593 18.2343C25.7718 18.3242 25.6673 18.3957 25.552 18.4445C25.4366 18.4933 25.3128 18.5185 25.1877 18.5185C25.0626 18.5185 24.9388 18.4933 24.8234 18.4445C24.7081 18.3957 24.6036 18.3242 24.5161 18.2343C24.4619 18.0124 24.3577 17.8062 24.2116 17.6314C24.0654 17.4567 23.8813 17.3182 23.6735 17.2266C23.4657 17.135 23.2397 17.0929 23.0131 17.1034C22.7865 17.114 22.5654 17.1769 22.3668 17.2873L11.2176 21.4808L17.934 40.9603L29.0832 36.6315C29.5327 36.4588 30.0118 36.3779 30.4927 36.3934C30.9736 36.409 31.4465 36.5208 31.8841 36.7222C32.3216 36.9236 32.715 37.2107 33.0413 37.5667C33.3676 37.9227 33.6203 38.3406 33.7847 38.7959C34.0697 38.8138 34.336 38.9451 34.5249 39.1607C34.7139 39.3763 34.81 39.6587 34.7922 39.9457C34.7744 40.2327 34.6441 40.5009 34.4299 40.6911C34.2158 40.8814 33.9354 40.9782 33.6504 40.9603C33.3831 41.0465 33.093 41.024 32.842 40.8976C32.5909 40.7712 32.399 40.551 32.3071 40.2839C32.1084 39.9042 31.7876 39.6036 31.3971 39.4316C31.0066 39.2596 30.5696 39.2262 30.1579 39.337L19.1429 43.6658L18.0683 43.3952Z" fill="#D0B37B"/>
<path d="M33.248 40.9605C33.0436 40.9496 32.8465 40.8802 32.6799 40.7604C32.5133 40.6406 32.3842 40.4753 32.3077 40.2841C31.9489 39.3679 31.9587 38.3469 32.3348 37.4378C32.711 36.5287 33.424 35.8028 34.3226 35.4142L45.4719 31.0855L38.2182 10.3885L26.9346 14.7173C26.5566 14.9605 26.2358 15.2836 25.9943 15.6642C25.8612 16.059 25.8612 16.4869 25.9943 16.8817C26.1469 17.0736 26.23 17.3122 26.23 17.5581C26.23 17.804 26.1469 18.0425 25.9943 18.2344C25.9067 18.3244 25.8022 18.3959 25.6869 18.4447C25.5716 18.4935 25.4477 18.5187 25.3226 18.5187C25.1975 18.5187 25.0737 18.4935 24.9584 18.4447C24.8431 18.3959 24.7386 18.3244 24.651 18.2344C24.4515 17.7641 24.3486 17.2579 24.3486 16.7464C24.3486 16.2349 24.4515 15.7288 24.651 15.2584C24.696 14.7621 24.8378 14.2795 25.0683 13.8385C25.2988 13.3974 25.6135 13.0065 25.9943 12.6882L37.1435 8.49471C37.4221 8.33505 37.731 8.23624 38.05 8.20472C38.369 8.17319 38.6911 8.20966 38.9952 8.31174C39.2993 8.41382 39.5786 8.57923 39.815 8.7972C40.0515 9.01518 40.2397 9.28084 40.3674 9.57691L48.0241 29.868C48.1551 30.1424 48.2231 30.4429 48.2231 30.7473C48.2231 31.0517 48.1551 31.3522 48.0241 31.6266C47.7565 32.1164 47.3296 32.4985 46.8152 32.7088L35.6659 36.9023C35.4756 36.9756 35.3024 37.0879 35.1572 37.2319C35.012 37.376 34.898 37.5487 34.8223 37.7393C34.7466 37.9299 34.7108 38.1341 34.7173 38.3393C34.7238 38.5444 34.7724 38.746 34.86 38.9314C34.98 39.1404 35.0423 39.378 35.0403 39.6194C35.0384 39.8609 34.9723 40.0974 34.849 40.3045C34.7256 40.5116 34.5494 40.6816 34.3388 40.7969C34.1281 40.9123 33.8906 40.9688 33.651 40.9605H33.248Z" fill="#D0B37B"/>
</svg>
