<svg xmlns="http://www.w3.org/2000/svg" width="25" height="21" viewBox="0 0 25 21"><g><g opacity="-1"><path fill="#002c4d" d="M8.023 4.544l-6.699 5.968 6.699 5.969a.456.456 0 0 1 .158.341.455.455 0 0 1-.158.341.59.59 0 0 1-.766 0l-7.08-6.309H.174a.446.446 0 0 1 0-.683l7.082-6.31a.588.588 0 0 1 .766 0 .456.456 0 0 1 .158.341.456.456 0 0 1-.158.342zm5.501 0l-6.698 5.968 6.698 5.969c.106.094.16.218.16.341a.456.456 0 0 1-.16.341.59.59 0 0 1-.765 0l-7.08-6.309h-.001a.446.446 0 0 1 0-.683l7.08-6.31a.588.588 0 0 1 .766 0c.106.094.16.218.16.341a.457.457 0 0 1-.16.342zm5.503 0l-6.699 5.968 6.699 5.969a.456.456 0 0 1 .158.341.455.455 0 0 1-.158.341.59.59 0 0 1-.766 0l-7.08-6.309h-.002a.446.446 0 0 1 0-.683l7.082-6.31a.589.589 0 0 1 .766 0 .456.456 0 0 1 .159.341.456.456 0 0 1-.16.342zm5.436 16.47c-.3 0-.542-.215-.542-.482V.492c0-.266.243-.483.542-.483.3 0 .541.217.541.483v20.04c0 .267-.242.483-.541.483z"/></g></g></svg>
