<svg xmlns="http://www.w3.org/2000/svg" width="127" height="76" viewBox="0 0 127 76"><g><g opacity="-1"><path fill="#002c4d" d="M75.19 32.83c1.178-.202 1.948-.573 2.1-1.607.068-.465-.66-.686-1.12-.278-1.87 1.653-2.783 1.898-3.666 1.454a2.62 2.62 0 0 1-.836-.726c-.662-.898-1.433-.352-2.025.228-1.368 1.34-2.837 1.793-4.552.213-1.07-.987-1.75-.373-1.848-.295-1.612 1.287-3.27 1.689-4.518-.366-.342-.565-.912-.465-1.197-.275-1.264.842-2.305.978-3.396.778-1.498-.276-3.057-1.66-2.767-3.689.185-1.29 1.415-2.73 2.927-4.667a.78.78 0 0 1 .986-.469c.405.137.62.57.48.965-.863 1.204-3.31 3.576-2.763 5.16.433 1.252 1.989 1.5 2.781 1.347 1.348-.262 2.122-1.912 3.24-3.39 1.255-2.075 2.305-3.736 3.162-3.336.818.468-.827 2.646-1.995 4.773-1.27 2.363.403 3.07 1.612 2.58 2.497-1.01 3.873-5.033 5.464-6.617.558-.552 1.68.16 1.188.95-.763 1.154-2.751 3.508-2.566 4.788.195 1.347 1.579 1.267 2.357.804 1.779-1.06 3.539-4.349 4.723-6.302.213-.363.754-.738 1.126-.531.34.19.392.553.29.984-.328 1.37-3.044 4.272-1.752 5.694 1.301 1.432 5.627-4.85 5.724-4.784.67-.772 1.157-1.257 1.467-1.313.217-.04.488.161.518.4.053.423-.34 1.118-.674 1.644l-.474.893c-1.828 3.857 2.186 5.097 6.159 4.91 3.15-.148 4.987.065 6.388-3.24 1.936-4.57-1.426-7.214-4.715-6.571-1.691.33-3.182 1.249-4.29 3.766-.813 1.718-1.618 2.211-2.015 1.912-.319-.24-.132-1.015.511-2.3.191-.382.4-.72.493-.924.948-2.06.08-2.428-.742-2.51-.67-.065-1.51.185-2.715 1.71-2.063 2.617-3.969 4.963-4.445 4.499-.621-.427 1.294-2.304 1.986-4.047.358-.901.329-1.97-.422-2.356-.467-.24-1.125-.202-1.808.245-1.135.743-2.336 2.66-4.017 5.505-.317.536-.855.766-1.16.541-1.345-.99 3.213-4.838 1.442-6.652-.434-.443-1.552-.294-2.786.913-.717.7-1.332 1.9-2.246 3.18-1.245 1.744-.982 1.513-2.173 2.734-1.05.826-1.738-.19-1.133-1.034.43-.394 2.838-3.243 3.101-5.111.181-1.286-1.1-1.674-2.396-1.246-1.41.465-2.908 1.895-4.293 4.122-.575.925-1.022 2.055-1.82 2.784-.603.553-1.356.034-1.005-.817.683-1.255 3.293-5.116 1.991-6.204-1.091-.912-4.355.668-7.292 4.762-1.561 2.176-2.885-2.084-6.127-3.37-1.46-.578-.681.886-.243 1.663.451.8 1.11 1.529 1.08 2.126-.05 1.001-1.675 1.388-4.86-1.025-.879-.667-2.025-1.418-2.98-2.812a.747.747 0 0 1-.01-1.072.788.788 0 0 1 1.096-.01c.012.01.846 1.217 1.996 2.18.43.362.919.678 1.39.92 1.139.587.115-.344-.171-1.227a3.327 3.327 0 0 1-.081-.288 3.854 3.854 0 0 1-.11.002c-1.843 0-3.342-1.437-3.39-3.228l-.052.012c-7.49 1.614 2.547 6.35 4.12 9.43.12.233.007.736.664.226.572-.442 1.327-.645 2.112-.645 2.048 0 3.708 1.623 3.708 3.625 0 .686-.195 1.327-.533 1.874-.047.649.154 1.286.37 1.414.334.197.737.475 1.227.853 4.148 3.202 7.217 1.863 7.462 5.92.448 7.435 2.98 8.549-2.898 5.32-6.321-3.475-11.32-11.233-15.263-10.27-3.989.974-6.107-.053-6.739-1.219-.401-.741-.506-1.461.873-2.011-1.136-.88-.05-2.56 1.384-3.295 1.49-.765 2.67-.684 4.073-.853 1.613-.193 2.567-.29 1.28-1.391-2.923-2.502-10.952-9.04-1.492-10.594l.085-.013a3.4 3.4 0 0 1 3.01-1.787c1.872 0 3.39 1.485 3.39 3.316 0 .615-.17 1.19-.469 1.683.35-.113.767-.093 1.316.22 1.358.778 2.721 2.11 3.704 3.14 1.431-2.274 3.571-4.432 6.284-5.161 2.21-.594 3.31-.16 3.667.802.17.459.36.647 1.02.222 2.418-1.556 4.893-1.565 5.861-.238.47.643.386 1.248 1.54.33.301-.238.973-.663 1.772-.755 1.027-.117 2.006.227 2.372.856.526.9.32 1.027 1.98-.087 1.67-1.122 3.56-.644 4.097.576.415.944.148 1.02 1.157.343a7.762 7.762 0 0 1 1.533-.796c1.891-.657 2.706-.032 3.207.9.234.432.586.776 1.458-.018 1.85-1.686 4.017-1.331 5.697-.646 3.656 1.492 5.634 6.712 1.447 11.147-.95 1.106-.58.754-.005 1.306 5.089 2.924 8.478 12.087-5.72 17.984-.129.054-.266.11-.382.191-.551 3.454-1.068 4.446-3.188 4.476-2.374.034-6.472-1.11-9.156-.818-1.048.113-.95.012-1.877.579-2.248 1.374-6.977 4.688-9.632 3.533-.88-.382-2.143-1.043-2.2-2.706a1.708 1.708 0 0 1 .013-.283c-2.377-.12-4.28-1.303-4.183-2.824.084-1.314 1.555-2.907 6.72-3.967.042-.008.094-.02.148-.035-1.197-2.187-6.674-8.993-.248-12.834 5.54-3.312 9.283 3.493 7.85 9.502 3.576-3.06 6.027-5.305 7.77-10.056.465-1.353.482-2.065 1.336-1.952.582.076.68.935.568 2.597-.034 3.117.28 6.28.84 7.956.903 2.703 2.875 3.184 1.948 5.41-.239.573-1.05 1.57-1.978 1.722-.421.07-4.028.98-4.23.44-.483-1.297 2.572-1.076 1.947-2.482-.498-1.118-3.073-3.202-5.122 1.056-.677 1.408-1.98 1.564-3.396 1.63a.767.767 0 0 1-.776-.759c0-.419.348-.758.776-.758.877-.04 1.758-.021 2.068-.951 1.318-3.958 5.503-4.106 7.538-.993.887 1.357 2.652.777 1.344-1.42-.4-.674-1.324-1.264-1.705-2.326-.534-1.488-.268-3.566-.498-5.266-.116-.868-.79.073-.979.324-4.192 5.582-11.746 12.216-9.641 7.386 2.631-6.038-.834-12.958-5.287-9.467-6.306 4.944 5.32 11.664.055 12.758-3.774.785-4.985 1.544-5.302 2.227-.46.996 1.403 1.742 3.515 1.436.85-.26 3.822-.582 4.182-1.271a.781.781 0 0 1 1-.439c.4.15.602.588.449.98-.565 1.126-1.985 1.592-3.101 1.605-1.578.019-2.121 1.226-.616 2.038 1.379.744 4.575-1.095 4.938-1.333 3.746-2.464 4.269-2.83 6.663-2.667 2.483.17 5.971.934 8.073.77.976-.076 1.184-.053 1.313-.93.26-1.752-.006-2.703 1.85-3.48 13.357-5.595 8.82-13.53 5.038-15.418-.811-.405-.993-.474-1.847-.502-4.02-.134-8.908-1.491-9.612-1.444-.77.052-1.212 1.057-6.003 1.844-2.896.474-6.617.593-10.433.734-5.821.216-11.827-.191-13.248-3.83a.757.757 0 0 1 .546-.931c.413-.11.84.13.951.534 1.834 4.71 17.152 2.488 24.318 1.254zm48 5.819l2.966-.006-2.403 1.7.922 2.758-2.396-1.71-2.397 1.71.922-2.757-2.403-1.701 2.966.006.912-2.761zm-118.404 0l2.966-.006-2.403 1.7.922 2.758-2.397-1.71-2.396 1.71.922-2.757-2.404-1.701 2.967.006.911-2.761zm4.82 18.88l.126-.19.135.083c.444.277.74.305.883.086a.764.764 0 0 0 .087-.2c.017-.054.046-.205.09-.457l.177-1.05-2.416-1.503-.704.466c-.23.152-.392.301-.485.444a.513.513 0 0 0-.037.553c.058.108.256.286.592.533l-.125.19-2.264-1.41.124-.19c.326.143.681.138 1.069-.012.186-.072.508-.256.964-.552l5.897-3.794.096.06-1.102 6.998c-.102.653-.12 1.097-.055 1.329.048.17.171.33.368.476l-.125.191zm2.033-5.12L9.1 54.045l2.066 1.286zm11.776 12.86l-6.338-3.287.109-.2.235.122c.368.19.667.195.901.015.087-.07.224-.276.41-.619l2.48-4.575c.155-.285.241-.457.261-.518a.612.612 0 0 0-.059-.537c-.083-.127-.224-.24-.425-.345l-.236-.122.109-.2 3.806 1.973-.109.2-.313-.162c-.368-.19-.672-.197-.911-.017-.084.066-.22.27-.408.617l-2.409 4.442c-.152.28-.24.454-.262.521-.07.218-.042.4.085.54.064.071.268.197.613.376l.595.308c.713.37 1.397.378 2.05.02.335-.185.735-.512 1.197-.977l.217.113zm13.062-.624l-.2-.082c.066-.424.085-.75.054-.981a1.56 1.56 0 0 0-.408-.876c-.11-.12-.34-.254-.694-.4l-.557-.228-2.413 5.61a4.868 4.868 0 0 0-.21.536.602.602 0 0 0 .12.53c.09.12.239.225.45.312l.248.102-.09.209-3.892-1.602.09-.209.247.102c.387.16.69.139.91-.062.078-.073.195-.288.35-.65l2.413-5.61-.538-.22c-.5-.207-.91-.252-1.225-.138-.443.159-.822.489-1.137.991l-.208-.085.847-1.97 6.69 2.752zm12.257 1.95c-.198.084-.626.425-1.284 1.02l-2.498 2.262-.544 1.828c-.091.308-.14.495-.147.557a.595.595 0 0 0 .174.509c.098.109.252.192.459.25l.434.124-.066.218-4.347-1.236.065-.218.404.115c.22.063.412.076.576.037a.595.595 0 0 0 .313-.2c.07-.082.16-.31.272-.685l.451-1.517-.86-3.77c-.133-.578-.22-.913-.258-1.005-.148-.355-.387-.58-.717-.678l.064-.218 3.715 1.056-.065.218-.16-.058c-.403-.115-.633-.075-.692.124-.037.126.015.508.158 1.143l.663 2.901 2.07-1.878c.512-.47.794-.789.845-.96.074-.249-.171-.47-.74-.662l.065-.218 2.368.673-.065.217c-.266-.04-.483-.023-.653.051zm11.929 1.687a.69.69 0 0 0-.435.33c-.088.145-.158.403-.209.774l-.891 6.517-.204-.027-4.519-7.212-.678 4.958c-.105.762.192 1.19.887 1.282l.19.024-.031.225-2.855-.373.03-.213c.436.053.754.004.955-.142.2-.148.33-.433.387-.853l.755-5.52-.146-.237c-.137-.223-.263-.374-.377-.455-.127-.09-.315-.157-.561-.198l.029-.213 2.84.372 3.294 5.373.46-3.365c.064-.471.04-.798-.077-.981-.16-.248-.463-.398-.91-.448l.03-.213 2.649.346-.03.213c-.28 0-.475.01-.583.036zm9.094 7.57l-.007-.226.16-.005c.527-.016.787-.155.779-.415a.766.766 0 0 0-.044-.214 4.986 4.986 0 0 0-.188-.426L70 73.6l-2.863.085-.313.773c-.103.251-.15.464-.146.632a.52.52 0 0 0 .288.478c.11.058.375.096.795.116l.007.226-2.684.08-.006-.227c.352-.06.642-.26.876-.597.113-.162.274-.492.48-.987l2.694-6.38.114-.004 3.114 6.393c.291.596.53.973.72 1.13.137.114.33.178.577.19l.007.227zm-1.266-5.35l-1.158 2.748 2.448-.073zm17.062 3.523l-7.066 1.21-.04-.223.262-.045c.41-.071.65-.247.721-.53.025-.107.003-.352-.065-.733l-.914-5.102a4.912 4.912 0 0 0-.12-.565.631.631 0 0 0-.383-.389c-.146-.05-.328-.055-.552-.016l-.263.045-.04-.224 4.244-.726.04.223-.35.06c-.41.07-.655.247-.73.533-.024.103-.004.345.065.732l.888 4.952c.056.313.096.502.12.57.082.213.218.34.406.374.096.018.335-.005.72-.071l.664-.114c.795-.136 1.34-.54 1.63-1.214.148-.348.26-.846.332-1.49l.242-.042zm11.88-3.13l-.071-.216.25-.08c.394-.124.608-.332.641-.625.01-.106-.045-.343-.169-.716l-1.842-5.562-.684 7.792-.137.044-5.247-5.86 1.752 5.286c.125.378.21.602.254.67.245.384.68.477 1.304.279l.072.216-2.636.834-.071-.215.08-.026c.378-.12.615-.31.709-.567.047-.124.06-.277.043-.459a6.695 6.695 0 0 0-.176-.568l-1.57-4.74c-.1-.302-.165-.48-.197-.537a.637.637 0 0 0-.439-.325c-.153-.029-.336-.008-.553.06l-.244.077-.072-.215 3.145-.996 3.797 4.26.456-5.607 3.121-.989.072.216-.25.079c-.395.125-.609.331-.643.62-.012.1.043.338.167.71l1.635 4.938c.102.307.168.487.2.544.1.18.247.287.438.324.153.034.335.016.55-.052l.25-.079.07.216zm12.45-5.534l-.118-.195.138-.08c.453-.264.611-.508.476-.732a.79.79 0 0 0-.144-.167 5.25 5.25 0 0 0-.376-.284l-.878-.628-2.463 1.43.109.826c.035.268.098.477.186.622.116.19.278.283.488.281.125 0 .376-.093.753-.275l.118.195-2.308 1.34-.118-.194c.278-.22.434-.532.47-.938.02-.196-.003-.56-.068-1.091l-.803-6.858.098-.056 5.89 4.117c.55.384.947.6 1.189.648.178.035.378 0 .6-.106l.119.195zm-3.757-4.083l.348 2.953 2.106-1.222zm14.952-4.04c-.18.657-.573 1.2-1.183 1.627-.373.262-.872.462-1.494.6a1.282 1.282 0 0 0-.453.17c-.214.15-.281.395-.207.74l-.179.125-1.777-2.425.18-.125c.539.49 1.121.804 1.746.943.719.165 1.36.05 1.916-.34.313-.219.522-.49.628-.812.12-.357.07-.683-.147-.98-.228-.31-.6-.476-1.12-.5-.261-.008-.678.035-1.255.128-.658.107-1.151.164-1.479.168-.565.014-1.046-.072-1.441-.26a2.088 2.088 0 0 1-.818-.675c-.395-.54-.522-1.129-.377-1.764.143-.611.494-1.115 1.051-1.505.213-.15.44-.269.676-.358.087-.035.319-.092.69-.172.321-.067.518-.127.589-.177.157-.11.162-.334.012-.672l.146-.102 1.617 2.097-.195.144a2.96 2.96 0 0 0-1.525-.8c-.633-.117-1.188-.007-1.666.327-.281.198-.47.438-.57.722a.908.908 0 0 0 .126.882c.213.29.597.436 1.151.434.226 0 .712-.061 1.458-.183.839-.133 1.482-.17 1.931-.11.692.09 1.23.396 1.614.922.428.583.548 1.228.355 1.931zm4.113-32.618c.253-.625.316-1.223.187-1.797-.132-.612-.47-1.105-1.013-1.477a2.454 2.454 0 0 0-1.386-.433c-.51-.004-.98.128-1.409.398a5.085 5.085 0 0 0-1.454 1.391c-.93 1.301-1.256 2.399-.974 3.293.145.463.47.868.977 1.215.797.544 1.827.659 3.09.345l-.4.557c-1.22.236-2.333.011-3.34-.678-.676-.462-1.19-1.002-1.539-1.62a3.501 3.501 0 0 1-.459-2.141c.07-.723.316-1.379.734-1.964a4.24 4.24 0 0 1 1.758-1.42 4.395 4.395 0 0 1 2.257-.368 4.481 4.481 0 0 1 2.114.763c.465.319.887.753 1.264 1.304.217.319.368.507.448.561.238.163.49.103.754-.179l.191.131-1.609 2.25zm-14.525-9.156l-2.454 1.754 2.127 1.186zm-1.776 5.21l.116-.197.139.078c.457.255.754.27.885.043a.75.75 0 0 0 .078-.204c.014-.054.036-.207.067-.46l.125-1.057-2.488-1.388-.68.5c-.221.163-.376.319-.462.466a.514.514 0 0 0-.01.554c.063.105.27.273.618.504l-.115.197-2.332-1.301.115-.197c.332.128.687.106 1.066-.063.183-.08.496-.279.937-.597l5.702-4.068.099.055-.755 7.043c-.069.657-.066 1.1.012 1.33.055.168.186.322.39.458l-.115.197zm-11.592-5.637l.085-.21.244.094c.386.149.685.122.902-.084.076-.075.188-.293.336-.657l2.198-5.438-5.598 5.587-.135-.053-.233-7.785-2.09 5.168c-.15.37-.23.596-.24.675-.061.449.214.79.825 1.027l-.085.21-2.576-.995.085-.211.077.03c.371.143.677.144.918.003.116-.066.226-.175.331-.327.02-.029.099-.212.234-.547l1.874-4.633a4.81 4.81 0 0 0 .197-.538.614.614 0 0 0-.127-.523c-.1-.118-.254-.216-.466-.298l-.238-.092.085-.21 3.074 1.187.157 5.65 4-4.042 3.052 1.18-.086.21-.244-.094c-.386-.15-.685-.124-.9.078-.074.07-.186.287-.333.651l-1.952 4.828c-.121.3-.187.479-.2.542a.6.6 0 0 0 .127.525c.096.12.248.22.458.3l.244.095-.085.211zM83.558 4.94L81.71 7.183l-.897 1.089c-.173.21-.279.403-.323.567a.515.515 0 0 0 .138.537c.088.086.332.196.73.331l-.06.22-2.597-.668.06-.22c.354.04.691-.07 1.013-.329.155-.124.405-.396.746-.814l4.432-5.372.11.029 1.135 6.993c.107.652.227 1.08.362 1.281.1.15.266.264.499.344l-.059.22-3.777-.97.059-.22.155.04c.51.131.8.07.868-.182a.763.763 0 0 0 .02-.217c0-.056-.02-.209-.057-.461l-.159-1.052-.087-.467zm-13.332-2.07l-1.47 2.603 2.441.199zm.637 5.456l.02-.225.16.013c.524.042.8-.067.821-.327a.772.772 0 0 0-.018-.217 5.06 5.06 0 0 0-.137-.444l-.343-1.01-2.854-.232-.401.734c-.131.238-.204.444-.218.612a.517.517 0 0 0 .23.506c.103.07.362.137.777.203l-.02.226-2.675-.218.02-.226c.356-.02.668-.187.94-.496.13-.149.328-.458.591-.928l3.415-6.04.113.01L73.64 6.96c.22.625.414 1.026.583 1.201.124.13.309.215.552.255l-.019.226zm-12.937-.212l-.012-.227.262-.013c.23-.011.415-.06.557-.15.1-.062.177-.16.229-.29.037-.099.047-.342.027-.734l-.129-2.433-2.863.144.127 2.433a4.8 4.8 0 0 0 .049.573.622.622 0 0 0 .344.425c.136.07.317.1.544.088l.268-.013.012.226-4.217.212-.012-.226.266-.014c.417-.02.676-.167.782-.44.037-.103.047-.348.026-.735l-.272-5.173a4.754 4.754 0 0 0-.048-.575.624.624 0 0 0-.332-.431c-.138-.067-.32-.094-.546-.082l-.266.013-.012-.226 4.217-.213.011.227-.268.014c-.418.02-.681.167-.791.442-.037.097-.047.342-.027.734l.117 2.229 2.865-.145-.117-2.228a4.854 4.854 0 0 0-.049-.575.631.631 0 0 0-.338-.432c-.138-.066-.319-.093-.544-.081l-.262.013-.012-.227 4.204-.21.013.226-.263.013c-.23.011-.414.06-.556.15a.586.586 0 0 0-.23.29c-.037.099-.046.344-.026.735l.272 5.173c.017.321.033.512.049.575.049.198.162.34.338.425.138.07.319.1.544.088l.262-.013.012.226zM41.88 7.55c-.272-.302-.577-.462-.917-.484-.278-.016-.65.032-1.122.14l.558 2.317c.08.334.177.56.288.682.153.167.382.216.69.146.446-.103.753-.338.922-.703.153-.33.175-.723.066-1.177a2.054 2.054 0 0 0-.485-.921zm1.687 2.455c-.353.245-.903.453-1.65.625l-4.214.972-.053-.221c.453-.113.735-.233.846-.363.141-.163.16-.454.06-.868l-1.229-5.103c-.125-.517-.25-.823-.38-.922-.157-.119-.486-.125-.987-.017l-.05-.21 4.05-.933.05.21c-.254.062-.436.12-.547.174-.2.098-.324.23-.37.396-.03.107-.002.348.088.722l.54 2.24 1.039-.24c2.135-.491 3.372-.03 3.713 1.384.209.87-.092 1.586-.906 2.154zm5.361-.99l-4.098.944-.053-.22.255-.06c.44-.1.673-.297.7-.59.007-.118-.03-.352-.116-.708L44.4 3.34a6.576 6.576 0 0 0-.143-.54.668.668 0 0 0-.382-.372c-.155-.053-.352-.05-.59.005l-.256.059-.052-.221 4.098-.944.053.22-.256.06c-.439.1-.67.295-.695.583-.01.122.026.36.112.716l1.214 5.04c.075.31.123.492.143.542.08.18.209.302.387.364.152.057.348.057.586.002l.255-.058zM31.076 7.871c-.264-.342-.489-.585-.679-.724a1.638 1.638 0 0 0-.926-.329c-.164-.008-.422.06-.777.204l-.557.229 2.404 5.613c.125.292.207.468.245.523a.628.628 0 0 0 .47.287c.15.022.331-.01.544-.096l.247-.101.09.209-3.895 1.595-.09-.21.248-.1c.386-.159.583-.384.592-.679 0-.106-.075-.338-.23-.7L26.36 7.98l-.539.22c-.501.206-.82.46-.958.76-.195.42-.219.915-.074 1.487l-.208.085-.844-1.97L30.43 5.82l.844 1.97zM15.86 15.242l.299 3.436.086.828c.028.27.086.48.17.627.11.193.27.29.48.294.125.003.378-.084.76-.256l.113.198-2.344 1.28-.113-.197c.284-.212.448-.52.497-.925.023-.195.01-.56-.04-1.093l-.617-6.876.1-.054 5.777 4.27c.54.397.93.623 1.17.677.177.04.378.01.603-.09l.113.198-3.41 1.862-.112-.198.14-.077c.46-.251.625-.492.496-.72a.793.793 0 0 0-.14-.17 5.303 5.303 0 0 0-.368-.293l-.86-.65-.394-.277zM4.716 21.977l.57 2.92 2.008-1.37zm4.054 3.801l-.132-.186.131-.09c.433-.295.572-.55.42-.764a.788.788 0 0 0-.156-.156 5.044 5.044 0 0 0-.396-.256l-.923-.563-2.348 1.604.17.815c.056.265.134.469.233.607.13.181.299.262.508.246.124-.01.367-.12.73-.33l.132.187-2.2 1.503-.133-.186c.26-.239.392-.562.4-.97.002-.196-.047-.557-.152-1.082l-1.317-6.781.093-.064 6.185 3.682c.578.344.99.53 1.233.56.18.023.378-.027.591-.148l.133.185zm80.776 11.486c1.45 0 2.626 1.342 2.626 2.998 0 1.654-1.176 2.997-2.626 2.997s-2.627-1.343-2.627-2.997c0-1.656 1.176-2.998 2.627-2.998zm-1.361 2.998c0 .857.61 1.552 1.361 1.552s1.36-.695 1.36-1.552c0-.858-.609-1.554-1.36-1.554-.752 0-1.361.696-1.361 1.554zm-47.42-21.124c.589 0 1.067.468 1.067 1.044 0 .577-.478 1.044-1.068 1.044-.59 0-1.067-.467-1.067-1.044 0-.576.478-1.044 1.067-1.044zm3.453 12.639c.645 0 1.167.511 1.167 1.141s-.522 1.142-1.167 1.142a1.155 1.155 0 0 1-1.167-1.142c0-.63.523-1.141 1.167-1.141zm-5.687-11.595c0 1.206 1 2.184 2.233 2.184 1.234 0 2.234-.978 2.234-2.184 0-1.206-1-2.184-2.234-2.184-1.233 0-2.233.978-2.233 2.184zm1.98 12.736c0-.143.008-.284.025-.423-.866-.599-3.16.147-4.662.33-1.37.166-2.36.898-.951 1.553.653.304.65.699.243.942-.403.241-1.167.174-1.384.242-.523.164-.358.791.107 1.03.924.476 2.06.075 4.056-.03 1.904-.102 4.36.296 7.691 3.58 3.624 3.574 5.787 5.448 9.906 7.673-.499-2.551-.4-4.451-.85-6.054-.77-.678-4.02-1.468-6.69-3.533-.675-.52-.724-.582-.995-.715l-.062.135.007.03-.008-.027c-.407.863-1.085 1.853-1.512.332-.046-.218.003-.48.182-.918.187-.457-.952-.477-1.594-.34-.032.007.041-.063.185-.182-2.041-.007-3.694-1.627-3.694-3.625zm1.265 0c0 1.319 1.094 2.388 2.442 2.388 1.349 0 2.442-1.07 2.442-2.388 0-1.318-1.093-2.387-2.442-2.387-1.348 0-2.442 1.069-2.442 2.387zm43.45-2.247c-.82.004-1.5-.035-2.265.217a.781.781 0 0 1-1.003-.435.753.753 0 0 1 .445-.98c1.012-.334 1.741-.313 2.826-.318 5.372-.024 3.623-5.424.402-1.964a.787.787 0 0 1-1.09.12.747.747 0 0 1-.122-1.066c5.399-5.788 9.322 4.384.808 4.426z"/></g></g></svg>