<svg xmlns="http://www.w3.org/2000/svg" width="89" height="90" viewBox="0 0 89 90"><g><g><path fill="#f4d7ab" d="M45.671 24.53a6.075 6.075 0 0 1-2.154-.403l.005 1.97a1.227 1.227 0 0 1-.9 1.185l-14.314 3.936v5.924h34.117v-5.983l-13.782-4.026a1.227 1.227 0 0 1-.881-1.168l-.013-1.81a6.055 6.055 0 0 1-2.078.375zm-9.967-13.727c0-5.496 4.472-9.967 9.967-9.967s9.965 4.471 9.965 9.967c0 3.835-2.158 9.147-5.446 11.903l.017 2.332 13.786 4.027c.523.152.881.632.881 1.176v8.127c0 .677-.548 1.226-1.224 1.226H27.084a1.226 1.226 0 0 1-1.225-1.226v-8.086c0-.551.368-1.034.9-1.18l14.31-3.934-.007-2.538c-3.238-2.777-5.358-8.027-5.358-11.827zm9.967-7.517c-4.143 0-7.515 3.372-7.515 7.517 0 3.18 1.967 7.914 4.634 10.096.167.076.313.188.43.325.776.539 1.603.854 2.451.854.84 0 1.66-.31 2.43-.839.085-.084.183-.156.291-.213 2.748-2.12 4.795-6.98 4.795-10.223 0-4.145-3.371-7.517-7.516-7.517zm24.225 71.175a6.075 6.075 0 0 1-2.154-.403l.005 1.97a1.226 1.226 0 0 1-.901 1.185l-14.31 3.936v5.924h34.113V81.09l-13.78-4.026a1.223 1.223 0 0 1-.88-1.168l-.014-1.81a6.054 6.054 0 0 1-2.079.375zM59.93 60.734c0-5.335 4.212-9.703 9.484-9.955a1.226 1.226 0 0 1-.782-1.145v-3.357H21.01v3.357c0 .519-.322.962-.776 1.142 5.305.215 9.556 4.6 9.556 9.958 0 3.834-2.16 9.146-5.447 11.903l.016 2.331 13.786 4.028c.523.152.883.632.883 1.176v8.127c0 .676-.549 1.225-1.226 1.225H1.238A1.225 1.225 0 0 1 .014 88.3v-8.086c0-.552.368-1.035.9-1.18l14.31-3.934-.007-2.538c-3.238-2.777-5.358-8.028-5.358-11.827 0-5.335 4.212-9.703 9.485-9.955a1.226 1.226 0 0 1-.783-1.145v-4.582c0-.678.547-1.227 1.225-1.227H44.14v-3.002a1.224 1.224 0 1 1 2.45 0v3.002h23.265c.678 0 1.225.549 1.225 1.227v4.582c0 .519-.32.962-.775 1.142 5.305.215 9.555 4.6 9.555 9.958 0 3.834-2.158 9.146-5.446 11.903l.017 2.331 13.785 4.028c.522.152.881.632.881 1.176v8.127c0 .676-.547 1.225-1.225 1.225H51.31a1.225 1.225 0 0 1-1.225-1.225v-8.086c0-.552.37-1.035.901-1.18l14.31-3.934-.008-2.538c-3.238-2.778-5.357-8.028-5.357-11.827zm9.966-7.517c-4.145 0-7.515 3.372-7.515 7.517 0 3.179 1.965 7.912 4.631 10.094.17.076.318.19.436.33.775.536 1.6.851 2.448.851.842 0 1.662-.31 2.432-.841a1.23 1.23 0 0 1 .287-.21c2.749-2.12 4.795-6.98 4.795-10.224 0-4.145-3.37-7.517-7.514-7.517zm-50.07 21.244a6.076 6.076 0 0 1-2.156-.404l.005 1.97a1.224 1.224 0 0 1-.9 1.186L2.463 81.149v5.924h34.115V81.09l-13.78-4.026a1.227 1.227 0 0 1-.882-1.168l-.013-1.81a6.053 6.053 0 0 1-2.077.375zm0-21.244c-4.145 0-7.516 3.372-7.516 7.517 0 3.179 1.966 7.913 4.633 10.095.168.076.315.188.432.327.776.538 1.602.853 2.45.853.842 0 1.66-.31 2.43-.84.086-.083.184-.155.292-.212 2.747-2.12 4.793-6.98 4.793-10.223 0-4.145-3.371-7.517-7.514-7.517z"/></g></g></svg>