<svg xmlns="http://www.w3.org/2000/svg" width="71" height="77" viewBox="0 0 71 77"><g><g><path fill="#f4d7ab" d="M46.113 63.305H25.057c-5.454 0-9.89-4.124-9.89-9.19V39.129c0-3.8 2.494-7.068 6.042-8.466v-3.785c0-7.367 6.449-13.357 14.376-13.357S49.96 19.51 49.96 26.878v3.785c3.548 1.398 6.043 4.667 6.043 8.466v14.986c0 5.066-4.437 9.19-9.89 9.19zM25.057 29.939h21.056c.466 0 .926.03 1.375.089v-3.15c0-6.1-5.34-11.06-11.903-11.06-6.563 0-11.903 4.96-11.903 11.06v3.15c.45-.059.908-.089 1.375-.089zm0 2.298c-4.09 0-7.418 3.092-7.418 6.892v14.986c0 3.8 3.327 6.892 7.418 6.892h21.056c4.09 0 7.418-3.092 7.418-6.892V39.129c0-3.8-3.328-6.892-7.418-6.892zm10.528 22.39c-1.903 0-3.45-1.44-3.45-3.207v-2.1c-1.764-1.072-2.83-2.878-2.83-4.87 0-3.215 2.818-5.833 6.28-5.833s6.278 2.618 6.278 5.833c0 1.992-1.066 3.799-2.828 4.87v2.1c0 1.768-1.547 3.206-3.45 3.206zm0-13.713c-2.1 0-3.806 1.587-3.806 3.536 0 1.357.818 2.573 2.137 3.174.423.194.691.592.691 1.032v2.764c0 .501.44.91.978.91.54 0 .978-.409.978-.91v-2.764c0-.44.269-.838.691-1.032 1.318-.601 2.137-1.817 2.137-3.174 0-1.949-1.707-3.536-3.806-3.536zm0 35.341a1.33 1.33 0 0 1-.368-.053C17.13 70.952 1.943 59.072 1.306 58.567a1.123 1.123 0 0 1-.418-.68c-.093-.504-2.22-12.491 1.932-26.137 3.964-13.032.053-24.554.014-24.669a1.084 1.084 0 0 1 .175-1.03 1.275 1.275 0 0 1 1.001-.473c26.875 0 30.18-3.895 30.391-4.191.155-.479.632-.818 1.184-.818.552 0 1.029.34 1.183.818.212.296 3.517 4.19 30.393 4.19.394 0 .766.178 1 .474.232.297.297.68.176 1.03-.04.115-3.952 11.637.014 24.669 4.149 13.646 2.023 25.633 1.93 26.136a1.13 1.13 0 0 1-.417.681c-.64.505-15.824 12.384-33.91 17.635-.12.034-.245.053-.37.053zM3.26 57.089c2.372 1.799 16.364 12.083 32.325 16.813C51.56 69.17 65.537 58.89 67.91 57.09c.328-2.207 1.635-12.962-1.94-24.714-3.364-11.061-1.411-20.855-.433-24.505-20.433-.119-27.522-2.512-29.952-4.333-2.43 1.821-9.52 4.214-29.952 4.333.978 3.65 2.932 13.444-.433 24.505C1.618 44.148 2.93 54.884 3.26 57.09z"/></g></g></svg>