<svg width="63" height="59" viewBox="0 0 63 59" fill="none" xmlns="http://www.w3.org/2000/svg">
<path d="M56.1969 56.8498H3.26598C3.11772 56.8728 2.96607 56.8608 2.82339 56.8149C2.6807 56.769 2.55101 56.6904 2.4449 56.5856C2.33879 56.4808 2.25925 56.3527 2.21277 56.2118C2.16628 56.0709 2.15418 55.9211 2.17743 55.7746V4.56962C2.17743 4.28446 2.29211 4.01099 2.49626 3.80936C2.7004 3.60772 2.97728 3.49445 3.26598 3.49445C3.54456 3.52365 3.80459 3.64631 4.00269 3.84197C4.20078 4.03763 4.32497 4.29446 4.35453 4.56962V54.6995H56.1969C56.4754 54.7287 56.7355 54.8513 56.9336 55.047C57.1317 55.2426 57.2558 55.4995 57.2854 55.7746C57.2854 56.0598 57.1707 56.3333 56.9666 56.5349C56.7624 56.7365 56.4856 56.8498 56.1969 56.8498Z" fill="#D0B37B"/>
<path d="M0 5.51025L3.26566 0L6.53132 5.51025H0Z" fill="#D0B37B"/>
<path d="M55.2448 58.9998L60.8236 55.7743L55.2448 52.6832V58.9998Z" fill="#D0B37B"/>
<path d="M7.07521 50.6674H6.39487C6.39487 50.6674 6.39487 49.7267 6.39487 49.1891L11.7016 41.6629C11.805 41.6039 11.9223 41.5729 12.0417 41.5729C12.1612 41.5729 12.2785 41.6039 12.3819 41.6629H13.3344L15.3754 43.8132L20.9543 38.303C21.1564 38.1139 21.4242 38.0086 21.7026 38.0086C21.981 38.0086 22.2489 38.1139 22.451 38.303L25.5806 41.3941L31.7037 35.4806C31.9059 35.2916 32.1737 35.1862 32.4521 35.1862C32.7305 35.1862 32.9983 35.2916 33.2005 35.4806L35.6497 37.8998L39.4597 34.1367C39.6618 33.9476 39.9296 33.8423 40.208 33.8423C40.4864 33.8423 40.7543 33.9476 40.9564 34.1367L46.9435 40.3189L51.8419 35.4806C52.0441 35.2916 52.3119 35.1862 52.5903 35.1862C52.8687 35.1862 53.1365 35.2916 53.3387 35.4806L58.1011 40.0501C58.2925 40.2498 58.3992 40.5143 58.3992 40.7893C58.3992 41.0643 58.2925 41.3288 58.1011 41.5285C58.0165 41.6676 57.8968 41.7828 57.7537 41.8627C57.6107 41.9427 57.4491 41.9847 57.2847 41.9847C57.1203 41.9847 56.9588 41.9427 56.8157 41.8627C56.6726 41.7828 56.553 41.6676 56.4683 41.5285L52.6584 37.7654L47.6238 42.6037C47.4216 42.7927 47.1538 42.8981 46.8754 42.8981C46.597 42.8981 46.3292 42.7927 46.127 42.6037L40.8204 36.287L36.4661 40.3189C36.264 40.508 35.9962 40.6133 35.7178 40.6133C35.4394 40.6133 35.1715 40.508 34.9694 40.3189L32.5201 37.631L26.397 43.5444C26.3079 43.6563 26.1942 43.7466 26.0646 43.8088C25.935 43.871 25.7927 43.9033 25.6486 43.9033C25.5045 43.9033 25.3623 43.871 25.2327 43.8088C25.1031 43.7466 24.9894 43.6563 24.9003 43.5444L21.7707 40.3189L16.1918 45.8292C16.1918 45.8292 16.1918 45.8292 15.3754 45.8292L12.654 43.9476L7.89163 50.2642C7.8006 50.3936 7.67815 50.4983 7.5355 50.5687C7.39286 50.6392 7.23459 50.6731 7.07521 50.6674Z" fill="#D0B37B"/>
<path d="M8.57236 40.9908C8.39391 40.9466 8.22785 40.8632 8.08651 40.7469C7.94517 40.6305 7.83218 40.4842 7.75595 40.3189C7.56455 40.1192 7.45789 39.8547 7.45789 39.5797C7.45789 39.3047 7.56455 39.0402 7.75595 38.8405L21.3629 25.4009C21.565 25.2118 21.8328 25.1065 22.1112 25.1065C22.3896 25.1065 22.6575 25.2118 22.8596 25.4009L26.3974 28.8952L34.4255 20.8314C34.6277 20.6423 34.8955 20.537 35.1739 20.537C35.4523 20.537 35.7201 20.6423 35.9223 20.8314L39.324 24.1913L44.7667 18.9498C44.9689 18.7608 45.2367 18.6554 45.5151 18.6554C45.7935 18.6554 46.0613 18.7608 46.2635 18.9498L48.3045 20.8314L58.2376 11.2892C58.2376 11.2892 58.2376 11.2892 59.054 11.2892L62.0475 14.1116C62.1547 14.2175 62.2398 14.3432 62.2978 14.4815C62.3558 14.6199 62.3857 14.7682 62.3857 14.9179C62.3857 15.0677 62.3558 15.216 62.2978 15.3544C62.2398 15.4927 62.1547 15.6184 62.0475 15.7243C61.9403 15.8302 61.813 15.9142 61.673 15.9715C61.5329 16.0288 61.3827 16.0583 61.2311 16.0583C61.0795 16.0583 60.9294 16.0288 60.7893 15.9715C60.6492 15.9142 60.5219 15.8302 60.4147 15.7243L59.054 13.4396L48.3045 23.9225C48.1024 24.1115 47.8346 24.2169 47.5562 24.2169C47.2778 24.2169 47.01 24.1115 46.8078 23.9225L44.9028 22.1754L39.4601 26.8792C39.2579 27.0683 38.9901 27.1736 38.7117 27.1736C38.4333 27.1736 38.1655 27.0683 37.9633 26.8792L34.5616 23.5193L27.2138 32.1207H26.3974H25.581L22.1793 28.6264L9.25271 40.3189C9.25271 40.4071 9.23511 40.4945 9.20092 40.576C9.16673 40.6575 9.11662 40.7316 9.05344 40.794C8.99026 40.8564 8.91526 40.9059 8.83272 40.9397C8.75018 40.9735 8.66171 40.9908 8.57236 40.9908Z" fill="#D0B37B"/>
<path d="M7.48438 30.6424C7.22025 30.7347 6.93209 30.7347 6.66797 30.6424C6.47657 30.4427 6.3699 30.1782 6.3699 29.9032C6.3699 29.6283 6.47657 29.3638 6.66797 29.1641L21.4995 14.1117C21.7017 13.9226 21.9695 13.8173 22.2479 13.8173C22.5263 13.8173 22.7941 13.9226 22.9963 14.1117L26.398 17.4716L38.0999 5.9135C38.3641 5.82127 38.6522 5.82127 38.9163 5.9135C39.1805 5.82127 39.4686 5.82127 39.7328 5.9135L47.0805 13.4397L57.6939 2.68799C57.9023 2.56193 58.1477 2.50884 58.3904 2.53727C58.6332 2.56569 58.8591 2.67398 59.032 2.8447C59.2048 3.01541 59.3145 3.23861 59.3432 3.47836C59.372 3.71811 59.3183 3.96045 59.1906 4.16635L47.8969 15.4556H47.0805H46.2641L38.9163 8.19824L27.2144 19.7563C26.9899 19.9547 26.6992 20.0643 26.398 20.0643C26.0968 20.0643 25.8061 19.9547 25.5816 19.7563L22.1798 16.3964L8.57293 29.8361C8.6812 29.9786 8.72768 30.1578 8.70217 30.3343C8.67665 30.5107 8.58122 30.6699 8.43687 30.7768C8.29251 30.8838 8.11107 30.9297 7.93244 30.9045C7.75382 30.8793 7.59264 30.785 7.48438 30.6424Z" fill="#D0B37B"/>
</svg>
