<svg xmlns="http://www.w3.org/2000/svg" width="63" height="62" viewBox="0 0 63 62"><g><g><path fill="#f4d7ab" d="M3.691 59.791a1.114 1.114 0 0 1-1.108-1.12V6.309H.375L3.69.511l3.317 5.798H4.8v51.243h51.898v-2.227l5.742 3.347-5.742 3.348v-2.229zm17.737-4.847H9.234c-.612 0-1.108-.5-1.108-1.119V22.493c0-.62.496-1.12 1.108-1.12h12.194c.612 0 1.109.5 1.109 1.12v31.332c0 .619-.497 1.119-1.109 1.119zm-11.085-2.238h9.976V23.611h-9.976zm27.711 2.238H25.861c-.612 0-1.108-.5-1.108-1.119V14.659c0-.618.496-1.12 1.108-1.12h12.193c.613 0 1.11.502 1.11 1.12v39.166c0 .619-.497 1.119-1.11 1.119zM26.97 52.706h9.977V15.78H26.97zm27.713 2.238H42.489c-.613 0-1.108-.5-1.108-1.119V5.707c0-.619.495-1.119 1.108-1.119h12.193c.613 0 1.108.5 1.108 1.12v48.117c0 .619-.495 1.119-1.108 1.119zm-11.085-2.238h9.977V6.826h-9.977z"/></g></g></svg>