<svg width="26" height="27" viewBox="0 0 26 27" fill="none" xmlns="http://www.w3.org/2000/svg">
<path fill-rule="evenodd" clip-rule="evenodd" d="M16.6704 18.636C14.5146 18.635 12.4259 17.8865 10.7601 16.5181C9.09434 15.1497 7.95449 13.2461 7.53491 11.1315C7.11534 9.017 7.44198 6.82238 8.45911 4.92164C9.47623 3.0209 11.121 1.53163 13.113 0.7076C15.1051 -0.116433 17.3213 -0.224249 19.3839 0.402523C21.4466 1.0293 23.228 2.35187 24.4248 4.14491C25.6216 5.93794 26.1597 8.09049 25.9474 10.2358C25.7351 12.3811 24.7855 14.3864 23.2604 15.91C22.3962 16.7768 21.369 17.464 20.2379 17.9319C19.1069 18.3997 17.8944 18.639 16.6704 18.636ZM16.6704 1.167C14.7851 1.16935 12.9589 1.82524 11.5029 3.02295C10.047 4.22065 9.05125 5.88608 8.68542 7.73555C8.3196 9.58501 8.60623 11.5041 9.49658 13.1659C10.3869 14.8277 11.8259 16.1295 13.5684 16.8494C15.3108 17.5693 17.2489 17.6629 19.0526 17.1142C20.8563 16.5654 22.4139 15.4084 23.4602 13.8401C24.5065 12.2718 24.9767 10.3892 24.7908 8.51311C24.6048 6.637 23.7742 4.8834 22.4404 3.551C21.6833 2.79294 20.7836 2.19206 19.7933 1.78292C18.8031 1.37378 17.7418 1.16447 16.6704 1.167ZM16.6704 14.97C16.5155 14.97 16.367 14.9085 16.2574 14.799C16.1479 14.6894 16.0864 14.5409 16.0864 14.386C16.0864 14.2311 16.1479 14.0826 16.2574 13.9731C16.367 13.8635 16.5155 13.802 16.6704 13.802C17.8596 13.7994 18.9993 13.3262 19.8406 12.4858C20.6819 11.6454 21.1564 10.5061 21.1604 9.317C21.1604 9.16318 21.2214 9.01565 21.3302 8.90688C21.439 8.79811 21.5865 8.737 21.7404 8.737C21.8942 8.737 22.0417 8.79811 22.1505 8.90688C22.2593 9.01565 22.3204 9.16318 22.3204 9.317C22.3219 10.0595 22.1767 10.795 21.8933 11.4813C21.6099 12.1676 21.1938 12.7913 20.6689 13.3164C20.144 13.8416 19.5206 14.258 18.8345 14.5418C18.1483 14.8255 17.4129 14.9711 16.6704 14.97ZM7.76038 18.825C7.60356 18.8243 7.45304 18.763 7.34033 18.654C7.23454 18.5425 7.17566 18.3947 7.17566 18.241C7.17566 18.0873 7.23454 17.9395 7.34033 17.828L10.0903 15.083C10.1443 15.028 10.2088 14.9843 10.2798 14.9544C10.3508 14.9245 10.427 14.909 10.504 14.9088C10.5811 14.9086 10.6575 14.9237 10.7286 14.9532C10.7998 14.9827 10.8644 15.0261 10.9187 15.0807C10.973 15.1354 11.0158 15.2003 11.0448 15.2717C11.0738 15.3431 11.0884 15.4196 11.0876 15.4966C11.0869 15.5737 11.0708 15.6498 11.0404 15.7206C11.01 15.7914 10.9658 15.8554 10.9104 15.909L8.17041 18.653C8.06171 18.7621 7.91435 18.8239 7.76038 18.825ZM3.26038 26.002C3.04493 26.0024 2.83153 25.9602 2.63245 25.8778C2.43337 25.7955 2.2525 25.6745 2.10034 25.522L0.480347 23.904C0.17276 23.5961 0 23.1787 0 22.7435C0 22.3083 0.17276 21.8909 0.480347 21.583L5.04041 17.018C5.34825 16.7107 5.76536 16.5381 6.20032 16.5381C6.63528 16.5381 7.0525 16.7107 7.36035 17.018L8.98035 18.636C9.28793 18.9439 9.46069 19.3613 9.46069 19.7965C9.46069 20.2317 9.28793 20.6491 8.98035 20.957L4.42041 25.523C4.26817 25.6754 4.08726 25.7961 3.88818 25.8783C3.68911 25.9605 3.47576 26.0026 3.26038 26.002ZM6.20032 17.702C6.13888 17.7018 6.07804 17.7139 6.02136 17.7376C5.96468 17.7613 5.91336 17.7961 5.87036 17.84L1.31042 22.406C1.22384 22.4958 1.17542 22.6157 1.17542 22.7405C1.17542 22.8653 1.22384 22.9852 1.31042 23.075L2.93042 24.693C2.97351 24.7368 3.02489 24.7716 3.08154 24.7953C3.1382 24.819 3.19895 24.8312 3.26038 24.8312C3.3218 24.8312 3.38255 24.819 3.43921 24.7953C3.49586 24.7716 3.54725 24.7368 3.59033 24.693L8.15039 20.127C8.19543 20.0837 8.23126 20.0318 8.25574 19.9743C8.28021 19.9168 8.29285 19.855 8.29285 19.7925C8.29285 19.73 8.28021 19.6682 8.25574 19.6107C8.23126 19.5532 8.19543 19.5013 8.15039 19.458L6.5304 17.841C6.48706 17.7979 6.43557 17.7638 6.37891 17.7408C6.32224 17.7178 6.26147 17.7063 6.20032 17.707V17.702Z" fill="black"/>
</svg>
