<svg xmlns="http://www.w3.org/2000/svg" width="90" height="88" viewBox="0 0 90 88"><g><g><path fill="#f4d7ab" d="M71.908 87.697c-.252 0-.503-.08-.717-.242l-26.038-19.57-26.04 19.57a1.183 1.183 0 0 1-1.433 0 1.287 1.287 0 0 1-.444-1.41l9.947-31.665L1.145 34.808A1.281 1.281 0 0 1 .701 33.4c.163-.52.632-.872 1.16-.872h32.186L43.992.863c.163-.52.631-.872 1.16-.872.528 0 .997.351 1.16.872l9.946 31.665h32.185c.528 0 .996.351 1.16.872a1.283 1.283 0 0 1-.443 1.408L63.122 54.38l9.946 31.666a1.284 1.284 0 0 1-.443 1.41 1.189 1.189 0 0 1-.717.24zM45.153 65.065c.25 0 .502.08.715.241L69.59 83.132l-9.06-28.844a1.285 1.285 0 0 1 .442-1.41L84.69 35.05H55.37c-.527 0-.996-.352-1.159-.871l-9.06-28.845-9.06 28.845c-.163.519-.632.87-1.16.87H5.614l23.719 17.83c.427.32.606.89.442 1.41l-9.059 28.843 23.72-17.826a1.19 1.19 0 0 1 .717-.241z"/></g></g></svg>