<svg xmlns="http://www.w3.org/2000/svg" width="76" height="78" viewBox="0 0 76 78"><g><g><path fill="#f4d7ab" d="M24.326 45.276c-.796 0-1.576-.07-2.333-.205v1.998a1.12 1.12 0 0 1-.845 1.077l-2.819.766c-.023.289-.035.581-.035.874 0 4.408 2.57 7.994 5.726 7.994 3.157 0 5.728-3.586 5.728-7.994 0-.293-.012-.586-.035-.874l-2.519-.684a1.168 1.168 0 0 1-.352-.148 1.111 1.111 0 0 1-.528-.99v-1.962c-.648.098-1.312.148-1.988.148zM12.001 50.63c-2.524.686-4.744 1.75-6.599 3.16-1.343 1.02-2.943 2.566-2.943 4.126V68.4c0 3.633 3.052 6.587 6.804 6.587h29.515c3.752 0 6.806-2.954 6.806-6.587V57.916c0-1.56-1.6-3.105-2.944-4.127-1.855-1.41-4.074-2.473-6.599-3.16l-3.985-1.081c.002.08.002.159.002.238 0 5.642-3.605 10.23-8.038 10.23-4.432 0-8.036-4.588-8.036-10.23 0-.08 0-.159.002-.238zm24.665-2.154c2.818.766 5.309 1.962 7.403 3.555 2.538 1.93 3.825 3.91 3.825 5.885V68.4c0 4.866-4.089 8.823-9.116 8.823H9.263c-5.026 0-9.115-3.957-9.115-8.823V57.916c0-1.973 1.287-3.953 3.826-5.885 2.095-1.593 4.585-2.79 7.402-3.554l8.305-2.256v-1.784c-4.812-1.807-8.232-6.337-8.232-11.625v-10.15c0-6.873 5.777-12.464 12.877-12.464 7.102 0 12.88 5.591 12.88 12.465v10.149c0 5.415-3.587 10.034-8.581 11.75v1.731zm-12.34-36.04c-4.71 0-8.708 2.996-10.069 7.123 2.38-1.841 4.58-2.552 6.568-2.112 1.534.339 2.434 1.256 3.23 2.066.625.636 1.217 1.24 2.138 1.65 1.483.662 3.76 1.093 8.311-1.255-1.245-4.306-5.337-7.473-10.178-7.473zM13.76 32.811c0 5.639 4.74 10.227 10.566 10.227 5.827 0 10.568-4.588 10.568-10.227v-10.15c0-.144-.004-.287-.01-.43-2.65 1.266-4.69 1.684-6.284 1.684a8.023 8.023 0 0 1-3.374-.722c-1.323-.59-2.133-1.413-2.846-2.14-.707-.72-1.216-1.238-2.07-1.427-1.705-.378-3.964.803-6.55 3.42zm38.678 3.04c-.796 0-1.576-.07-2.333-.205v1.998c0 .529-.379.972-.887 1.089l-2.777.754c-.023.289-.035.58-.035.874 0 4.408 2.57 7.994 5.726 7.994 3.157 0 5.727-3.586 5.727-7.994 0-.293-.012-.585-.034-.874l-2.516-.684a1.144 1.144 0 0 1-.802-.674 1.081 1.081 0 0 1-.08-.462v-1.964c-.649.098-1.313.148-1.989.148zm-12.325 5.355a21.04 21.04 0 0 0-3.552 1.309c-.165.078-.34.116-.51.116-.427 0-.836-.228-1.037-.623a1.101 1.101 0 0 1 .523-1.499 23.51 23.51 0 0 1 3.951-1.458l8.305-2.254v-1.785c-4.812-1.807-8.232-6.337-8.232-11.624v-10.15C39.56 6.366 45.338.774 52.438.774c7.102 0 12.88 5.592 12.88 12.463v10.15c0 5.415-3.587 10.034-8.581 11.75v1.73l8.04 2.184c2.819.767 5.31 1.962 7.404 3.556 2.538 1.93 3.825 3.91 3.825 5.885v10.484c0 4.863-4.089 8.822-9.116 8.822H50.71c-.637 0-1.155-.5-1.155-1.12 0-.616.518-1.117 1.155-1.117h16.18c3.752 0 6.806-2.954 6.806-6.585V48.493c0-1.561-1.6-3.106-2.944-4.128-1.855-1.41-4.074-2.472-6.598-3.158l-3.986-1.083c.002.08.002.159.002.238 0 5.642-3.606 10.232-8.038 10.232s-8.036-4.59-8.036-10.232c0-.08 0-.158.002-.237zM52.438 3.012c-4.71 0-8.71 2.998-10.07 7.125 2.383-1.842 4.585-2.552 6.569-2.114 1.534.339 2.434 1.257 3.23 2.066.625.638 1.217 1.24 2.138 1.65 1.483.662 3.76 1.093 8.311-1.255-1.246-4.305-5.337-7.472-10.178-7.472zM41.872 23.39c0 5.639 4.74 10.227 10.566 10.227 5.827 0 10.568-4.588 10.568-10.227v-10.15c0-.145-.004-.288-.01-.431-2.65 1.266-4.69 1.684-6.284 1.684a8.024 8.024 0 0 1-3.374-.722c-1.323-.589-2.133-1.413-2.847-2.14-.706-.719-1.215-1.238-2.07-1.427-1.702-.375-3.964.804-6.549 3.42z"/></g></g></svg>