<svg width="57" height="62" viewBox="0 0 57 62" fill="none" xmlns="http://www.w3.org/2000/svg">
<path d="M44.1682 20.5213H43.3578C43.1678 20.3219 43.0619 20.0578 43.0619 19.7832C43.0619 19.5086 43.1678 19.2445 43.3578 19.0451L44.3033 18.1057C44.7496 17.6331 44.998 17.0093 44.998 16.3611C44.998 15.713 44.7496 15.0892 44.3033 14.6165L32.6872 2.80702C32.2114 2.36357 31.5836 2.11675 30.9313 2.11675C30.2789 2.11675 29.6511 2.36357 29.1753 2.80702L12.5616 19.3135C12.3547 19.4394 12.1111 19.4924 11.8701 19.464C11.6292 19.4356 11.4049 19.3275 11.2333 19.157C11.0617 18.9866 10.9529 18.7637 10.9243 18.5243C10.8958 18.2849 10.9491 18.0429 11.0758 17.8373L27.6895 1.33083C28.5503 0.478554 29.716 0 30.9313 0C32.1465 0 33.3122 0.478554 34.173 1.33083L45.7891 13.4087C46.6469 14.264 47.1285 15.4221 47.1285 16.6295C47.1285 17.8369 46.6469 18.9951 45.7891 19.8503L44.8436 20.7897L44.1682 20.5213Z" fill="#D0B37B"/>
<path d="M18.9102 19.9845C18.648 20.0766 18.362 20.0766 18.0998 19.9845C17.9098 19.7851 17.8039 19.5209 17.8039 19.2464C17.8039 18.9718 17.9098 18.7077 18.0998 18.5083L33.9031 2.53857C34.0058 2.47967 34.1222 2.44867 34.2408 2.44867C34.3593 2.44867 34.4758 2.47967 34.5784 2.53857C34.8406 2.44647 35.1267 2.44647 35.3889 2.53857L38.7656 5.89354C38.9556 6.09293 39.0615 6.35707 39.0615 6.63164C39.0615 6.90621 38.9556 7.17035 38.7656 7.36974L27.0145 19.1793C26.8138 19.368 26.5479 19.4732 26.2716 19.4732C25.9952 19.4732 25.7294 19.368 25.5287 19.1793C25.3293 18.9578 25.2191 18.6712 25.2191 18.3741C25.2191 18.077 25.3293 17.7903 25.5287 17.5689L36.4694 6.56454L34.5784 4.81995L19.7206 19.5819C19.5128 19.8148 19.2225 19.959 18.9102 19.9845Z" fill="#D0B37B"/>
<path d="M38.7653 19.1792C37.9518 19.1469 37.1803 18.8115 36.6042 18.2398C36.2903 17.9498 36.0433 17.5958 35.8801 17.202C35.7169 16.8082 35.6414 16.384 35.6587 15.9585C35.5737 15.4883 35.6165 15.0041 35.7827 14.5559C35.9489 14.1077 36.2325 13.7116 36.6042 13.4087C37.1677 12.9842 37.8555 12.7544 38.5627 12.7544C39.2699 12.7544 39.9577 12.9842 40.5213 13.4087C41.0912 14.0068 41.4089 14.7992 41.4089 15.623C41.4089 16.4467 41.0912 17.2391 40.5213 17.8372C40.097 18.4611 39.481 18.9318 38.7653 19.1792ZM38.7653 15.0191H38.09C38.0178 15.237 38.0178 15.4721 38.09 15.6901C38.0314 15.9553 38.0314 16.23 38.09 16.4953C38.3159 16.6248 38.5721 16.693 38.8329 16.693C39.0937 16.693 39.3499 16.6248 39.5758 16.4953C39.7658 16.2959 39.8716 16.0317 39.8716 15.7572C39.8716 15.4826 39.7658 15.2184 39.5758 15.0191H38.7653Z" fill="#D0B37B"/>
<path d="M48.7607 61.9888H3.64692C2.6797 61.9888 1.75209 61.6071 1.06816 60.9275C0.384228 60.248 0 59.3264 0 58.3654L0 24.2789C0.0349727 23.3413 0.434586 22.4538 1.11476 21.8031C1.79494 21.1523 2.70265 20.789 3.64692 20.7897H48.7607C49.7049 20.789 50.6126 21.1523 51.2928 21.8031C51.973 22.4538 52.3726 23.3413 52.4076 24.2789V35.5516C52.4076 35.8363 52.2937 36.1094 52.0911 36.3107C51.8884 36.5121 51.6136 36.6252 51.327 36.6252C51.1798 36.6481 51.0293 36.6362 50.8877 36.5903C50.746 36.5445 50.6173 36.466 50.512 36.3614C50.4066 36.2567 50.3277 36.1288 50.2815 35.9881C50.2354 35.8474 50.2234 35.6978 50.2464 35.5516V24.2789C50.2474 24.0907 50.2085 23.9045 50.1324 23.7323C50.0562 23.5601 49.9444 23.4057 49.8043 23.2791C49.6642 23.1526 49.4989 23.0567 49.3191 22.9978C49.1393 22.9388 48.9491 22.918 48.7607 22.9369H3.64692C3.45853 22.918 3.26826 22.9388 3.08846 22.9978C2.90866 23.0567 2.74335 23.1526 2.60325 23.2791C2.46314 23.4057 2.35139 23.5601 2.27522 23.7323C2.19906 23.9045 2.16019 24.0907 2.16114 24.2789V58.3654C2.16114 58.7569 2.31767 59.1324 2.59631 59.4093C2.87495 59.6861 3.25287 59.8416 3.64692 59.8416H48.7607C49.1547 59.8416 49.5326 59.6861 49.8113 59.4093C50.0899 59.1324 50.2464 58.7569 50.2464 58.3654V47.2269C50.2234 47.0807 50.2354 46.9311 50.2815 46.7904C50.3277 46.6497 50.4066 46.5218 50.512 46.4171C50.6173 46.3125 50.746 46.234 50.8877 46.1882C51.0293 46.1423 51.1798 46.1304 51.327 46.1533C51.6136 46.1533 51.8884 46.2664 52.0911 46.4678C52.2937 46.6691 52.4076 46.9422 52.4076 47.2269V58.3654C52.4076 59.3264 52.0234 60.248 51.3394 60.9275C50.6555 61.6071 49.7279 61.9888 48.7607 61.9888Z" fill="#D0B37B"/>
<path d="M54.0284 48.3004H43.3578C42.9919 48.3186 42.626 48.2626 42.2825 48.1359C41.939 48.0092 41.625 47.8144 41.3597 47.5633C41.0944 47.3122 40.8832 47.0102 40.7391 46.6755C40.595 46.3408 40.5209 45.9804 40.5213 45.6164V37.0276C40.556 36.3393 40.8559 35.6906 41.3588 35.2159C41.8617 34.7413 42.5291 34.477 43.2228 34.4778H54.0284C54.6985 34.5104 55.3324 34.7895 55.8068 35.2608C56.2812 35.7321 56.5621 36.3619 56.5948 37.0276V45.6164C56.5957 46.3056 56.3297 46.9687 55.8519 47.4683C55.3741 47.968 54.7212 48.2659 54.0284 48.3004ZM42.9526 36.625V45.6164H54.0284V37.0276L42.9526 36.625Z" fill="#D0B37B"/>
</svg>
