<svg width="1115" height="683" viewBox="0 0 1115 683" fill="none" xmlns="http://www.w3.org/2000/svg"><path fill="#E5E5E5" d="M0 0h1115v683H0z"/><path fill="#fff" d="M-197-546h1920V805H-197z"/><path d="M681.686 52.5l9 12 35-1 28.5-11 24 12 23-12 25.5 16c4.5 2.333 16.4 9.4 28 19 14.5 12 21.5 23 28.5 31s14.5 33.5 17.5 41.5c2.4 6.4 23.333 21.667 33.5 28.5l49.5 21.5 34.004-21.5h73.5l23 21.5c-3.5 7.167-11.9 22.8-17.5 28-5.6 5.2-6 18.167-5.5 24v38l-18.5 16h-40.5v20l25.5 40.5 15 13.5v16h-28.5c-13.2 0-23.17 8-26.5 12l-27.004 17.5 27.004 31 14.5 55-14.5 29.5v12c-7.67 0-23.804-2.1-27.004-10.5-4-10.5-23-1.5-36.5-1.5-10.8 0-26.833 1-33.5 1.5l-56.5-1.5-9.5 12c-4 4.5-16.3 10.8-33.5 0s-20.5-4.5-20 0l-23 35c-4.5 0-15.6-2.9-24-14.5s-26.833-4.833-35 0l-17.5 27c-6.667 3-21.9 9.8-29.5 13-7.6 3.2-17.5 18.333-21.5 25.5l-23 34c-3.167-3.667-12.7-12.9-25.5-20.5s-5.333-12.167 0-13.5c-9.833-.333-31.1-2.6-37.5-9-6.321-6.321-2.758-21.94-.1-29.23-1.197 2.97-6.145 6.716-17.4-.27-14.5-9-3-19 0-27 2.4-6.4 1-7.333 0-7-5-4.5-16.3-15.6-21.5-24-5.2-8.4-8.5-17.833-9.5-21.5-8 4-26.5 9.6-36.5 0s-26.5-4-33.5 0l-21.5-9.5-41.5-33.5-64.5-63-80.5 10.5c-6.333 54.167-20.6 165-27 175-6.4 10-12.667-4.167-15-12.5v-21.5c-7.5-8.5-24.4-25.5-32-25.5h-21.5l-20 12h-15l-6.5-12 21.5-20-15-21.5c-3.167-4.5-11.1-15.1-17.5-21.5s-10.667-2.667-12 0v-31c0-5.6-11.667-16.667-17.5-21.5V418h29.5v-12l11-16c10.667 2.167 33.9 8.4 41.5 16 7.6 7.6 12.833-3.167 14.5-9.5v-20c0-5.2 4.667-12.833 7-16l-7-8.5-14.5-16c-9-1.833-28.6-5.5-35-5.5-6.4 0-11.667 3.667-13.5 5.5l-4 16h-39l-27-21.5 17.5-14.5v-16c-2.667-5.833-12.3-17.5-29.5-17.5s-12.5-7.333-8-11l8-9.5-8-18.5v-19l8-24c3.166-4 11.9-12 21.5-12 12 0-1.5-11 0-28.5 1.2-14 12.166-5.833 17.5 0l9.5 28.5h17.5V160c0-14 13.333-5.833 20 0l9.5-16h15l20-25.5 14.5 16h39l23 25.5 19 28.5 17.5 21.5 24-9.5 16-12 13.5 12 23-12 18.5 21.5h63.5l10.5-21.5-26.5-11V152c5.333-2.667 16-9.9 16-17.5v-16l10.5-8h21.5c-.834-3.667-6.3-13.4-21.5-23l9.5-23h58l40-12 40.5-17.5 29.5-16 16-19 17.5 8h46v11l9 16-9 17.5z" fill="#D0B37B"/><path d="M844.186 528.5l13 28.5v5.5l-2.5 10.5c-6.167-.833-20.4-3.1-28-5.5-7.6-2.4-17.167-4.333-21-5-2.667 2.5-8 8.7-8 13.5 0 4.8-10 15.333-15 20l-22.5-8-11.5-12-26 8c-4.667 7.833-14.5 23.5-16.5 23.5h-15c-3.833-9.167-12.9-28.3-18.5-31.5-7-4-14.5-23-17.5-28.5s8.5-24 8.5-33V482c0-5.6-9-21-13.5-28l-8.5-22.5 8.5-11.5h29.5c15.667-2.5 49.9-8.4 61.5-12 11.6-3.6 32.5-1.5 41.5 0 1.833 4 5.9 13.2 7.5 18 2 6 6 21 7.5 28s9 9.5 16 20c5.6 8.4 5.667 13.5 5 15l17.5 14.5 8 25zm-40.5-161.5c1.6 3.6 11.667 10.5 16.5 13.5h41.5v-10l3.5-22.5c-3.333 1.833-11.6 4.4-18 0-8-5.5-8.5-9-13.5-13.5-4-3.6-10.667-8.5-13.5-10.5h-16.5v15c0 5.5-5 9.5-6 14.5s4 9 6 13.5zm-77.5-258.5h26.5V139c0 12 7 12.5 7 18.5 0 4.8-4.667 16.667-7 22v16c-2.5 3.5-8.1 12.2-10.5 19-3 8.5-11.5 6.5-16 11.5-3.6 4-18.5-6-25.5-11.5-3 2.667-9.8 9.6-13 16-3.2 6.4-14 12.333-19 14.5-9.333-4.833-28.8-14.5-32-14.5-3.2 0-8.333-10.667-10.5-16l-34 16-22.5-16-31-19v-16c1-7.333 3.3-23.2 4.5-28 1.2-4.8 5.833-10.333 8-12.5 6.167-4 19.5-12 23.5-12h22c4.5 0 20-8 20-9.5v-24c0-6.4 6.333-14 9.5-17l28 5 26.5 6.5c6.167 2.667 20.1 9.1 26.5 13.5 8 5.5 15 7 19 7z" fill="#F4D7AB"/><path d="M738.912 317.627h-4.799v2.98h2.474c1.039.014 1.851.281 2.434.8.583.52.875 1.226.875 2.119 0 .898-.294 1.614-.882 2.147-.588.533-1.39.809-2.406.827h-3.815v-9.953h6.119v1.08zm-4.799 4.061v3.739h2.399c.652 0 1.158-.173 1.518-.52.364-.346.547-.811.547-1.394 0-.561-.176-1.003-.527-1.326-.346-.324-.841-.49-1.483-.499h-2.454zm11.929 4.812c-.073-.146-.133-.406-.178-.779-.588.61-1.29.916-2.106.916-.729 0-1.328-.205-1.798-.616a2.016 2.016 0 0 1-.697-1.572c0-.77.292-1.367.875-1.791.588-.428 1.413-.642 2.475-.642h1.23v-.581c0-.442-.132-.793-.396-1.053-.265-.264-.654-.397-1.169-.397-.451 0-.83.114-1.135.342-.305.228-.458.504-.458.827h-1.271c0-.369.129-.724.389-1.066.265-.346.62-.62 1.067-.82a3.6 3.6 0 0 1 1.483-.301c.852 0 1.52.214 2.003.642.483.424.734 1.01.752 1.757v3.405c0 .679.086 1.219.26 1.62v.109h-1.326zm-2.099-.964c.396 0 .772-.102 1.128-.307.355-.206.613-.472.772-.8v-1.518h-.991c-1.549 0-2.324.454-2.324 1.36 0 .397.132.707.396.93.265.223.604.335 1.019.335zm7.451-2.187h-.923v3.151H749.2v-7.396h1.271v3.13h.827l2.489-3.13h1.531l-2.926 3.554 3.172 3.842h-1.606l-2.564-3.151zm10.753-3.22h-2.481v6.371h-1.265v-6.371h-2.434v-1.025h6.18v1.025zm5.687 6.371c-.072-.146-.132-.406-.177-.779-.588.61-1.29.916-2.106.916-.729 0-1.328-.205-1.798-.616a2.016 2.016 0 0 1-.697-1.572c0-.77.292-1.367.875-1.791.588-.428 1.413-.642 2.475-.642h1.23v-.581c0-.442-.132-.793-.396-1.053-.265-.264-.654-.397-1.169-.397-.451 0-.83.114-1.135.342-.305.228-.458.504-.458.827h-1.271c0-.369.129-.724.389-1.066.265-.346.62-.62 1.067-.82a3.6 3.6 0 0 1 1.483-.301c.852 0 1.52.214 2.003.642.483.424.734 1.01.752 1.757v3.405c0 .679.086 1.219.26 1.62v.109h-1.327zm-2.098-.964c.396 0 .772-.102 1.128-.307.355-.206.613-.472.772-.8v-1.518h-.991c-1.549 0-2.324.454-2.324 1.36 0 .397.132.707.396.93.265.223.604.335 1.019.335zm9.932-6.432h1.265v7.396h-1.265v-5.394l-3.411 5.394h-1.264v-7.396h1.264v5.4l3.411-5.4zm.342-2.694c0 .552-.189.996-.567 1.333-.374.333-.866.499-1.477.499-.61 0-1.105-.168-1.483-.506-.378-.337-.567-.779-.567-1.326h1.032c0 .319.086.57.26.752.173.178.426.267.758.267.319 0 .568-.089.745-.267.183-.178.274-.428.274-.752h1.025zm-53.585 31.619h-1.21v4.471h-1.312v-9.953h1.312v4.389h1.026l3.479-4.389h1.634l-3.801 4.826 4.081 5.127h-1.606l-3.603-4.471zm10.781 4.471c-.073-.146-.133-.406-.178-.779-.588.61-1.29.916-2.106.916-.729 0-1.328-.205-1.797-.616a2.014 2.014 0 0 1-.698-1.572c0-.77.292-1.367.875-1.791.588-.428 1.413-.642 2.475-.642h1.23v-.581c0-.442-.132-.793-.396-1.053-.264-.264-.654-.397-1.169-.397-.451 0-.83.114-1.135.342-.305.228-.458.504-.458.827h-1.271c0-.369.13-.724.389-1.066.265-.346.62-.62 1.067-.82a3.6 3.6 0 0 1 1.483-.301c.852 0 1.52.214 2.003.642.483.424.734 1.01.752 1.757v3.405c0 .679.087 1.219.26 1.62v.109h-1.326zm-2.099-.964c.396 0 .772-.102 1.128-.307.355-.206.613-.472.772-.8v-1.518h-.991c-1.549 0-2.324.454-2.324 1.36 0 .397.132.707.396.93.265.223.604.335 1.019.335zm11.395-2.652c0 1.125-.257 2.032-.772 2.72-.515.689-1.212 1.033-2.092 1.033-.898 0-1.604-.285-2.119-.855v3.562h-1.265v-10.24h1.156l.061.82c.515-.638 1.231-.957 2.147-.957.888 0 1.59.335 2.105 1.005.52.67.779 1.602.779 2.796v.116zm-1.264-.144c0-.834-.178-1.492-.533-1.975-.356-.483-.844-.725-1.463-.725-.766 0-1.34.34-1.723 1.019v3.534c.378.674.957 1.011 1.736 1.011.606 0 1.087-.239 1.443-.717.36-.483.54-1.199.54-2.147zm4.259-1.087h1.92c.839.009 1.502.228 1.99.657.487.428.731 1.009.731 1.743 0 .738-.25 1.33-.752 1.777-.501.447-1.176.67-2.023.67h-3.131v-7.396h1.265v2.549zm0 1.033v2.782h1.879c.474 0 .841-.121 1.101-.363.26-.246.39-.581.39-1.004 0-.411-.128-.746-.383-1.005-.251-.265-.604-.401-1.06-.41h-1.927zm9.29 3.951c-1.003 0-1.819-.328-2.448-.985-.629-.66-.943-1.542-.943-2.645v-.233c0-.733.139-1.387.417-1.962a3.288 3.288 0 0 1 1.176-1.353 2.96 2.96 0 0 1 1.64-.492c.962 0 1.709.317 2.243.95.533.633.799 1.54.799 2.721v.526h-5.01c.018.729.23 1.319.635 1.771.411.446.93.669 1.559.669.447 0 .825-.091 1.135-.273.31-.182.581-.424.813-.725l.773.602c-.62.952-1.55 1.429-2.789 1.429zm-.158-6.631c-.51 0-.938.187-1.285.56-.346.37-.56.889-.642 1.559h3.705v-.096c-.037-.642-.21-1.139-.52-1.49-.31-.355-.729-.533-1.258-.533zm10.76 2.878c0 1.125-.257 2.032-.772 2.72-.515.689-1.213 1.033-2.092 1.033-.898 0-1.604-.285-2.119-.855v3.562h-1.265v-10.24h1.155l.062.82c.515-.638 1.23-.957 2.146-.957.889 0 1.591.335 2.106 1.005.519.67.779 1.602.779 2.796v.116zm-1.264-.144c0-.834-.178-1.492-.534-1.975-.355-.483-.843-.725-1.463-.725-.765 0-1.339.34-1.722 1.019v3.534c.378.674.957 1.011 1.736 1.011.606 0 1.087-.239 1.442-.717.36-.483.541-1.199.541-2.147zm8.92 3.76h-1.264v-3.158h-3.398v3.158h-1.271v-7.396h1.271v3.206h3.398v-3.206h1.264v7.396zm1.703-3.767c0-.724.141-1.376.423-1.955a3.226 3.226 0 0 1 1.19-1.34c.51-.314 1.091-.471 1.743-.471 1.007 0 1.821.348 2.44 1.046.625.697.937 1.624.937 2.782v.089c0 .72-.139 1.367-.417 1.941a3.11 3.11 0 0 1-1.183 1.333c-.51.319-1.098.479-1.763.479-1.003 0-1.816-.349-2.441-1.046-.62-.697-.929-1.62-.929-2.769v-.089zm1.271.151c0 .82.189 1.479.567 1.975.383.497.894.745 1.532.745.642 0 1.153-.25 1.531-.751.378-.506.567-1.213.567-2.12 0-.811-.193-1.467-.581-1.968-.383-.506-.893-.759-1.531-.759-.624 0-1.128.248-1.511.745s-.574 1.208-.574 2.133zm10.117 3.753c-1.002 0-1.818-.328-2.447-.985-.629-.66-.943-1.542-.943-2.645v-.233c0-.733.139-1.387.417-1.962a3.286 3.286 0 0 1 1.175-1.353 2.96 2.96 0 0 1 1.641-.492c.962 0 1.709.317 2.242.95.533.633.8 1.54.8 2.721v.526h-5.011c.018.729.23 1.319.636 1.771.41.446.93.669 1.559.669.446 0 .824-.091 1.134-.273.31-.182.581-.424.814-.725l.772.602c-.619.952-1.549 1.429-2.789 1.429zm-.157-6.631c-.51 0-.939.187-1.285.56-.347.37-.561.889-.643 1.559h3.705v-.096c-.036-.642-.209-1.139-.519-1.49-.31-.355-.729-.533-1.258-.533zm42.464 42.494h-1.319v-8.873h-4.909v8.873h-1.312v-9.953h7.54v9.953zm4.614-1.853l1.723-5.543h1.353l-2.973 8.538c-.461 1.23-1.192 1.845-2.195 1.845l-.239-.02-.472-.089v-1.025l.342.027c.429 0 .761-.087.998-.26.242-.173.44-.49.595-.95l.28-.752-2.638-7.314h1.38l1.846 5.543zm7.082.957a1.82 1.82 0 0 0 1.183-.41 1.44 1.44 0 0 0 .56-1.025h1.197a2.295 2.295 0 0 1-.438 1.21 2.876 2.876 0 0 1-1.08.916 3.087 3.087 0 0 1-1.422.342c-1.007 0-1.809-.335-2.406-1.005-.593-.675-.889-1.595-.889-2.762v-.212c0-.72.132-1.36.397-1.921.264-.56.642-.995 1.134-1.305.497-.31 1.083-.465 1.757-.465.83 0 1.518.248 2.065.745.551.497.845 1.142.882 1.934h-1.197c-.036-.478-.218-.87-.547-1.175-.323-.31-.724-.465-1.203-.465-.642 0-1.141.232-1.497.697-.351.46-.526 1.128-.526 2.003v.239c0 .853.175 1.509.526 1.969.351.46.852.69 1.504.69zm9.858-5.475h-2.482v6.371h-1.265v-6.371h-2.433v-1.025h6.18v1.025zm2.611 1.524h1.921c.838.009 1.501.228 1.989.657.488.428.732 1.009.732 1.743 0 .738-.251 1.33-.752 1.777-.502.447-1.176.67-2.024.67h-3.131v-7.396h1.265v2.549zm7.28 4.847h-1.271v-7.396h1.271v7.396zm-7.28-3.814v2.782h1.88c.474 0 .841-.121 1.1-.363.26-.246.39-.581.39-1.004 0-.411-.128-.746-.383-1.005-.25-.265-.604-.401-1.059-.41h-1.928zm15.531 3.814h-1.264v-3.158h-3.398v3.158h-1.271v-7.396h1.271v3.206h3.398v-3.206h1.264v7.396zm8.08 0h-1.264v-3.158h-3.398v3.158h-1.271v-7.396h1.271v3.206h3.398v-3.206h1.264v7.396zm1.702-3.767c0-.724.142-1.376.424-1.955a3.226 3.226 0 0 1 1.19-1.34c.51-.314 1.091-.471 1.743-.471 1.007 0 1.82.348 2.44 1.046.625.697.937 1.624.937 2.782v.089c0 .72-.139 1.367-.417 1.941a3.117 3.117 0 0 1-1.183 1.333c-.51.319-1.098.479-1.763.479-1.003 0-1.817-.349-2.441-1.046-.62-.697-.93-1.62-.93-2.769v-.089zm1.272.151c0 .82.189 1.479.567 1.975.383.497.893.745 1.532.745.642 0 1.152-.25 1.531-.751.378-.506.567-1.213.567-2.12 0-.811-.194-1.467-.581-1.968-.383-.506-.893-.759-1.531-.759-.625 0-1.128.248-1.511.745s-.574 1.208-.574 2.133zm10.117 3.753c-1.003 0-1.818-.328-2.447-.985-.629-.66-.944-1.542-.944-2.645v-.233c0-.733.139-1.387.417-1.962a3.295 3.295 0 0 1 1.176-1.353 2.96 2.96 0 0 1 1.641-.492c.961 0 1.709.317 2.242.95.533.633.8 1.54.8 2.721v.526h-5.011c.018.729.23 1.319.636 1.771.41.446.93.669 1.558.669.447 0 .825-.091 1.135-.273.31-.182.581-.424.814-.725l.772.602c-.62.952-1.549 1.429-2.789 1.429zm-.157-6.631c-.511 0-.939.187-1.285.56-.347.37-.561.889-.643 1.559h3.705v-.096c-.036-.642-.209-1.139-.519-1.49-.31-.355-.73-.533-1.258-.533zm-24.357-46.066h-1.305v-2.44h-7.144v2.447h-1.312l-.007-3.52h.813c.429-.483.768-1.13 1.019-1.942.255-.815.415-1.709.478-2.679l.219-4.259h5.954v8.88h1.299l-.014 3.513zm-7.458-3.513h4.854v-7.8h-3.37l-.144 2.926c-.059 1.144-.212 2.119-.458 2.926-.241.806-.535 1.456-.882 1.948zm8.497-2.694c0-.724.142-1.376.424-1.955a3.226 3.226 0 0 1 1.19-1.34c.51-.314 1.091-.471 1.743-.471 1.007 0 1.821.348 2.44 1.046.625.697.937 1.624.937 2.782v.089c0 .72-.139 1.367-.417 1.941a3.117 3.117 0 0 1-1.183 1.333c-.51.319-1.098.479-1.763.479-1.003 0-1.817-.349-2.441-1.046-.62-.697-.93-1.62-.93-2.769v-.089zm1.272.151c0 .82.189 1.479.567 1.975.383.497.894.745 1.532.745.642 0 1.153-.25 1.531-.751.378-.506.567-1.213.567-2.12 0-.811-.193-1.467-.581-1.968-.383-.506-.893-.759-1.531-.759-.624 0-1.128.248-1.511.745s-.574 1.208-.574 2.133zm13.002-3.78v7.396h-1.272v-6.351h-2.515l-.151 2.769c-.082 1.271-.296 2.181-.642 2.728-.342.546-.887.831-1.634.854h-.506v-1.114l.362-.028c.411-.045.705-.282.882-.711.178-.428.292-1.221.342-2.378l.137-3.165h4.997zm6.815 0h1.265v7.396h-1.265v-5.394l-3.411 5.394h-1.264v-7.396h1.264v5.4l3.411-5.4zm9.338 7.396h-1.264v-3.158H891.6v3.158h-1.271v-7.396h1.271v3.206h3.398v-3.206h1.264v7.396zm8.08 0h-1.264v-3.158h-3.398v3.158h-1.271v-7.396h1.271v3.206h3.398v-3.206h1.264v7.396zm1.702-3.767c0-.724.142-1.376.424-1.955a3.226 3.226 0 0 1 1.19-1.34c.51-.314 1.091-.471 1.743-.471 1.007 0 1.821.348 2.44 1.046.625.697.937 1.624.937 2.782v.089c0 .72-.139 1.367-.417 1.941a3.117 3.117 0 0 1-1.183 1.333c-.51.319-1.098.479-1.763.479-1.003 0-1.817-.349-2.441-1.046-.62-.697-.93-1.62-.93-2.769v-.089zm1.272.151c0 .82.189 1.479.567 1.975.383.497.894.745 1.532.745.642 0 1.153-.25 1.531-.751.378-.506.567-1.213.567-2.12 0-.811-.194-1.467-.581-1.968-.383-.506-.893-.759-1.531-.759-.624 0-1.128.248-1.511.745s-.574 1.208-.574 2.133zm10.117 3.753c-1.002 0-1.818-.328-2.447-.985-.629-.66-.944-1.542-.944-2.645v-.233c0-.733.139-1.387.417-1.962a3.295 3.295 0 0 1 1.176-1.353 2.96 2.96 0 0 1 1.641-.492c.961 0 1.709.317 2.242.95.533.633.8 1.54.8 2.721v.526h-5.011c.018.729.23 1.319.636 1.771.41.446.93.669 1.558.669.447 0 .825-.091 1.135-.273.31-.182.581-.424.814-.725l.772.602c-.62.952-1.549 1.429-2.789 1.429zm-.157-6.631c-.511 0-.939.187-1.285.56-.347.37-.561.889-.643 1.559h3.705v-.096c-.036-.642-.209-1.139-.519-1.49-.31-.355-.729-.533-1.258-.533zM630.477 432.842c-.123 1.053-.513 1.866-1.169 2.44-.652.57-1.52.855-2.605.855-1.176 0-2.119-.422-2.83-1.265-.706-.843-1.06-1.971-1.06-3.384v-.957c0-.925.165-1.738.493-2.44.332-.702.802-1.24 1.408-1.613.606-.379 1.308-.568 2.105-.568 1.058 0 1.905.296 2.543.889.638.588 1.01 1.403 1.115 2.447h-1.32c-.114-.793-.362-1.367-.745-1.723-.378-.355-.909-.533-1.593-.533-.838 0-1.497.31-1.975.93-.474.62-.711 1.502-.711 2.645v.964c0 1.08.225 1.939.677 2.577.451.638 1.082.957 1.893.957.729 0 1.288-.164 1.675-.492.392-.332.652-.909.779-1.729h1.32zm1.715 3.158v-7.396h2.885c.985 0 1.739.173 2.263.519.528.342.793.845.793 1.511 0 .342-.103.651-.308.929-.205.274-.508.484-.909.629.447.105.804.31 1.073.616.274.305.41.67.41 1.093 0 .679-.25 1.199-.752 1.559-.496.36-1.2.54-2.112.54h-3.343zm1.265-3.247v2.228h2.092c.528 0 .923-.098 1.182-.293.265-.196.397-.472.397-.828 0-.738-.542-1.107-1.627-1.107h-2.044zm0-1.012h1.634c1.185 0 1.777-.346 1.777-1.039s-.56-1.05-1.681-1.073h-1.73v2.112zm9.687 4.396c-1.003 0-1.819-.328-2.448-.985-.629-.66-.943-1.542-.943-2.645v-.233c0-.733.139-1.387.417-1.962a3.281 3.281 0 0 1 1.176-1.353 2.957 2.957 0 0 1 1.64-.492c.962 0 1.709.317 2.243.95.533.633.799 1.54.799 2.721v.526h-5.01c.018.729.23 1.319.635 1.771.41.446.93.669 1.559.669.447 0 .825-.091 1.135-.273.31-.182.581-.424.813-.725l.773.602c-.62.952-1.55 1.429-2.789 1.429zm-.158-6.631c-.51 0-.938.187-1.285.56-.346.37-.56.889-.642 1.559h3.705v-.096c-.037-.642-.21-1.139-.52-1.49-.31-.355-.729-.533-1.258-.533zm9.926.123h-2.481V436h-1.265v-6.371h-2.434v-1.025h6.18v1.025zm6.016-1.025h1.264V436h-1.264v-5.394L655.517 436h-1.265v-7.396h1.265v5.4l3.411-5.4zm9.338 7.396h-1.265v-3.158h-3.397V436h-1.272v-7.396h1.272v3.206h3.397v-3.206h1.265V436zm5.004-.896c.451 0 .845-.136 1.182-.41.337-.273.524-.615.561-1.025h1.196a2.295 2.295 0 0 1-.438 1.21 2.861 2.861 0 0 1-1.08.916 3.08 3.08 0 0 1-1.421.342c-1.008 0-1.81-.335-2.407-1.005-.592-.675-.888-1.595-.888-2.762v-.212c0-.72.132-1.36.396-1.921.264-.56.643-.995 1.135-1.305.497-.31 1.082-.465 1.757-.465.829 0 1.517.248 2.064.745.552.497.846 1.142.882 1.934h-1.196c-.037-.478-.219-.87-.547-1.175-.324-.31-.725-.465-1.203-.465-.643 0-1.142.232-1.497.697-.351.46-.527 1.128-.527 2.003v.239c0 .853.176 1.509.527 1.969.351.46.852.69 1.504.69zm6.665-2.255h-.923V436h-1.272v-7.396h1.272v3.13h.827l2.488-3.13h1.531l-2.925 3.554 3.171 3.842h-1.606l-2.563-3.151zm4.771-.616c0-.724.141-1.376.424-1.955.287-.578.683-1.025 1.189-1.34.511-.314 1.092-.471 1.743-.471 1.008 0 1.821.348 2.441 1.046.624.697.936 1.624.936 2.782v.089c0 .72-.139 1.367-.417 1.941a3.109 3.109 0 0 1-1.182 1.333c-.511.319-1.098.479-1.764.479-1.002 0-1.816-.349-2.44-1.046-.62-.697-.93-1.62-.93-2.769v-.089zm1.272.151c0 .82.189 1.479.567 1.975.383.497.893.745 1.531.745.643 0 1.153-.25 1.531-.751.379-.506.568-1.213.568-2.12 0-.811-.194-1.467-.581-1.968-.383-.506-.893-.759-1.532-.759-.624 0-1.127.248-1.51.745s-.574 1.208-.574 2.133zm10.117 3.753c-1.003 0-1.819-.328-2.448-.985-.628-.66-.943-1.542-.943-2.645v-.233c0-.733.139-1.387.417-1.962a3.295 3.295 0 0 1 1.176-1.353 2.96 2.96 0 0 1 1.641-.492c.961 0 1.708.317 2.242.95.533.633.799 1.54.799 2.721v.526h-5.01c.018.729.23 1.319.635 1.771.411.446.93.669 1.559.669.447 0 .825-.091 1.135-.273.31-.182.581-.424.813-.725l.773.602c-.62.952-1.55 1.429-2.789 1.429zm-.157-6.631c-.511 0-.939.187-1.286.56-.346.37-.56.889-.642 1.559h3.705v-.096c-.037-.642-.21-1.139-.52-1.49-.31-.355-.729-.533-1.257-.533zm-40.287 31.896h-4.17l-.936 2.598h-1.354l3.801-9.953h1.149l3.807 9.953h-1.346l-.951-2.598zm-3.773-1.08h3.384l-1.696-4.655-1.688 4.655zm9.516.527h-.923V464h-1.272v-7.396h1.272v3.13h.827l2.488-3.13h1.531l-2.925 3.554 3.171 3.842h-1.606l-2.563-3.151zm8.503-3.822c.93 0 1.673.313 2.229.937.561.62.841 1.438.841 2.454v.116c0 .697-.135 1.322-.404 1.873a3.006 3.006 0 0 1-1.162 1.279c-.501.3-1.08.451-1.736.451-.993 0-1.793-.331-2.399-.991-.606-.666-.91-1.557-.91-2.673v-.616c0-1.554.288-2.789.862-3.705.579-.916 1.431-1.474 2.556-1.674.638-.114 1.069-.253 1.292-.417a.794.794 0 0 0 .335-.677h1.039c0 .569-.129 1.014-.389 1.333-.255.319-.666.544-1.231.677l-.943.211c-.752.178-1.317.479-1.695.903-.374.419-.618.98-.732 1.681.67-.774 1.486-1.162 2.447-1.162zm-.246 1.039c-.619 0-1.112.21-1.476.629-.365.415-.547.992-.547 1.73v.109c0 .793.182 1.422.547 1.887.369.46.866.69 1.49.69.629 0 1.126-.232 1.49-.697.365-.465.547-1.144.547-2.037 0-.697-.184-1.256-.554-1.675-.364-.424-.863-.636-1.497-.636zm9.304 5.934c-.073-.146-.132-.406-.178-.779-.588.61-1.289.916-2.105.916-.729 0-1.329-.205-1.798-.616-.465-.414-.697-.938-.697-1.572 0-.77.291-1.367.875-1.791.588-.428 1.413-.642 2.474-.642h1.231v-.581c0-.442-.132-.793-.397-1.053-.264-.264-.654-.397-1.169-.397-.451 0-.829.114-1.134.342-.306.228-.458.504-.458.827h-1.272c0-.369.13-.724.39-1.066a2.7 2.7 0 0 1 1.066-.82 3.605 3.605 0 0 1 1.484-.301c.852 0 1.519.214 2.003.642.483.424.733 1.01.751 1.757v3.405c0 .679.087 1.219.26 1.62V464h-1.326zm-2.099-.964a2.22 2.22 0 0 0 1.128-.307c.356-.206.613-.472.773-.8v-1.518h-.991c-1.55 0-2.325.454-2.325 1.36 0 .397.133.707.397.93.264.223.604.335 1.018.335zm7.452-2.187h-.923V464h-1.272v-7.396h1.272v3.13h.827l2.488-3.13h1.531l-2.925 3.554 3.172 3.842h-1.607l-2.563-3.151zm9.823 3.151c-.073-.146-.132-.406-.178-.779-.588.61-1.29.916-2.105.916-.73 0-1.329-.205-1.798-.616-.465-.414-.697-.938-.697-1.572 0-.77.291-1.367.875-1.791.587-.428 1.412-.642 2.474-.642h1.231v-.581c0-.442-.133-.793-.397-1.053-.264-.264-.654-.397-1.169-.397-.451 0-.829.114-1.135.342-.305.228-.458.504-.458.827h-1.271c0-.369.13-.724.39-1.066.264-.346.619-.62 1.066-.82a3.604 3.604 0 0 1 1.483-.301c.853 0 1.52.214 2.003.642.483.424.734 1.01.752 1.757v3.405c0 .679.087 1.219.26 1.62V464h-1.326zm-2.099-.964a2.22 2.22 0 0 0 1.128-.307c.356-.206.613-.472.773-.8v-1.518h-.992c-1.549 0-2.324.454-2.324 1.36 0 .397.132.707.397.93.264.223.604.335 1.018.335zm9.933-6.432h1.264V464h-1.264v-5.394L698.554 464h-1.265v-7.396h1.265v5.4l3.411-5.4zm.342-2.694c0 .552-.189.996-.568 1.333-.373.333-.866.499-1.476.499-.611 0-1.105-.168-1.484-.506-.378-.337-.567-.779-.567-1.326h1.032c0 .319.087.57.26.752.173.178.426.267.759.267.319 0 .567-.089.745-.267.182-.178.273-.428.273-.752h1.026zm-29.568 30.619h-1.21V489h-1.312v-9.953h1.312v4.389h1.026l3.479-4.389h1.634l-3.801 4.826 4.081 5.127h-1.606l-3.603-4.471zm9.106 4.608c-1.003 0-1.819-.328-2.448-.985-.628-.66-.943-1.542-.943-2.645v-.233c0-.733.139-1.387.417-1.962a3.295 3.295 0 0 1 1.176-1.353 2.96 2.96 0 0 1 1.641-.492c.961 0 1.708.317 2.242.95.533.633.799 1.54.799 2.721v.526h-5.01c.018.729.23 1.319.635 1.771.411.446.93.669 1.559.669.447 0 .825-.091 1.135-.273.31-.182.581-.424.813-.725l.773.602c-.62.952-1.55 1.429-2.789 1.429zm-.157-6.631c-.511 0-.939.187-1.286.56-.346.37-.56.889-.642 1.559h3.705v-.096c-.037-.642-.21-1.139-.52-1.49-.31-.355-.729-.533-1.257-.533zM692.242 489h-1.264v-3.158h-3.398V489h-1.271v-7.396h1.271v3.206h3.398v-3.206h1.264V489zm7.937-3.213h-.889V489h-1.265v-3.213h-.888L695.065 489h-1.599l2.645-3.828-2.392-3.568h1.531l1.907 3.062h.868v-3.062h1.265v3.062h.861l1.921-3.062h1.532l-2.4 3.575L703.85 489h-1.6l-2.071-3.213zm7.752 3.35c-1.003 0-1.819-.328-2.448-.985-.629-.66-.943-1.542-.943-2.645v-.233c0-.733.139-1.387.417-1.962a3.295 3.295 0 0 1 1.176-1.353 2.96 2.96 0 0 1 1.64-.492c.962 0 1.709.317 2.243.95.533.633.799 1.54.799 2.721v.526h-5.01c.018.729.23 1.319.635 1.771.411.446.93.669 1.559.669.447 0 .825-.091 1.135-.273.31-.182.581-.424.813-.725l.773.602c-.62.952-1.55 1.429-2.789 1.429zm-.158-6.631c-.51 0-.938.187-1.285.56-.346.37-.56.889-.642 1.559h3.705v-.096c-.037-.642-.21-1.139-.52-1.49-.31-.355-.729-.533-1.258-.533zm8.771 4.819l2.516-5.721h1.579V489h-1.265v-5.38l-2.393 5.38h-.875l-2.44-5.496V489h-1.265v-7.396h1.641l2.502 5.721zm49.195-46.796h-1.21V445h-1.312v-9.953h1.312v4.389h1.026l3.479-4.389h1.634l-3.801 4.826 4.081 5.127h-1.606l-3.603-4.471zM776.52 445c-.073-.146-.133-.406-.178-.779-.588.61-1.29.916-2.106.916-.729 0-1.328-.205-1.798-.616a2.016 2.016 0 0 1-.697-1.572c0-.77.292-1.367.875-1.791.588-.428 1.413-.642 2.475-.642h1.23v-.581c0-.442-.132-.793-.396-1.053-.265-.264-.654-.397-1.169-.397-.451 0-.83.114-1.135.342-.305.228-.458.504-.458.827h-1.271c0-.369.129-.724.389-1.066.265-.346.62-.62 1.067-.82a3.6 3.6 0 0 1 1.483-.301c.852 0 1.52.214 2.003.642.483.424.734 1.01.752 1.757v3.405c0 .679.087 1.219.26 1.62V445h-1.326zm-2.099-.964c.396 0 .772-.102 1.128-.307.355-.206.613-.472.772-.8v-1.518h-.991c-1.549 0-2.324.454-2.324 1.36 0 .397.132.707.396.93.265.223.604.335 1.019.335zm11.395-2.652c0 1.125-.257 2.032-.772 2.72-.515.689-1.212 1.033-2.092 1.033-.898 0-1.604-.285-2.119-.855v3.562h-1.265v-10.24h1.156l.061.82c.515-.638 1.231-.957 2.147-.957.888 0 1.59.335 2.105 1.005.52.67.779 1.602.779 2.796v.116zm-1.264-.144c0-.834-.178-1.492-.533-1.975-.356-.483-.844-.725-1.463-.725-.766 0-1.34.34-1.723 1.019v3.534c.378.674.957 1.011 1.736 1.011.606 0 1.087-.239 1.443-.717.36-.483.54-1.199.54-2.147zm4.259-1.087h1.92c.839.009 1.502.228 1.99.657.487.428.731 1.009.731 1.743 0 .738-.251 1.33-.752 1.777-.501.447-1.176.67-2.023.67h-3.131v-7.396h1.265v2.549zm0 1.033v2.782h1.879c.474 0 .841-.121 1.101-.363.26-.246.39-.581.39-1.004 0-.411-.128-.746-.383-1.005-.251-.265-.604-.401-1.06-.41h-1.927zm9.29 3.951c-1.003 0-1.819-.328-2.448-.985-.629-.66-.943-1.542-.943-2.645v-.233c0-.733.139-1.387.417-1.962a3.288 3.288 0 0 1 1.176-1.353 2.957 2.957 0 0 1 1.64-.492c.962 0 1.709.317 2.243.95.533.633.799 1.54.799 2.721v.526h-5.01c.018.729.23 1.319.635 1.771.411.446.93.669 1.559.669.447 0 .825-.091 1.135-.273.31-.182.581-.424.813-.725l.773.602c-.62.952-1.55 1.429-2.789 1.429zm-.158-6.631c-.51 0-.938.187-1.285.56-.346.37-.56.889-.642 1.559h3.705v-.096c-.037-.642-.21-1.139-.52-1.49-.31-.355-.729-.533-1.258-.533zm10.76 2.878c0 1.125-.257 2.032-.772 2.72-.515.689-1.213 1.033-2.092 1.033-.898 0-1.604-.285-2.119-.855v3.562h-1.265v-10.24h1.155l.062.82c.515-.638 1.23-.957 2.146-.957.889 0 1.591.335 2.106 1.005.519.67.779 1.602.779 2.796v.116zm-1.265-.144c0-.834-.177-1.492-.533-1.975-.355-.483-.843-.725-1.463-.725-.765 0-1.339.34-1.722 1.019v3.534c.378.674.957 1.011 1.736 1.011.606 0 1.087-.239 1.442-.717.36-.483.54-1.199.54-2.147zm8.921 3.76h-1.264v-3.158h-3.398V445h-1.271v-7.396h1.271v3.206h3.398v-3.206h1.264V445zm1.703-3.767c0-.724.141-1.376.423-1.955a3.226 3.226 0 0 1 1.19-1.34c.51-.314 1.091-.471 1.743-.471 1.007 0 1.821.348 2.44 1.046.625.697.937 1.624.937 2.782v.089c0 .72-.139 1.367-.417 1.941a3.117 3.117 0 0 1-1.183 1.333c-.51.319-1.098.479-1.763.479-1.003 0-1.816-.349-2.441-1.046-.62-.697-.929-1.62-.929-2.769v-.089zm1.271.151c0 .82.189 1.479.567 1.975.383.497.894.745 1.532.745.642 0 1.153-.25 1.531-.751.378-.506.567-1.213.567-2.12 0-.811-.193-1.467-.581-1.968-.383-.506-.893-.759-1.531-.759-.624 0-1.128.248-1.511.745s-.574 1.208-.574 2.133zm10.117 3.753c-1.002 0-1.818-.328-2.447-.985-.629-.66-.943-1.542-.943-2.645v-.233c0-.733.139-1.387.417-1.962a3.286 3.286 0 0 1 1.175-1.353 2.96 2.96 0 0 1 1.641-.492c.962 0 1.709.317 2.242.95.533.633.8 1.54.8 2.721v.526h-5.011c.018.729.23 1.319.636 1.771.41.446.93.669 1.559.669.446 0 .824-.091 1.134-.273.31-.182.581-.424.814-.725l.772.602c-.62.952-1.549 1.429-2.789 1.429zm-.157-6.631c-.51 0-.939.187-1.285.56-.347.37-.561.889-.643 1.559h3.705v-.096c-.036-.642-.209-1.139-.519-1.49-.31-.355-.729-.533-1.258-.533zm8.933 24.621h-4.799v2.98h2.474c1.039.014 1.851.281 2.434.8.583.52.875 1.226.875 2.119 0 .898-.294 1.614-.882 2.147-.588.533-1.39.809-2.406.827h-3.815v-9.953h6.119v1.08zm-4.799 4.061v3.739h2.399c.652 0 1.158-.173 1.518-.52.364-.346.547-.811.547-1.394 0-.561-.176-1.003-.527-1.326-.346-.324-.841-.49-1.483-.499h-2.454zm10.431 4.949c-1.002 0-1.818-.328-2.447-.985-.629-.66-.943-1.542-.943-2.645v-.233c0-.733.139-1.387.417-1.962a3.281 3.281 0 0 1 1.176-1.353 2.954 2.954 0 0 1 1.64-.492c.962 0 1.709.317 2.242.95.534.633.8 1.54.8 2.721v.526h-5.011c.019.729.231 1.319.636 1.771.41.446.93.669 1.559.669.446 0 .825-.091 1.135-.273a2.85 2.85 0 0 0 .813-.725l.772.602c-.619.952-1.549 1.429-2.789 1.429zm-.157-6.631c-.51 0-.939.187-1.285.56-.346.37-.561.889-.643 1.559h3.706v-.096c-.037-.642-.21-1.139-.52-1.49-.31-.355-.729-.533-1.258-.533zm7.479 5.598c.451 0 .845-.136 1.182-.41.338-.273.524-.615.561-1.025h1.196a2.294 2.294 0 0 1-.437 1.21 2.876 2.876 0 0 1-1.08.916 3.087 3.087 0 0 1-1.422.342c-1.007 0-1.81-.335-2.407-1.005-.592-.675-.888-1.595-.888-2.762v-.212c0-.72.132-1.36.396-1.921.265-.56.643-.995 1.135-1.305.497-.31 1.082-.465 1.757-.465.829 0 1.517.248 2.064.745.552.497.846 1.142.882 1.934h-1.196c-.037-.478-.219-.87-.547-1.175-.324-.31-.725-.465-1.203-.465-.643 0-1.142.232-1.497.697-.351.46-.527 1.128-.527 2.003v.239c0 .853.176 1.509.527 1.969.351.46.852.69 1.504.69zm6.665-2.255h-.923V472h-1.272v-7.396h1.272v3.13h.827l2.488-3.13h1.532l-2.926 3.554 3.172 3.842h-1.607l-2.563-3.151zm8.217 3.288c-1.003 0-1.819-.328-2.448-.985-.629-.66-.943-1.542-.943-2.645v-.233c0-.733.139-1.387.417-1.962a3.281 3.281 0 0 1 1.176-1.353 2.957 2.957 0 0 1 1.64-.492c.962 0 1.709.317 2.242.95.534.633.8 1.54.8 2.721v.526h-5.01c.018.729.23 1.319.635 1.771.41.446.93.669 1.559.669.446 0 .825-.091 1.135-.273.31-.182.581-.424.813-.725l.773.602c-.62.952-1.55 1.429-2.789 1.429zm-.158-6.631c-.51 0-.939.187-1.285.56-.346.37-.56.889-.642 1.559h3.705v-.096c-.037-.642-.21-1.139-.52-1.49-.31-.355-.729-.533-1.258-.533zm8.771 4.819l2.515-5.721h1.58V472h-1.265v-5.38l-2.393 5.38h-.875l-2.44-5.496V472h-1.265v-7.396h1.641l2.502 5.721zM886.856 472h-1.264v-6.351h-3.404V472h-1.272v-7.396h5.94V472zm6.816-7.396h1.265V472h-1.265v-5.394L890.261 472h-1.265v-7.396h1.265v5.4l3.411-5.4zm9.543 3.78c0 1.125-.258 2.032-.773 2.72-.515.689-1.212 1.033-2.091 1.033-.898 0-1.605-.285-2.12-.855v3.562h-1.264v-10.24h1.155l.062.82c.515-.638 1.23-.957 2.146-.957.889 0 1.591.335 2.106 1.005.519.67.779 1.602.779 2.796v.116zm-1.265-.144c0-.834-.178-1.492-.533-1.975-.355-.483-.843-.725-1.463-.725-.766 0-1.34.34-1.723 1.019v3.534c.379.674.957 1.011 1.737 1.011.606 0 1.087-.239 1.442-.717.36-.483.54-1.199.54-2.147zm-124.299 1.162h-4.17l-.936 2.598h-1.354l3.801-9.953h1.149l3.807 9.953h-1.346l-.951-2.598zm-3.773-1.08h3.384l-1.696-4.655-1.688 4.655zm9.516.527h-.923V472h-1.272v-7.396h1.272v3.13h.827l2.488-3.13h1.531l-2.925 3.554 3.171 3.842h-1.606l-2.563-3.151zm8.114 2.255c.451 0 .845-.136 1.182-.41.338-.273.525-.615.561-1.025h1.196a2.294 2.294 0 0 1-.437 1.21 2.876 2.876 0 0 1-1.08.916 3.087 3.087 0 0 1-1.422.342c-1.007 0-1.809-.335-2.406-1.005-.593-.675-.889-1.595-.889-2.762v-.212c0-.72.132-1.36.396-1.921.265-.56.643-.995 1.135-1.305.497-.31 1.082-.465 1.757-.465.829 0 1.518.248 2.064.745.552.497.846 1.142.882 1.934h-1.196c-.036-.478-.219-.87-.547-1.175-.323-.31-.725-.465-1.203-.465-.643 0-1.142.232-1.497.697-.351.46-.526 1.128-.526 2.003v.239c0 .853.175 1.509.526 1.969.351.46.852.69 1.504.69zm8.928.896c-.073-.146-.133-.406-.178-.779-.588.61-1.29.916-2.106.916-.729 0-1.328-.205-1.798-.616a2.016 2.016 0 0 1-.697-1.572c0-.77.292-1.367.875-1.791.588-.428 1.413-.642 2.475-.642h1.23v-.581c0-.442-.132-.793-.396-1.053-.265-.264-.654-.397-1.169-.397-.451 0-.83.114-1.135.342-.305.228-.458.504-.458.827h-1.271c0-.369.13-.724.389-1.066.265-.346.62-.62 1.067-.82a3.6 3.6 0 0 1 1.483-.301c.852 0 1.52.214 2.003.642.483.424.734 1.01.752 1.757v3.405c0 .679.087 1.219.26 1.62V472h-1.326zm-2.099-.964c.396 0 .772-.102 1.128-.307.355-.206.613-.472.772-.8v-1.518h-.991c-1.549 0-2.324.454-2.324 1.36 0 .397.132.707.396.93.265.223.604.335 1.019.335zm7.451-2.187h-.923V472h-1.271v-7.396h1.271v3.13h.827l2.489-3.13h1.531l-2.926 3.554 3.172 3.842h-1.606l-2.564-3.151zm9.823 3.151c-.073-.146-.132-.406-.177-.779-.588.61-1.29.916-2.106.916-.729 0-1.328-.205-1.798-.616-.465-.414-.697-.938-.697-1.572 0-.77.292-1.367.875-1.791.588-.428 1.413-.642 2.475-.642h1.23v-.581c0-.442-.132-.793-.396-1.053-.265-.264-.654-.397-1.169-.397-.452 0-.83.114-1.135.342-.305.228-.458.504-.458.827h-1.272c0-.369.13-.724.39-1.066a2.7 2.7 0 0 1 1.066-.82 3.608 3.608 0 0 1 1.484-.301c.852 0 1.52.214 2.003.642.483.424.734 1.01.752 1.757v3.405c0 .679.086 1.219.26 1.62V472h-1.327zm-2.098-.964c.396 0 .772-.102 1.128-.307.355-.206.613-.472.772-.8v-1.518h-.991c-1.55 0-2.324.454-2.324 1.36 0 .397.132.707.396.93.264.223.604.335 1.019.335zm11.211-6.432V472h-1.272v-6.351h-2.515l-.151 2.769c-.082 1.271-.296 2.181-.642 2.728-.342.546-.887.831-1.634.854h-.506v-1.114l.362-.028c.41-.045.704-.282.882-.711.178-.428.292-1.221.342-2.378l.137-3.165h4.997zm66.813-161.057l3.254 8.121 3.253-8.121h1.703v9.953h-1.313v-3.876l.123-4.184-3.267 8.06h-1.005l-3.261-8.039.13 4.163v3.876h-1.313v-9.953h1.696zm15.114 2.557h1.265v7.396h-1.265v-5.394l-3.411 5.394h-1.265v-7.396h1.265v5.4l3.411-5.4zm7.362 2.023a.974.974 0 0 0-.396-.82c-.265-.205-.627-.308-1.087-.308-.447 0-.821.116-1.121.349-.297.232-.445.506-.445.82h-1.257c0-.643.268-1.169.806-1.579.538-.41 1.21-.615 2.017-.615.866 0 1.54.186 2.023.56.483.369.725.898.725 1.586 0 .333-.1.638-.301.916-.2.278-.485.499-.854.663.861.292 1.292.866 1.292 1.723 0 .679-.262 1.217-.787 1.613-.524.397-1.223.595-2.098.595-.852 0-1.557-.207-2.113-.622-.551-.419-.827-.985-.827-1.696h1.258c0 .361.16.67.479.93.323.255.724.383 1.203.383.483 0 .873-.112 1.169-.335a1.04 1.04 0 0 0 .444-.868c0-.415-.125-.711-.376-.889-.246-.182-.631-.273-1.155-.273h-1.265v-1.067h1.374c.862-.022 1.292-.378 1.292-1.066zm6.112 5.51c-1.003 0-1.819-.328-2.448-.985-.629-.66-.943-1.542-.943-2.645v-.233c0-.733.139-1.387.417-1.962a3.281 3.281 0 0 1 1.176-1.353 2.957 2.957 0 0 1 1.64-.492c.962 0 1.709.317 2.242.95.534.633.8 1.54.8 2.721v.526h-5.01c.018.729.23 1.319.635 1.771.41.446.93.669 1.559.669.446 0 .825-.091 1.135-.273.31-.182.581-.424.813-.725l.773.602c-.62.952-1.55 1.429-2.789 1.429zm-.158-6.631c-.51 0-.939.187-1.285.56-.346.37-.56.889-.642 1.559h3.705v-.096c-.037-.642-.21-1.139-.52-1.49-.31-.355-.729-.533-1.258-.533zm6.816 3.343h-.923v3.151h-1.272v-7.396h1.272v3.13h.827l2.488-3.13h1.532l-2.926 3.554 3.172 3.842h-1.607l-2.563-3.151z" fill="#002C4D"/><path d="M180.859 100.49v5.01h-1.688V92.703h4.72c1.401 0 2.496.358 3.287 1.072.797.715 1.196 1.661 1.196 2.84 0 1.241-.39 2.2-1.169 2.873-.774.668-1.884 1.002-3.331 1.002h-3.015zm0-1.38h3.032c.902 0 1.594-.21 2.074-.632.481-.428.721-1.043.721-1.846 0-.762-.24-1.371-.721-1.828-.48-.457-1.139-.695-1.977-.712h-3.129v5.018zm19.512.405c0 1.254-.211 2.349-.633 3.287-.422.931-1.02 1.643-1.793 2.136-.774.492-1.676.738-2.707.738-1.008 0-1.902-.246-2.681-.738-.779-.499-1.386-1.205-1.819-2.119-.428-.92-.648-1.983-.659-3.19v-.923c0-1.23.213-2.317.641-3.26.428-.944 1.031-1.665 1.811-2.163.785-.504 1.681-.756 2.689-.756 1.026 0 1.928.25 2.707.747.785.493 1.389 1.21 1.811 2.154.422.937.633 2.03.633 3.278v.809zm-1.679-.826c0-1.518-.305-2.681-.914-3.49-.61-.814-1.462-1.221-2.558-1.221-1.066 0-1.907.407-2.522 1.221-.61.809-.923 1.934-.941 3.375v.94c0 1.471.308 2.629.923 3.472.621.838 1.474 1.257 2.558 1.257 1.09 0 1.933-.395 2.531-1.186.598-.797.905-1.937.923-3.42v-.948zm13.623 2.75c-.158 1.354-.659 2.4-1.503 3.138-.838.733-1.954 1.099-3.349 1.099-1.511 0-2.724-.542-3.638-1.626-.908-1.084-1.363-2.534-1.363-4.35v-1.231c0-1.19.211-2.236.633-3.138.428-.902 1.031-1.594 1.811-2.074.779-.487 1.681-.73 2.707-.73 1.359 0 2.449.381 3.269 1.143.821.756 1.298 1.805 1.433 3.146h-1.696c-.147-1.02-.466-1.757-.958-2.214-.487-.458-1.169-.686-2.048-.686-1.078 0-1.925.398-2.54 1.195-.61.797-.914 1.931-.914 3.402v1.239c0 1.389.29 2.493.87 3.313.58.821 1.391 1.231 2.434 1.231.938 0 1.656-.211 2.154-.633.504-.428.838-1.169 1.002-2.224h1.696zm11.725 0c-.159 1.354-.66 2.4-1.503 3.138-.838.733-1.954 1.099-3.349 1.099-1.512 0-2.725-.542-3.639-1.626-.908-1.084-1.362-2.534-1.362-4.35v-1.231c0-1.19.211-2.236.633-3.138.428-.902 1.031-1.594 1.81-2.074.78-.487 1.682-.73 2.707-.73 1.36 0 2.45.381 3.27 1.143.82.756 1.298 1.805 1.433 3.146h-1.697c-.146-1.02-.466-1.757-.958-2.214-.486-.458-1.169-.686-2.048-.686-1.078 0-1.924.398-2.54 1.195-.609.797-.914 1.931-.914 3.402v1.239c0 1.389.29 2.493.87 3.313.58.821 1.392 1.231 2.435 1.231.937 0 1.655-.211 2.153-.633.504-.428.838-1.169 1.002-2.224h1.697zm10.379-8.736h1.688V105.5h-1.688v-9.861l-6.301 9.861h-1.697V92.703h1.697v9.861l6.301-9.86zM245.88 105.5v-4.983h-2.953l-2.645 4.983h-1.802l2.971-5.449c-1.653-.65-2.479-1.814-2.479-3.49 0-1.218.399-2.165 1.195-2.838.803-.68 1.916-1.02 3.34-1.02h4.07V105.5h-1.697zm-5.22-8.939c0 .774.24 1.395.72 1.864.487.469 1.161.706 2.022.712h2.478v-5.045h-2.399c-.914 0-1.614.217-2.101.65-.48.434-.72 1.04-.72 1.82zm96.906 506.569l2.944-7.427h1.96l-4.526 10.661c-.305.68-.589 1.163-.853 1.45a2.726 2.726 0 0 1-.931.651c-.352.146-.794.22-1.327.22-.463 0-.759-.027-.888-.08l.053-1.335.799.035c.616 0 1.073-.296 1.371-.888l.22-.457.334-.782-4.359-9.475h1.889l3.314 7.427zm13.491-3.99c0-.68-.249-1.219-.747-1.618-.492-.404-1.186-.606-2.083-.606-.75 0-1.38.208-1.89.624-.504.41-.755.92-.755 1.529h-1.688c0-.679.185-1.289.554-1.828.375-.539.896-.958 1.564-1.257a5.284 5.284 0 0 1 2.215-.457c1.43 0 2.54.323 3.331.967.791.639 1.187 1.529 1.187 2.672a2.64 2.64 0 0 1-.545 1.617c-.364.487-.87.87-1.521 1.152 1.506.503 2.259 1.503 2.259 2.997 0 1.148-.428 2.059-1.283 2.733-.856.674-1.998 1.011-3.428 1.011-.85 0-1.623-.15-2.32-.448-.692-.305-1.231-.736-1.617-1.292-.387-.557-.581-1.219-.581-1.987h1.688c0 .674.267 1.237.8 1.688.533.445 1.21.668 2.03.668.92 0 1.652-.214 2.197-.642.551-.428.826-.993.826-1.696 0-1.5-.928-2.265-2.786-2.294h-1.582v-1.389h1.574c.855-.017 1.502-.211 1.942-.58.439-.369.659-.891.659-1.564zm11.927-2.048h-6.17v3.832h3.182c1.336.017 2.379.36 3.129 1.028s1.125 1.576 1.125 2.725c0 1.154-.378 2.074-1.134 2.76-.756.685-1.787 1.04-3.094 1.063h-4.904v-12.797h7.866v1.389zm-6.17 5.22v4.808h3.085c.838 0 1.488-.223 1.951-.668.469-.445.703-1.043.703-1.793 0-.721-.225-1.289-.677-1.705-.445-.416-1.081-.63-1.907-.642h-3.155zm16.954.273h-5.546v4.535h6.443v1.38h-8.13v-12.797h8.042v1.389h-6.355v4.113h5.546v1.38zm6.319.167h-1.555v5.748h-1.688v-12.797h1.688v5.643h1.318l4.474-5.643h2.1l-4.886 6.205 5.247 6.592h-2.066l-4.632-5.748zm16.313-7.049h1.687V608.5H396.4v-9.861l-6.302 9.861h-1.696v-12.797h1.696v9.861l6.302-9.861zm14.177 8.736c-.159 1.354-.66 2.4-1.503 3.138-.838.733-1.954 1.099-3.349 1.099-1.512 0-2.725-.542-3.639-1.626-.908-1.084-1.362-2.534-1.362-4.351v-1.23c0-1.19.211-2.236.633-3.138.428-.902 1.031-1.594 1.81-2.074.78-.486 1.682-.73 2.708-.73 1.359 0 2.449.381 3.269 1.143.82.756 1.298 1.805 1.433 3.146h-1.697c-.146-1.019-.465-1.757-.958-2.214-.486-.457-1.169-.686-2.047-.686-1.079 0-1.925.398-2.541 1.195-.609.797-.914 1.931-.914 3.402v1.239c0 1.389.29 2.493.871 3.313.58.821 1.391 1.231 2.434 1.231.938 0 1.655-.211 2.153-.633.504-.428.838-1.169 1.002-2.224h1.697zm10.889-7.347h-4.113V608.5h-1.679v-11.408h-4.104v-1.389h9.896v1.389zm8.262 8.068h-5.361l-1.204 3.34h-1.741l4.887-12.797h1.477l4.895 12.797h-1.731l-1.222-3.34zm-4.852-1.389h4.351l-2.18-5.985-2.171 5.985zm19.363 4.729h-1.697v-5.915h-6.451v5.915h-1.687v-12.797h1.687v5.502h6.451v-5.502h1.697V608.5zm332.255 35.252h-1.556v5.748h-1.688v-12.797h1.688v5.643h1.318l4.474-5.643h2.101l-4.887 6.205 5.247 6.592h-2.066l-4.631-5.748zm15.31 2.408h-5.361l-1.204 3.34h-1.74l4.886-12.797h1.477l4.895 12.797h-1.731l-1.222-3.34zm-4.851-1.389h4.35l-2.179-5.985-2.171 5.985zm11.214-.281v5.01h-1.687v-12.797h4.72c1.4 0 2.496.358 3.287 1.072.797.715 1.195 1.662 1.195 2.839 0 1.242-.39 2.2-1.169 2.874-.773.668-1.884 1.002-3.331 1.002h-3.015zm0-1.38h3.033c.902 0 1.593-.211 2.074-.632.48-.428.721-1.043.721-1.846 0-.762-.241-1.371-.721-1.828-.481-.457-1.14-.695-1.978-.712h-3.129v5.018zm17.605-5.018h-6.17V649.5h-1.696v-12.797h7.866v1.389zm3.85 3.832h3.181c1.336.017 2.379.36 3.129 1.028s1.125 1.576 1.125 2.725c0 1.154-.378 2.074-1.134 2.76-.756.685-1.787 1.04-3.093 1.063h-4.896v-12.797h1.688v5.221zm0 1.388v4.808h3.085c.837 0 1.488-.223 1.951-.668.468-.445.703-1.043.703-1.793 0-.721-.226-1.289-.677-1.705-.445-.416-1.081-.63-1.907-.642h-3.155zm10.67 6.188h-1.688v-12.797h1.688V649.5zm12.55-4.061c-.158 1.354-.659 2.4-1.503 3.138-.838.733-1.954 1.099-3.348 1.099-1.512 0-2.725-.542-3.639-1.626-.908-1.084-1.362-2.534-1.362-4.351v-1.23c0-1.19.211-2.236.633-3.138.427-.902 1.031-1.594 1.81-2.074.779-.486 1.682-.73 2.707-.73 1.36 0 2.449.381 3.27 1.143.82.756 1.298 1.805 1.432 3.146h-1.696c-.146-1.019-.466-1.757-.958-2.214-.486-.457-1.169-.686-2.048-.686-1.078 0-1.925.398-2.54 1.195-.609.797-.914 1.931-.914 3.402v1.239c0 1.389.29 2.493.87 3.313.58.821 1.392 1.231 2.435 1.231.937 0 1.655-.211 2.153-.633.504-.428.838-1.169 1.002-2.224h1.696zm10.89-7.347h-4.113V649.5h-1.679v-11.408h-4.105v-1.389h9.897v1.389zm8.262 8.068h-5.362l-1.204 3.34h-1.74l4.887-12.797h1.476l4.896 12.797h-1.732l-1.221-3.34zm-4.852-1.389h4.351l-2.18-5.985-2.171 5.985zm19.362 4.729h-1.696v-5.915h-6.451v5.915h-1.688v-12.797h1.688v5.502h6.451v-5.502h1.696V649.5zm155.306-94.248h-1.56V561h-1.69v-12.797h1.69v5.643h1.32l4.47-5.643h2.1l-4.88 6.205 5.24 6.592h-2.06l-4.63-5.748zm16.31-7.049h1.69V561h-1.69v-9.861l-6.3 9.861h-1.7v-12.797h1.7v9.861l6.3-9.861zm13.34 1.389h-4.11V561h-1.68v-11.408h-4.1v-1.389h9.89v1.389zm8.26 8.068h-5.36l-1.2 3.34h-1.74l4.88-12.797h1.48l4.9 12.797h-1.73l-1.23-3.34zm-4.85-1.389h4.35l-2.18-5.985-2.17 5.985zm17.6-8.068h1.69V561h-1.69v-9.861l-6.3 9.861h-1.7v-12.797h1.7v9.861l6.3-9.861zm-.48-3.182c0 .709-.24 1.281-.73 1.714-.48.428-1.11.642-1.89.642-.79 0-1.43-.217-1.91-.65-.49-.434-.73-1.002-.73-1.706h1.33c0 .411.11.733.33.967.22.229.55.343.98.343.41 0 .72-.114.95-.343.24-.228.35-.55.35-.967h1.32z" fill="#C4C4C4"/><path d="M652.337 136.902h-4.17l-.936 2.598h-1.354l3.801-9.953h1.149l3.807 9.953h-1.346l-.951-2.598zm-3.773-1.08h3.384l-1.696-4.655-1.688 4.655zm9.516.527h-.923v3.151h-1.272v-7.396h1.272v3.13h.827l2.488-3.13h1.531l-2.925 3.554 3.172 3.842h-1.607l-2.563-3.151zm8.114 2.255c.451 0 .845-.136 1.182-.41.338-.273.525-.615.561-1.025h1.196a2.285 2.285 0 0 1-.437 1.21 2.876 2.876 0 0 1-1.08.916 3.087 3.087 0 0 1-1.422.342c-1.007 0-1.809-.335-2.406-1.005-.593-.675-.889-1.595-.889-2.762v-.212c0-.72.132-1.36.396-1.921.265-.56.643-.995 1.135-1.305.497-.31 1.083-.465 1.757-.465.829 0 1.518.248 2.064.745.552.497.846 1.142.882 1.934h-1.196c-.036-.478-.219-.87-.547-1.175-.323-.31-.724-.465-1.203-.465-.643 0-1.142.232-1.497.697-.351.46-.526 1.128-.526 2.003v.239c0 .853.175 1.509.526 1.969.351.46.852.69 1.504.69zm6.781-.957l1.723-5.543h1.353l-2.973 8.538c-.461 1.23-1.192 1.845-2.195 1.845l-.239-.02-.472-.089v-1.025l.342.027c.429 0 .761-.087.998-.26.242-.173.44-.49.595-.95l.28-.752-2.638-7.314h1.38l1.846 5.543zm70.937-16.02h-4.799v2.98h2.474c1.039.014 1.851.281 2.434.8.583.52.875 1.226.875 2.119 0 .898-.294 1.614-.882 2.147-.588.533-1.39.809-2.406.827h-3.815v-9.953h6.119v1.08zm-4.799 4.061v3.739h2.399c.652 0 1.158-.173 1.518-.52.364-.346.547-.811.547-1.394 0-.561-.176-1.003-.527-1.326-.346-.324-.841-.49-1.483-.499h-2.454zm10.431 4.949c-1.002 0-1.818-.328-2.447-.985-.629-.66-.943-1.542-.943-2.645v-.233c0-.733.139-1.387.417-1.962a3.281 3.281 0 0 1 1.176-1.353 2.954 2.954 0 0 1 1.64-.492c.962 0 1.709.317 2.242.95.534.633.8 1.54.8 2.721v.526h-5.011c.019.729.231 1.319.636 1.771.41.446.93.669 1.559.669.446 0 .825-.091 1.135-.273a2.85 2.85 0 0 0 .813-.725l.772.602c-.619.952-1.549 1.429-2.789 1.429zm-.157-6.631c-.51 0-.939.187-1.285.56-.346.37-.56.889-.643 1.559h3.706v-.096c-.037-.642-.21-1.139-.52-1.49-.31-.355-.729-.533-1.258-.533zm7.479 5.598c.451 0 .845-.136 1.182-.41.338-.273.524-.615.561-1.025h1.196a2.294 2.294 0 0 1-.437 1.21 2.876 2.876 0 0 1-1.08.916 3.087 3.087 0 0 1-1.422.342c-1.007 0-1.81-.335-2.407-1.005-.592-.675-.888-1.595-.888-2.762v-.212c0-.72.132-1.36.396-1.921.265-.56.643-.995 1.135-1.305.497-.31 1.082-.465 1.757-.465.829 0 1.517.248 2.064.745.552.497.846 1.142.882 1.934h-1.196c-.037-.478-.219-.87-.547-1.175-.324-.31-.725-.465-1.203-.465-.643 0-1.142.232-1.497.697-.351.46-.527 1.128-.527 2.003v.239c0 .853.176 1.509.527 1.969.351.46.852.69 1.504.69zm9.857-5.475h-2.481v6.371h-1.265v-6.371h-2.434v-1.025h6.18v1.025zm.609 2.604c0-.724.141-1.376.423-1.955a3.226 3.226 0 0 1 1.19-1.34c.51-.314 1.091-.471 1.743-.471 1.007 0 1.821.348 2.44 1.046.625.697.937 1.624.937 2.782v.089c0 .72-.139 1.367-.417 1.941a3.11 3.11 0 0 1-1.183 1.333c-.51.319-1.098.479-1.763.479-1.003 0-1.816-.349-2.441-1.046-.62-.697-.929-1.62-.929-2.769v-.089zm1.271.151c0 .82.189 1.479.567 1.975.383.497.894.745 1.532.745.642 0 1.153-.25 1.531-.751.378-.506.567-1.213.567-2.12 0-.811-.193-1.467-.581-1.968-.383-.506-.893-.759-1.531-.759-.624 0-1.128.248-1.511.745s-.574 1.208-.574 2.133zm10.295-3.357c.93 0 1.672.313 2.228.937.561.62.841 1.438.841 2.454v.116c0 .697-.134 1.322-.403 1.873a3.013 3.013 0 0 1-1.162 1.279c-.501.3-1.08.451-1.736.451-.994 0-1.794-.331-2.4-.991-.606-.666-.909-1.557-.909-2.673v-.616c0-1.554.287-2.789.861-3.705.579-.916 1.431-1.474 2.557-1.674.638-.114 1.069-.253 1.292-.417a.796.796 0 0 0 .335-.677h1.039c0 .569-.13 1.014-.39 1.333-.255.319-.665.544-1.23.677l-.944.211c-.752.178-1.317.479-1.695.903-.374.419-.617.98-.731 1.681.67-.774 1.485-1.162 2.447-1.162zm-.246 1.039c-.62 0-1.112.21-1.477.629-.364.415-.547.992-.547 1.73v.109c0 .793.183 1.422.547 1.887.369.46.866.69 1.491.69.628 0 1.125-.232 1.49-.697.364-.465.547-1.144.547-2.037 0-.697-.185-1.256-.554-1.675-.365-.424-.864-.636-1.497-.636zm7.806 6.071c-1.002 0-1.818-.328-2.447-.985-.629-.66-.943-1.542-.943-2.645v-.233c0-.733.139-1.387.417-1.962a3.281 3.281 0 0 1 1.176-1.353 2.957 2.957 0 0 1 1.64-.492c.962 0 1.709.317 2.242.95.534.633.8 1.54.8 2.721v.526h-5.01c.018.729.23 1.319.635 1.771.41.446.93.669 1.559.669.446 0 .825-.091 1.135-.273.31-.182.581-.424.813-.725l.773.602c-.62.952-1.55 1.429-2.79 1.429zm-.157-6.631c-.51 0-.939.187-1.285.56-.346.37-.56.889-.642 1.559h3.705v-.096c-.037-.642-.21-1.139-.52-1.49-.31-.355-.729-.533-1.258-.533zm-49.467 36.955h-1.066v4.539h-1.312v-4.539h-1.128l-2.817 4.539h-1.64l3.349-5.25-3.09-4.703h1.552l2.646 4.32h1.128v-4.32h1.312v4.32h1.08l2.646-4.32h1.545l-3.09 4.696 3.349 5.257h-1.633l-2.831-4.539zm5.039.772c0-.724.141-1.376.423-1.955a3.226 3.226 0 0 1 1.19-1.34c.51-.314 1.091-.471 1.743-.471 1.007 0 1.821.348 2.44 1.046.625.697.937 1.624.937 2.782v.089c0 .72-.139 1.367-.417 1.941a3.11 3.11 0 0 1-1.183 1.333c-.51.319-1.098.479-1.763.479-1.003 0-1.816-.349-2.441-1.046-.62-.697-.929-1.62-.929-2.769v-.089zm1.271.151c0 .82.189 1.479.567 1.975.383.497.894.745 1.532.745.642 0 1.153-.25 1.531-.751.378-.506.567-1.213.567-2.12 0-.811-.193-1.467-.581-1.968-.383-.506-.893-.759-1.531-.759-.624 0-1.128.248-1.511.745s-.574 1.208-.574 2.133zm13.002-3.78v7.396h-1.271v-6.351h-2.516l-.151 2.769c-.082 1.271-.296 2.181-.642 2.728-.342.546-.886.831-1.634.854h-.506v-1.114l.363-.028c.41-.045.704-.282.881-.711.178-.428.292-1.221.342-2.378l.137-3.165h4.997zm3.411 2.549h1.921c.839.009 1.502.228 1.989.657.488.428.732 1.009.732 1.743 0 .738-.251 1.33-.752 1.777-.502.447-1.176.67-2.024.67h-3.131v-7.396h1.265v2.549zm7.28 4.847h-1.271v-7.396h1.271v7.396zm-7.28-3.814v2.782h1.88c.474 0 .841-.121 1.101-.363.259-.246.389-.581.389-1.004 0-.411-.127-.746-.383-1.005-.25-.265-.603-.401-1.059-.41h-1.928zm13.747 2.139l2.516-5.721h1.579v7.396h-1.265v-5.38l-2.392 5.38h-.875l-2.441-5.496v5.496h-1.264v-7.396h1.64l2.502 5.721zm9.379-5.298c.93 0 1.673.313 2.229.937.56.62.84 1.438.84 2.454v.116c0 .697-.134 1.322-.403 1.873a3.013 3.013 0 0 1-1.162 1.279c-.501.3-1.08.451-1.736.451-.994 0-1.794-.331-2.4-.991-.606-.666-.909-1.557-.909-2.673v-.616c0-1.554.287-2.789.861-3.705.579-.916 1.431-1.474 2.557-1.674.638-.114 1.069-.253 1.292-.417a.796.796 0 0 0 .335-.677h1.039c0 .569-.13 1.014-.39 1.333-.255.319-.665.544-1.23.677l-.943.211c-.752.178-1.317.479-1.696.903-.373.419-.617.98-.731 1.681.67-.774 1.486-1.162 2.447-1.162zm-.246 1.039c-.62 0-1.112.21-1.477.629-.364.415-.546.992-.546 1.73v.109c0 .793.182 1.422.546 1.887.37.46.866.69 1.491.69.629 0 1.125-.232 1.49-.697.365-.465.547-1.144.547-2.037 0-.697-.185-1.256-.554-1.675-.365-.424-.864-.636-1.497-.636zm7.807 6.071c-1.003 0-1.819-.328-2.448-.985-.629-.66-.943-1.542-.943-2.645v-.233c0-.733.139-1.387.417-1.962a3.288 3.288 0 0 1 1.176-1.353 2.96 2.96 0 0 1 1.64-.492c.962 0 1.709.317 2.243.95.533.633.799 1.54.799 2.721v.526h-5.01c.018.729.23 1.319.635 1.771.411.446.93.669 1.559.669.447 0 .825-.091 1.135-.273.31-.182.581-.424.813-.725l.773.602c-.62.952-1.55 1.429-2.789 1.429zm-.158-6.631c-.51 0-.938.187-1.285.56-.346.37-.56.889-.642 1.559h3.705v-.096c-.037-.642-.21-1.139-.52-1.49-.31-.355-.729-.533-1.258-.533zm9.926.123h-2.481v6.371h-1.265v-6.371h-2.433v-1.025h6.179v1.025zM873.693 365.5h-1.265v-6.351h-3.404v6.351h-1.272v-7.396h5.941v7.396zm8.094-7.396v7.396h-1.272v-6.351H878l-.151 2.769c-.082 1.271-.296 2.181-.642 2.728-.342.546-.887.831-1.634.854h-.506v-1.114l.362-.028c.41-.045.704-.282.882-.711.178-.428.292-1.221.342-2.378l.137-3.165h4.997zm2.057 6.733a.8.8 0 0 1 .192-.547c.132-.146.328-.219.588-.219.259 0 .455.073.587.219a.768.768 0 0 1 .206.547c0 .21-.069.385-.206.526-.132.142-.328.212-.587.212-.26 0-.456-.07-.588-.212a.753.753 0 0 1-.192-.526zm12.818 3.103h-1.306v-2.44h-7.144v2.447H886.9l-.007-3.52h.814c.428-.483.767-1.13 1.018-1.942.255-.815.415-1.709.479-2.679l.218-4.259h5.954v8.88h1.299l-.013 3.513zm-7.458-3.513h4.853v-7.8h-3.37l-.144 2.926c-.059 1.144-.211 2.119-.458 2.926-.241.806-.535 1.456-.881 1.948zm8.497-2.694c0-.724.141-1.376.424-1.955.287-.578.683-1.025 1.189-1.34.51-.314 1.091-.471 1.743-.471 1.007 0 1.821.348 2.441 1.046.624.697.936 1.624.936 2.782v.089c0 .72-.139 1.367-.417 1.941a3.11 3.11 0 0 1-1.183 1.333c-.51.319-1.098.479-1.763.479-1.003 0-1.816-.349-2.441-1.046-.619-.697-.929-1.62-.929-2.769v-.089zm1.271.151c0 .82.189 1.479.568 1.975.382.497.893.745 1.531.745.642 0 1.153-.25 1.531-.751.378-.506.567-1.213.567-2.12 0-.811-.193-1.467-.581-1.968-.382-.506-.893-.759-1.531-.759-.624 0-1.128.248-1.511.745-.382.497-.574 1.208-.574 2.133zm13.002-3.78v7.396h-1.271v-6.351h-2.516l-.15 2.769c-.082 1.271-.297 2.181-.643 2.728-.342.546-.886.831-1.634.854h-.506v-1.114l.363-.028c.41-.045.704-.282.882-.711.177-.428.291-1.221.341-2.378l.137-3.165h4.997zm6.816 0h1.264v7.396h-1.264v-5.394l-3.412 5.394h-1.264v-7.396h1.264v5.4l3.412-5.4zm9.337 7.396h-1.264v-3.158h-3.398v3.158h-1.271v-7.396h1.271v3.206h3.398v-3.206h1.264v7.396zm8.081 0h-1.265v-3.158h-3.398v3.158h-1.271v-7.396h1.271v3.206h3.398v-3.206h1.265v7.396zm1.702-3.767c0-.724.141-1.376.423-1.955.288-.578.684-1.025 1.19-1.34.51-.314 1.091-.471 1.743-.471 1.007 0 1.821.348 2.441 1.046.624.697.936 1.624.936 2.782v.089c0 .72-.139 1.367-.417 1.941a3.11 3.11 0 0 1-1.183 1.333c-.51.319-1.098.479-1.763.479-1.003 0-1.816-.349-2.441-1.046-.619-.697-.929-1.62-.929-2.769v-.089zm1.271.151c0 .82.189 1.479.568 1.975.382.497.893.745 1.531.745.642 0 1.153-.25 1.531-.751.378-.506.567-1.213.567-2.12 0-.811-.193-1.467-.581-1.968-.382-.506-.893-.759-1.531-.759-.624 0-1.128.248-1.511.745-.382.497-.574 1.208-.574 2.133zm10.117 3.753c-1.002 0-1.818-.328-2.447-.985-.629-.66-.943-1.542-.943-2.645v-.233c0-.733.139-1.387.417-1.962a3.286 3.286 0 0 1 1.175-1.353 2.96 2.96 0 0 1 1.641-.492c.962 0 1.709.317 2.242.95.534.633.8 1.54.8 2.721v.526h-5.011c.019.729.231 1.319.636 1.771.41.446.93.669 1.559.669.446 0 .825-.091 1.134-.273a2.84 2.84 0 0 0 .814-.725l.772.602c-.619.952-1.549 1.429-2.789 1.429zm-.157-6.631c-.51 0-.939.187-1.285.56-.346.37-.561.889-.643 1.559h3.705v-.096c-.036-.642-.209-1.139-.519-1.49-.31-.355-.729-.533-1.258-.533zm-142.024-51.459h1.312v9.953h-1.312v-7.67l-4.902 7.67h-1.319v-9.953h1.319v7.67l4.902-7.67zm9.003 3.582h-2.482v6.371h-1.264v-6.371h-2.434v-1.025h6.18v1.025zm3.534 3.22h-.923v3.151h-1.272v-7.396h1.272v3.13h.827l2.488-3.13h1.532l-2.926 3.554 3.172 3.842h-1.607l-2.563-3.151zm7.677 1.298l1.722-5.543h1.354l-2.974 8.538c-.46 1.23-1.192 1.845-2.194 1.845l-.239-.02-.472-.089v-1.025l.342.027c.428 0 .761-.087.998-.26.241-.173.439-.49.594-.95l.281-.752-2.639-7.314h1.381l1.846 5.543zm3.766.821l.438-.54c.492-.638.772-1.595.84-2.871l.117-2.953h4.764v6.364h.951v3.206h-1.265V317.5h-5.161v2.174h-1.265l.007-3.206h.574zm1.497 0h3.398v-5.196h-2.277l-.075 1.764c-.077 1.472-.426 2.616-1.046 3.432zm9.434-.821l1.722-5.543h1.354l-2.974 8.538c-.46 1.23-1.191 1.845-2.194 1.845l-.239-.02-.472-.089v-1.025l.342.027c.428 0 .761-.087.998-.26.241-.173.44-.49.595-.95l.28-.752-2.639-7.314h1.381l1.846 5.543zm6.514-1.298h-.922v3.151h-1.272v-7.396h1.272v3.13h.827l2.488-3.13h1.531l-2.925 3.554 3.171 3.842h-1.606l-2.564-3.151zm-12.044 27.496c0 .975-.165 1.827-.493 2.556-.328.725-.793 1.279-1.394 1.661-.602.383-1.304.575-2.106.575-.783 0-1.478-.192-2.085-.575-.606-.387-1.077-.936-1.415-1.647-.332-.715-.503-1.543-.512-2.481v-.718c0-.957.166-1.803.499-2.536.332-.734.802-1.295 1.408-1.682.611-.392 1.308-.588 2.092-.588.797 0 1.499.194 2.105.581.611.383 1.08.941 1.408 1.675.328.729.493 1.579.493 2.55v.629zm-1.306-.643c0-1.18-.237-2.085-.711-2.714-.474-.633-1.137-.95-1.989-.95-.83 0-1.484.317-1.962.95-.474.629-.718 1.504-.732 2.625v.732c0 1.144.24 2.044.718 2.7.483.652 1.146.977 1.989.977.848 0 1.504-.307 1.969-.922.465-.62.704-1.507.718-2.66v-.738zm9.324 1.682c0 1.125-.257 2.032-.772 2.72-.515.689-1.213 1.033-2.092 1.033-.898 0-1.604-.285-2.119-.855v3.562h-1.265v-10.24h1.155l.062.82c.515-.638 1.23-.957 2.146-.957.889 0 1.591.335 2.106 1.005.519.67.779 1.602.779 2.796v.116zm-1.265-.144c0-.834-.177-1.492-.533-1.975-.355-.483-.843-.725-1.463-.725-.765 0-1.339.34-1.722 1.019v3.534c.378.674.957 1.011 1.736 1.011.606 0 1.087-.239 1.442-.717.36-.483.54-1.199.54-2.147zm7.828-2.611h-2.482v6.371h-1.264v-6.371h-2.434v-1.025h6.18v1.025zm5.687 6.371c-.073-.146-.132-.406-.178-.779-.588.61-1.289.916-2.105.916-.729 0-1.329-.205-1.798-.616-.465-.414-.697-.938-.697-1.572 0-.77.291-1.367.875-1.791.588-.428 1.413-.642 2.474-.642h1.231v-.581c0-.442-.132-.793-.397-1.053-.264-.264-.654-.397-1.169-.397-.451 0-.829.114-1.134.342-.306.228-.458.504-.458.827h-1.272c0-.369.13-.724.39-1.066a2.7 2.7 0 0 1 1.066-.82 3.605 3.605 0 0 1 1.484-.301c.852 0 1.519.214 2.003.642.483.424.733 1.01.752 1.757v3.405c0 .679.086 1.219.259 1.62v.109h-1.326zm-2.099-.964a2.22 2.22 0 0 0 1.128-.307c.356-.206.613-.472.773-.8v-1.518h-.991c-1.55 0-2.325.454-2.325 1.36 0 .397.133.707.397.93.264.223.604.335 1.018.335zm8.115.068c.451 0 .845-.136 1.182-.41.338-.273.524-.615.561-1.025h1.196a2.294 2.294 0 0 1-.437 1.21 2.876 2.876 0 0 1-1.08.916 3.087 3.087 0 0 1-1.422.342c-1.007 0-1.81-.335-2.407-1.005-.592-.675-.888-1.595-.888-2.762v-.212c0-.72.132-1.36.396-1.921.265-.56.643-.995 1.135-1.305.497-.31 1.082-.465 1.757-.465.829 0 1.517.248 2.064.745.552.497.846 1.142.882 1.934h-1.196c-.037-.478-.219-.87-.547-1.175-.324-.31-.725-.465-1.203-.465-.643 0-1.142.232-1.497.697-.351.46-.527 1.128-.527 2.003v.239c0 .853.176 1.509.527 1.969.351.46.852.69 1.504.69zm8.927.896c-.072-.146-.132-.406-.177-.779-.588.61-1.29.916-2.106.916-.729 0-1.328-.205-1.798-.616a2.016 2.016 0 0 1-.697-1.572c0-.77.292-1.367.875-1.791.588-.428 1.413-.642 2.475-.642h1.23v-.581c0-.442-.132-.793-.396-1.053-.265-.264-.654-.397-1.169-.397-.451 0-.83.114-1.135.342-.305.228-.458.504-.458.827h-1.271c0-.369.129-.724.389-1.066.265-.346.62-.62 1.067-.82a3.6 3.6 0 0 1 1.483-.301c.852 0 1.52.214 2.003.642.483.424.734 1.01.752 1.757v3.405c0 .679.086 1.219.26 1.62v.109h-1.327zm-2.098-.964c.396 0 .772-.102 1.128-.307.355-.206.613-.472.772-.8v-1.518h-.991c-1.549 0-2.324.454-2.324 1.36 0 .397.132.707.396.93.265.223.604.335 1.019.335zm9.932-6.432h1.265v7.396h-1.265v-5.394l-3.411 5.394h-1.264v-7.396h1.264v5.4l3.411-5.4zm.342-2.694c0 .552-.189.996-.567 1.333-.374.333-.866.499-1.477.499-.61 0-1.105-.168-1.483-.506-.378-.337-.567-.779-.567-1.326h1.032c0 .319.086.57.26.752.173.178.426.267.758.267.319 0 .568-.089.745-.267.183-.178.274-.428.274-.752h1.025zM694.443 369.5h-1.319v-8.873h-4.909v8.873h-1.312v-9.953h7.54v9.953zm4.614-1.853l1.723-5.543h1.353l-2.973 8.538c-.461 1.23-1.192 1.845-2.195 1.845l-.239-.02-.472-.089v-1.025l.342.027c.429 0 .761-.087.998-.26.242-.173.44-.49.595-.95l.28-.752-2.638-7.314h1.38l1.846 5.543zm7.082.957a1.82 1.82 0 0 0 1.183-.41 1.44 1.44 0 0 0 .56-1.025h1.197a2.295 2.295 0 0 1-.438 1.21 2.876 2.876 0 0 1-1.08.916 3.087 3.087 0 0 1-1.422.342c-1.007 0-1.809-.335-2.406-1.005-.593-.675-.889-1.595-.889-2.762v-.212c0-.72.132-1.36.397-1.921.264-.56.642-.995 1.134-1.305.497-.31 1.083-.465 1.757-.465.83 0 1.518.248 2.065.745.551.497.845 1.142.882 1.934h-1.197c-.036-.478-.218-.87-.547-1.175-.323-.31-.724-.465-1.203-.465-.642 0-1.141.232-1.497.697-.351.46-.526 1.128-.526 2.003v.239c0 .853.175 1.509.526 1.969.351.46.852.69 1.504.69zm9.858-5.475h-2.482v6.371h-1.265v-6.371h-2.433v-1.025h6.18v1.025zm2.611 1.524h1.921c.838.009 1.501.228 1.989.657.488.428.732 1.009.732 1.743 0 .738-.251 1.33-.752 1.777-.502.447-1.176.67-2.024.67h-3.131v-7.396h1.265v2.549zm7.28 4.847h-1.271v-7.396h1.271v7.396zm-7.28-3.814v2.782h1.88c.474 0 .841-.121 1.1-.363.26-.246.39-.581.39-1.004 0-.411-.128-.746-.383-1.005-.25-.265-.604-.401-1.059-.41h-1.928zm15.531 3.814h-1.264v-3.158h-3.398v3.158h-1.271v-7.396h1.271v3.206h3.398v-3.206h1.264v7.396zm8.08 0h-1.264v-3.158h-3.398v3.158h-1.271v-7.396h1.271v3.206h3.398v-3.206h1.264v7.396zm1.702-3.767c0-.724.142-1.376.424-1.955a3.226 3.226 0 0 1 1.19-1.34c.51-.314 1.091-.471 1.743-.471 1.007 0 1.82.348 2.44 1.046.625.697.937 1.624.937 2.782v.089c0 .72-.139 1.367-.417 1.941a3.117 3.117 0 0 1-1.183 1.333c-.51.319-1.098.479-1.763.479-1.003 0-1.817-.349-2.441-1.046-.62-.697-.93-1.62-.93-2.769v-.089zm1.272.151c0 .82.189 1.479.567 1.975.383.497.893.745 1.532.745.642 0 1.152-.25 1.531-.751.378-.506.567-1.213.567-2.12 0-.811-.194-1.467-.581-1.968-.383-.506-.893-.759-1.531-.759-.625 0-1.128.248-1.511.745s-.574 1.208-.574 2.133zm9.68-.096h-3.336v-1.032h3.336v1.032zm7.505-5.161h-4.798v2.98h2.474c1.039.014 1.85.281 2.434.8.583.52.875 1.226.875 2.119 0 .898-.294 1.614-.882 2.147-.588.533-1.39.809-2.406.827h-3.815v-9.953h6.118v1.08zm-4.798 4.061v3.739h2.399c.652 0 1.158-.173 1.518-.52.364-.346.546-.811.546-1.394 0-.561-.175-1.003-.526-1.326-.346-.324-.841-.49-1.483-.499h-2.454zm11.928 4.812c-.073-.146-.132-.406-.177-.779-.588.61-1.29.916-2.106.916-.729 0-1.328-.205-1.798-.616-.465-.414-.697-.938-.697-1.572 0-.77.292-1.367.875-1.791.588-.428 1.413-.642 2.475-.642h1.23v-.581c0-.442-.132-.793-.396-1.053-.265-.264-.654-.397-1.169-.397-.452 0-.83.114-1.135.342-.305.228-.458.504-.458.827h-1.272c0-.369.13-.724.39-1.066a2.7 2.7 0 0 1 1.066-.82 3.608 3.608 0 0 1 1.484-.301c.852 0 1.52.214 2.003.642.483.424.733 1.01.752 1.757v3.405c0 .679.086 1.219.259 1.62v.109h-1.326zm-2.098-.964c.396 0 .772-.102 1.128-.307.355-.206.613-.472.772-.8v-1.518h-.991c-1.55 0-2.324.454-2.324 1.36 0 .397.132.707.396.93.264.223.604.335 1.019.335zm7.451-2.187h-.923v3.151h-1.271v-7.396h1.271v3.13h.827l2.488-3.13h1.532l-2.926 3.554 3.172 3.842h-1.607l-2.563-3.151zm10.753-3.22h-2.482v6.371h-1.264v-6.371h-2.434v-1.025h6.18v1.025zm5.687 6.371c-.073-.146-.132-.406-.177-.779-.588.61-1.29.916-2.106.916-.729 0-1.328-.205-1.798-.616-.465-.414-.697-.938-.697-1.572 0-.77.292-1.367.875-1.791.588-.428 1.413-.642 2.475-.642h1.23v-.581c0-.442-.132-.793-.396-1.053-.265-.264-.654-.397-1.169-.397-.452 0-.83.114-1.135.342-.306.228-.458.504-.458.827h-1.272c0-.369.13-.724.39-1.066a2.7 2.7 0 0 1 1.066-.82 3.608 3.608 0 0 1 1.484-.301c.852 0 1.52.214 2.003.642.483.424.733 1.01.752 1.757v3.405c0 .679.086 1.219.259 1.62v.109h-1.326zm-2.098-.964c.396 0 .772-.102 1.128-.307.355-.206.613-.472.772-.8v-1.518h-.991c-1.55 0-2.324.454-2.324 1.36 0 .397.132.707.396.93.264.223.604.335 1.019.335zm9.932-6.432h1.265v7.396h-1.265v-5.394l-3.411 5.394h-1.265v-7.396h1.265v5.4l3.411-5.4zm.342-2.694c0 .552-.189.996-.567 1.333-.374.333-.866.499-1.477.499-.611 0-1.105-.168-1.483-.506-.379-.337-.568-.779-.568-1.326h1.033c0 .319.086.57.259.752.173.178.426.267.759.267.319 0 .567-.089.745-.267.183-.178.274-.428.274-.752h1.025z" fill="#002C4D"/><circle cx="721.686" cy="125.5" r="7" fill="#002C4D"/><circle cx="714.686" cy="160.5" r="7" fill="#002C4D"/><circle cx="881.686" cy="306.5" r="7" fill="#002C4D"/><circle cx="792.686" cy="321.5" r="7" fill="#002C4D"/><circle cx="820.686" cy="345.5" r="7" fill="#002C4D"/><circle cx="803.686" cy="347.5" r="7" fill="#002C4D"/><circle cx="840.686" cy="328.5" r="7" fill="#002C4D"/><circle cx="811.686" cy="328.5" r="7" fill="#002C4D"/><circle cx="849.686" cy="361.5" r="7" fill="#002C4D"/><circle cx="806.686" cy="380.5" r="7" fill="#002C4D"/><circle cx="715.686" cy="434.5" r="7" fill="#002C4D"/><circle cx="715.686" cy="460.5" r="7" fill="#002C4D"/><circle cx="738.686" cy="481.5" r="7" fill="#002C4D"/><circle cx="756" cy="465" r="7" fill="#002C4D"/><circle cx="748.686" cy="438.5" r="7" fill="#002C4D"/><circle cx="819.686" cy="363.5" r="7" fill="#002C4D"/><circle cx="685.686" cy="132.5" r="7" fill="#002C4D"/></svg>