<svg width="26" height="27" viewBox="0 0 26 27" fill="none" xmlns="http://www.w3.org/2000/svg"><path fill-rule="evenodd" clip-rule="evenodd" d="M16.67 18.636a9.318 9.318 0 1 1 6.59-2.726 9.274 9.274 0 0 1-6.59 2.726zm0-17.469a8.15 8.15 0 1 0 .02 16.3 8.15 8.15 0 0 0-.02-16.3zm0 13.803a.584.584 0 0 1 0-1.168 4.5 4.5 0 0 0 4.49-4.485.58.58 0 1 1 1.16 0 5.64 5.64 0 0 1-5.65 5.653zm-8.91 3.855a.608.608 0 0 1-.42-.171.6.6 0 0 1 0-.826l2.75-2.745a.582.582 0 1 1 .82.826l-2.74 2.744a.585.585 0 0 1-.41.172zm-4.5 7.177a1.634 1.634 0 0 1-1.16-.48L.48 23.904a1.642 1.642 0 0 1 0-2.321l4.56-4.565a1.642 1.642 0 0 1 2.32 0l1.62 1.618a1.642 1.642 0 0 1 0 2.321l-4.56 4.566a1.633 1.633 0 0 1-1.16.479zm2.94-8.3a.46.46 0 0 0-.33.138l-4.56 4.566a.482.482 0 0 0 0 .669l1.62 1.618a.462.462 0 0 0 .66 0l4.56-4.566a.464.464 0 0 0 0-.669l-1.62-1.617a.46.46 0 0 0-.33-.134v-.005z" fill="#000"/></svg>