<svg width="1115" height="683" viewBox="0 0 1115 683" fill="none" xmlns="http://www.w3.org/2000/svg">
<rect width="1115" height="683" fill="#E5E5E5"/>
<rect x="-197" y="-546" width="1920" height="1351" fill="white"/>
<path d="M681.686 52.5L690.686 64.5L725.686 63.5L754.186 52.5L778.186 64.5L801.186 52.5L826.686 68.5C831.186 70.8333 843.086 77.9 854.686 87.5C869.186 99.5 876.186 110.5 883.186 118.5C890.186 126.5 897.686 152 900.686 160C903.086 166.4 924.019 181.667 934.186 188.5L983.686 210L1017.69 188.5H1091.19L1114.19 210C1110.69 217.167 1102.29 232.8 1096.69 238C1091.09 243.2 1090.69 256.167 1091.19 262V300L1072.69 316H1032.19V336L1057.69 376.5L1072.69 390V406H1044.19C1030.99 406 1021.02 414 1017.69 418L990.686 435.5L1017.69 466.5L1032.19 521.5L1017.69 551V563C1010.02 563 993.886 560.9 990.686 552.5C986.686 542 967.686 551 954.186 551C943.386 551 927.353 552 920.686 552.5L864.186 551L854.686 563C850.686 567.5 838.386 573.8 821.186 563C803.986 552.2 800.686 558.5 801.186 563L778.186 598C773.686 598 762.586 595.1 754.186 583.5C745.786 571.9 727.353 578.667 719.186 583.5L701.686 610.5C695.019 613.5 679.786 620.3 672.186 623.5C664.586 626.7 654.686 641.833 650.686 649L627.686 683C624.519 679.333 614.986 670.1 602.186 662.5C589.386 654.9 596.853 650.333 602.186 649C592.353 648.667 571.086 646.4 564.686 640C558.365 633.679 561.928 618.06 564.586 610.77C563.389 613.74 558.441 617.486 547.186 610.5C532.686 601.5 544.186 591.5 547.186 583.5C549.586 577.1 548.186 576.167 547.186 576.5C542.186 572 530.886 560.9 525.686 552.5C520.486 544.1 517.186 534.667 516.186 531C508.186 535 489.686 540.6 479.686 531C469.686 521.4 453.186 527 446.186 531L424.686 521.5L383.186 488L318.686 425L238.186 435.5C231.853 489.667 217.586 600.5 211.186 610.5C204.786 620.5 198.519 606.333 196.186 598V576.5C188.686 568 171.786 551 164.186 551H142.686L122.686 563H107.686L101.186 551L122.686 531L107.686 509.5C104.519 505 96.5859 494.4 90.186 488C83.7862 481.6 79.5193 485.333 78.1858 488V457C78.1858 451.4 66.5192 440.333 60.6858 435.5V418H90.186V406L101.186 390C111.853 392.167 135.086 398.4 142.686 406C150.286 413.6 155.519 402.833 157.186 396.5V376.5C157.186 371.3 161.853 363.667 164.186 360.5L157.186 352L142.686 336C133.686 334.167 114.086 330.5 107.686 330.5C101.286 330.5 96.0192 334.167 94.186 336L90.186 352H51.1858L24.186 330.5L41.686 316V300C39.0193 294.167 29.3858 282.5 12.1858 282.5C-5.01416 282.5 -0.314162 275.167 4.18584 271.5L12.1858 262L4.18584 243.5V224.5L12.1858 200.5C15.3525 196.5 24.0858 188.5 33.6858 188.5C45.6858 188.5 32.1858 177.5 33.6858 160C34.8858 146 45.8525 154.167 51.1858 160L60.6858 188.5H78.1858V160C78.1858 146 91.5192 154.167 98.1858 160L107.686 144H122.686L142.686 118.5L157.186 134.5H185.686H196.186L219.186 160L238.186 188.5L255.686 210L279.686 200.5L295.686 188.5L309.186 200.5L332.186 188.5L350.686 210H383.186H414.186L424.686 188.5L398.186 177.5V160V152C403.519 149.333 414.186 142.1 414.186 134.5V118.5L424.686 110.5H446.186C445.352 106.833 439.886 97.1 424.686 87.5L434.186 64.5H467.686H492.186L532.186 52.5L572.686 35L602.186 19L618.186 0L635.686 8H660.186H681.686V19L690.686 35L681.686 52.5Z" fill="#D0B37B"/>
<path d="M844.186 528.5L857.186 557V562.5L854.686 573C848.519 572.167 834.286 569.9 826.686 567.5C819.086 565.1 809.519 563.167 805.686 562.5C803.019 565 797.686 571.2 797.686 576C797.686 580.8 787.686 591.333 782.686 596L760.186 588L748.686 576L722.686 584C718.019 591.833 708.186 607.5 706.186 607.5H691.186C687.353 598.333 678.286 579.2 672.686 576C665.686 572 658.186 553 655.186 547.5C652.186 542 663.686 523.5 663.686 514.5V482C663.686 476.4 654.686 461 650.186 454L641.686 431.5L650.186 420H679.686C695.353 417.5 729.586 411.6 741.186 408C752.786 404.4 773.686 406.5 782.686 408C784.519 412 788.586 421.2 790.186 426C792.186 432 796.186 447 797.686 454C799.186 461 806.686 463.5 813.686 474C819.286 482.4 819.353 487.5 818.686 489L836.186 503.5L844.186 528.5Z" fill="#F4D7AB"/>
<path d="M803.686 367C805.286 370.6 815.353 377.5 820.186 380.5H861.686V370.5L865.186 348C861.853 349.833 853.586 352.4 847.186 348C839.186 342.5 838.686 339 833.686 334.5C829.686 330.9 823.019 326 820.186 324H803.686V339C803.686 344.5 798.686 348.5 797.686 353.5C796.686 358.5 801.686 362.5 803.686 367Z" fill="#F4D7AB"/>
<path d="M726.186 108.5H752.686V139C752.686 151 759.686 151.5 759.686 157.5C759.686 162.3 755.019 174.167 752.686 179.5V195.5C750.186 199 744.586 207.7 742.186 214.5C739.186 223 730.686 221 726.186 226C722.586 230 707.686 220 700.686 214.5C697.686 217.167 690.886 224.1 687.686 230.5C684.486 236.9 673.686 242.833 668.686 245C659.353 240.167 639.886 230.5 636.686 230.5C633.486 230.5 628.353 219.833 626.186 214.5L592.186 230.5L569.686 214.5L538.686 195.5V179.5C539.686 172.167 541.986 156.3 543.186 151.5C544.386 146.7 549.019 141.167 551.186 139C557.353 135 570.686 127 574.686 127H596.686C601.186 127 616.686 119 616.686 117.5V93.5C616.686 87.1 623.019 79.5 626.186 76.5L654.186 81.5L680.686 88C686.853 90.6667 700.786 97.1 707.186 101.5C715.186 107 722.186 108.5 726.186 108.5Z" fill="#F4D7AB"/>
<path d="M738.912 317.627H734.113V320.607H736.587C737.626 320.621 738.438 320.888 739.021 321.407C739.604 321.927 739.896 322.633 739.896 323.526C739.896 324.424 739.602 325.14 739.014 325.673C738.426 326.206 737.624 326.482 736.608 326.5H732.793V316.547H738.912V317.627ZM734.113 321.688V325.427H736.512C737.164 325.427 737.67 325.254 738.03 324.907C738.394 324.561 738.577 324.096 738.577 323.513C738.577 322.952 738.401 322.51 738.05 322.187C737.704 321.863 737.209 321.697 736.567 321.688H734.113ZM746.042 326.5C745.969 326.354 745.909 326.094 745.864 325.721C745.276 326.331 744.574 326.637 743.758 326.637C743.029 326.637 742.43 326.432 741.96 326.021C741.496 325.607 741.263 325.083 741.263 324.449C741.263 323.679 741.555 323.082 742.138 322.658C742.726 322.23 743.551 322.016 744.613 322.016H745.843V321.435C745.843 320.993 745.711 320.642 745.447 320.382C745.182 320.118 744.793 319.985 744.278 319.985C743.827 319.985 743.448 320.099 743.143 320.327C742.838 320.555 742.685 320.831 742.685 321.154H741.414C741.414 320.785 741.543 320.43 741.803 320.088C742.068 319.742 742.423 319.468 742.87 319.268C743.321 319.067 743.815 318.967 744.353 318.967C745.205 318.967 745.873 319.181 746.356 319.609C746.839 320.033 747.09 320.619 747.108 321.366V324.771C747.108 325.45 747.194 325.99 747.368 326.391V326.5H746.042ZM743.943 325.536C744.339 325.536 744.715 325.434 745.071 325.229C745.426 325.023 745.684 324.757 745.843 324.429V322.911H744.852C743.303 322.911 742.528 323.365 742.528 324.271C742.528 324.668 742.66 324.978 742.924 325.201C743.189 325.424 743.528 325.536 743.943 325.536ZM751.394 323.349H750.471V326.5H749.2V319.104H750.471V322.234H751.298L753.787 319.104H755.318L752.392 322.658L755.564 326.5H753.958L751.394 323.349ZM762.147 320.129H759.666V326.5H758.401V320.129H755.967V319.104H762.147V320.129ZM767.834 326.5C767.762 326.354 767.702 326.094 767.657 325.721C767.069 326.331 766.367 326.637 765.551 326.637C764.822 326.637 764.223 326.432 763.753 326.021C763.289 325.607 763.056 325.083 763.056 324.449C763.056 323.679 763.348 323.082 763.931 322.658C764.519 322.23 765.344 322.016 766.406 322.016H767.636V321.435C767.636 320.993 767.504 320.642 767.24 320.382C766.975 320.118 766.586 319.985 766.071 319.985C765.62 319.985 765.241 320.099 764.936 320.327C764.631 320.555 764.478 320.831 764.478 321.154H763.207C763.207 320.785 763.336 320.43 763.596 320.088C763.861 319.742 764.216 319.468 764.663 319.268C765.114 319.067 765.608 318.967 766.146 318.967C766.998 318.967 767.666 319.181 768.149 319.609C768.632 320.033 768.883 320.619 768.901 321.366V324.771C768.901 325.45 768.987 325.99 769.161 326.391V326.5H767.834ZM765.736 325.536C766.132 325.536 766.508 325.434 766.864 325.229C767.219 325.023 767.477 324.757 767.636 324.429V322.911H766.645C765.096 322.911 764.321 323.365 764.321 324.271C764.321 324.668 764.453 324.978 764.717 325.201C764.982 325.424 765.321 325.536 765.736 325.536ZM775.668 319.104H776.933V326.5H775.668V321.106L772.257 326.5H770.993V319.104H772.257V324.504L775.668 319.104ZM776.01 316.41C776.01 316.962 775.821 317.406 775.443 317.743C775.069 318.076 774.577 318.242 773.966 318.242C773.356 318.242 772.861 318.074 772.483 317.736C772.105 317.399 771.916 316.957 771.916 316.41H772.948C772.948 316.729 773.034 316.98 773.208 317.162C773.381 317.34 773.634 317.429 773.966 317.429C774.285 317.429 774.534 317.34 774.711 317.162C774.894 316.984 774.985 316.734 774.985 316.41H776.01Z" fill="#002C4D"/>
<path d="M722.425 348.029H721.215V352.5H719.903V342.547H721.215V346.936H722.241L725.72 342.547H727.354L723.553 347.373L727.634 352.5H726.028L722.425 348.029ZM733.206 352.5C733.133 352.354 733.073 352.094 733.028 351.721C732.44 352.331 731.738 352.637 730.922 352.637C730.193 352.637 729.594 352.432 729.125 352.021C728.66 351.607 728.427 351.083 728.427 350.449C728.427 349.679 728.719 349.082 729.302 348.658C729.89 348.23 730.715 348.016 731.777 348.016H733.007V347.435C733.007 346.993 732.875 346.642 732.611 346.382C732.347 346.118 731.957 345.985 731.442 345.985C730.991 345.985 730.612 346.099 730.307 346.327C730.002 346.555 729.849 346.831 729.849 347.154H728.578C728.578 346.785 728.708 346.43 728.967 346.088C729.232 345.742 729.587 345.468 730.034 345.268C730.485 345.067 730.979 344.967 731.517 344.967C732.369 344.967 733.037 345.181 733.52 345.609C734.003 346.033 734.254 346.619 734.272 347.366V350.771C734.272 351.45 734.359 351.99 734.532 352.391V352.5H733.206ZM731.107 351.536C731.503 351.536 731.879 351.434 732.235 351.229C732.59 351.023 732.848 350.757 733.007 350.429V348.911H732.016C730.467 348.911 729.692 349.365 729.692 350.271C729.692 350.668 729.824 350.978 730.088 351.201C730.353 351.424 730.692 351.536 731.107 351.536ZM742.502 348.884C742.502 350.009 742.245 350.916 741.73 351.604C741.215 352.293 740.518 352.637 739.638 352.637C738.74 352.637 738.034 352.352 737.519 351.782V355.344H736.254V345.104H737.41L737.471 345.924C737.986 345.286 738.702 344.967 739.618 344.967C740.506 344.967 741.208 345.302 741.723 345.972C742.243 346.642 742.502 347.574 742.502 348.768V348.884ZM741.238 348.74C741.238 347.906 741.06 347.248 740.705 346.765C740.349 346.282 739.861 346.04 739.242 346.04C738.476 346.04 737.902 346.38 737.519 347.059V350.593C737.897 351.267 738.476 351.604 739.255 351.604C739.861 351.604 740.342 351.365 740.698 350.887C741.058 350.404 741.238 349.688 741.238 348.74ZM745.497 347.653H747.417C748.256 347.662 748.919 347.881 749.407 348.31C749.894 348.738 750.138 349.319 750.138 350.053C750.138 350.791 749.888 351.383 749.386 351.83C748.885 352.277 748.21 352.5 747.363 352.5H744.232V345.104H745.497V347.653ZM745.497 348.686V351.468H747.376C747.85 351.468 748.217 351.347 748.477 351.105C748.737 350.859 748.867 350.524 748.867 350.101C748.867 349.69 748.739 349.355 748.484 349.096C748.233 348.831 747.88 348.695 747.424 348.686H745.497ZM754.787 352.637C753.784 352.637 752.968 352.309 752.339 351.652C751.71 350.992 751.396 350.11 751.396 349.007V348.774C751.396 348.041 751.535 347.387 751.813 346.812C752.096 346.234 752.487 345.783 752.989 345.459C753.495 345.131 754.042 344.967 754.629 344.967C755.591 344.967 756.338 345.284 756.872 345.917C757.405 346.55 757.671 347.457 757.671 348.638V349.164H752.661C752.679 349.893 752.891 350.483 753.296 350.935C753.707 351.381 754.226 351.604 754.855 351.604C755.302 351.604 755.68 351.513 755.99 351.331C756.3 351.149 756.571 350.907 756.803 350.606L757.576 351.208C756.956 352.16 756.026 352.637 754.787 352.637ZM754.629 346.006C754.119 346.006 753.691 346.193 753.344 346.566C752.998 346.936 752.784 347.455 752.702 348.125H756.407V348.029C756.37 347.387 756.197 346.89 755.887 346.539C755.577 346.184 755.158 346.006 754.629 346.006ZM765.389 348.884C765.389 350.009 765.132 350.916 764.617 351.604C764.102 352.293 763.404 352.637 762.525 352.637C761.627 352.637 760.921 352.352 760.406 351.782V355.344H759.141V345.104H760.296L760.358 345.924C760.873 345.286 761.588 344.967 762.504 344.967C763.393 344.967 764.095 345.302 764.61 345.972C765.129 346.642 765.389 347.574 765.389 348.768V348.884ZM764.125 348.74C764.125 347.906 763.947 347.248 763.591 346.765C763.236 346.282 762.748 346.04 762.128 346.04C761.363 346.04 760.789 346.38 760.406 347.059V350.593C760.784 351.267 761.363 351.604 762.142 351.604C762.748 351.604 763.229 351.365 763.584 350.887C763.944 350.404 764.125 349.688 764.125 348.74ZM773.045 352.5H771.781V349.342H768.383V352.5H767.112V345.104H768.383V348.31H771.781V345.104H773.045V352.5ZM774.748 348.733C774.748 348.009 774.889 347.357 775.171 346.778C775.458 346.2 775.855 345.753 776.361 345.438C776.871 345.124 777.452 344.967 778.104 344.967C779.111 344.967 779.925 345.315 780.544 346.013C781.169 346.71 781.481 347.637 781.481 348.795V348.884C781.481 349.604 781.342 350.251 781.064 350.825C780.791 351.395 780.396 351.839 779.881 352.158C779.371 352.477 778.783 352.637 778.118 352.637C777.115 352.637 776.302 352.288 775.677 351.591C775.057 350.894 774.748 349.971 774.748 348.822V348.733ZM776.019 348.884C776.019 349.704 776.208 350.363 776.586 350.859C776.969 351.356 777.48 351.604 778.118 351.604C778.76 351.604 779.271 351.354 779.649 350.853C780.027 350.347 780.216 349.64 780.216 348.733C780.216 347.922 780.023 347.266 779.635 346.765C779.252 346.259 778.742 346.006 778.104 346.006C777.48 346.006 776.976 346.254 776.593 346.751C776.21 347.248 776.019 347.959 776.019 348.884ZM786.136 352.637C785.134 352.637 784.318 352.309 783.689 351.652C783.06 350.992 782.746 350.11 782.746 349.007V348.774C782.746 348.041 782.885 347.387 783.163 346.812C783.445 346.234 783.837 345.783 784.338 345.459C784.844 345.131 785.391 344.967 785.979 344.967C786.941 344.967 787.688 345.284 788.221 345.917C788.754 346.55 789.021 347.457 789.021 348.638V349.164H784.01C784.028 349.893 784.24 350.483 784.646 350.935C785.056 351.381 785.576 351.604 786.205 351.604C786.651 351.604 787.029 351.513 787.339 351.331C787.649 351.149 787.92 350.907 788.153 350.606L788.925 351.208C788.306 352.16 787.376 352.637 786.136 352.637ZM785.979 346.006C785.469 346.006 785.04 346.193 784.694 346.566C784.347 346.936 784.133 347.455 784.051 348.125H787.756V348.029C787.72 347.387 787.547 346.89 787.237 346.539C786.927 346.184 786.508 346.006 785.979 346.006Z" fill="#002C4D"/>
<path d="M828.443 388.5H827.124V379.627H822.215V388.5H820.903V378.547H828.443V388.5ZM833.057 386.647L834.78 381.104H836.133L833.16 389.642C832.699 390.872 831.968 391.487 830.965 391.487L830.726 391.467L830.254 391.378V390.353L830.596 390.38C831.025 390.38 831.357 390.293 831.594 390.12C831.836 389.947 832.034 389.63 832.189 389.17L832.469 388.418L829.831 381.104H831.211L833.057 386.647ZM840.139 387.604C840.59 387.604 840.985 387.468 841.322 387.194C841.659 386.921 841.846 386.579 841.882 386.169H843.079C843.056 386.593 842.91 386.996 842.641 387.379C842.372 387.762 842.012 388.067 841.561 388.295C841.114 388.523 840.64 388.637 840.139 388.637C839.132 388.637 838.33 388.302 837.733 387.632C837.14 386.957 836.844 386.037 836.844 384.87V384.658C836.844 383.938 836.976 383.298 837.241 382.737C837.505 382.177 837.883 381.742 838.375 381.432C838.872 381.122 839.458 380.967 840.132 380.967C840.962 380.967 841.65 381.215 842.197 381.712C842.748 382.209 843.042 382.854 843.079 383.646H841.882C841.846 383.168 841.664 382.776 841.335 382.471C841.012 382.161 840.611 382.006 840.132 382.006C839.49 382.006 838.991 382.238 838.635 382.703C838.284 383.163 838.109 383.831 838.109 384.706V384.945C838.109 385.798 838.284 386.454 838.635 386.914C838.986 387.374 839.487 387.604 840.139 387.604ZM849.997 382.129H847.515V388.5H846.25V382.129H843.817V381.104H849.997V382.129ZM852.608 383.653H854.529C855.367 383.662 856.03 383.881 856.518 384.31C857.006 384.738 857.25 385.319 857.25 386.053C857.25 386.791 856.999 387.383 856.498 387.83C855.996 388.277 855.322 388.5 854.474 388.5H851.343V381.104H852.608V383.653ZM859.888 388.5H858.617V381.104H859.888V388.5ZM852.608 384.686V387.468H854.488C854.962 387.468 855.329 387.347 855.588 387.105C855.848 386.859 855.978 386.524 855.978 386.101C855.978 385.69 855.85 385.355 855.595 385.096C855.345 384.831 854.991 384.695 854.536 384.686H852.608ZM868.139 388.5H866.875V385.342H863.477V388.5H862.206V381.104H863.477V384.31H866.875V381.104H868.139V388.5ZM876.219 388.5H874.955V385.342H871.557V388.5H870.286V381.104H871.557V384.31H874.955V381.104H876.219V388.5ZM877.921 384.733C877.921 384.009 878.063 383.357 878.345 382.778C878.632 382.2 879.029 381.753 879.535 381.438C880.045 381.124 880.626 380.967 881.278 380.967C882.285 380.967 883.098 381.315 883.718 382.013C884.343 382.71 884.655 383.637 884.655 384.795V384.884C884.655 385.604 884.516 386.251 884.238 386.825C883.964 387.395 883.57 387.839 883.055 388.158C882.545 388.477 881.957 388.637 881.292 388.637C880.289 388.637 879.475 388.288 878.851 387.591C878.231 386.894 877.921 385.971 877.921 384.822V384.733ZM879.193 384.884C879.193 385.704 879.382 386.363 879.76 386.859C880.143 387.356 880.653 387.604 881.292 387.604C881.934 387.604 882.444 387.354 882.823 386.853C883.201 386.347 883.39 385.64 883.39 384.733C883.39 383.922 883.196 383.266 882.809 382.765C882.426 382.259 881.916 382.006 881.278 382.006C880.653 382.006 880.15 382.254 879.767 382.751C879.384 383.248 879.193 383.959 879.193 384.884ZM889.31 388.637C888.307 388.637 887.492 388.309 886.863 387.652C886.234 386.992 885.919 386.11 885.919 385.007V384.774C885.919 384.041 886.058 383.387 886.336 382.812C886.619 382.234 887.011 381.783 887.512 381.459C888.018 381.131 888.565 380.967 889.153 380.967C890.114 380.967 890.862 381.284 891.395 381.917C891.928 382.55 892.195 383.457 892.195 384.638V385.164H887.184C887.202 385.893 887.414 386.483 887.82 386.935C888.23 387.381 888.75 387.604 889.378 387.604C889.825 387.604 890.203 387.513 890.513 387.331C890.823 387.149 891.094 386.907 891.327 386.606L892.099 387.208C891.479 388.16 890.55 388.637 889.31 388.637ZM889.153 382.006C888.642 382.006 888.214 382.193 887.868 382.566C887.521 382.936 887.307 383.455 887.225 384.125H890.93V384.029C890.894 383.387 890.721 382.89 890.411 382.539C890.101 382.184 889.681 382.006 889.153 382.006Z" fill="#002C4D"/>
<path d="M864.796 335.94H863.491V333.5H856.347V335.947H855.035L855.028 332.427H855.841C856.27 331.944 856.609 331.297 856.86 330.485C857.115 329.67 857.275 328.776 857.338 327.806L857.557 323.547H863.511V332.427H864.81L864.796 335.94ZM857.338 332.427H862.192V324.627H858.822L858.678 327.553C858.619 328.697 858.466 329.672 858.22 330.479C857.979 331.285 857.685 331.935 857.338 332.427ZM865.835 329.733C865.835 329.009 865.977 328.357 866.259 327.778C866.546 327.2 866.943 326.753 867.449 326.438C867.959 326.124 868.54 325.967 869.192 325.967C870.199 325.967 871.013 326.315 871.632 327.013C872.257 327.71 872.569 328.637 872.569 329.795V329.884C872.569 330.604 872.43 331.251 872.152 331.825C871.878 332.395 871.484 332.839 870.969 333.158C870.459 333.477 869.871 333.637 869.206 333.637C868.203 333.637 867.389 333.288 866.765 332.591C866.145 331.894 865.835 330.971 865.835 329.822V329.733ZM867.107 329.884C867.107 330.704 867.296 331.363 867.674 331.859C868.057 332.356 868.568 332.604 869.206 332.604C869.848 332.604 870.359 332.354 870.737 331.853C871.115 331.347 871.304 330.64 871.304 329.733C871.304 328.922 871.111 328.266 870.723 327.765C870.34 327.259 869.83 327.006 869.192 327.006C868.568 327.006 868.064 327.254 867.681 327.751C867.298 328.248 867.107 328.959 867.107 329.884ZM880.109 326.104V333.5H878.837V327.149H876.322L876.171 329.918C876.089 331.189 875.875 332.099 875.529 332.646C875.187 333.192 874.642 333.477 873.895 333.5H873.389V332.386L873.751 332.358C874.162 332.313 874.456 332.076 874.633 331.647C874.811 331.219 874.925 330.426 874.975 329.269L875.112 326.104H880.109ZM886.924 326.104H888.189V333.5H886.924V328.106L883.513 333.5H882.249V326.104H883.513V331.504L886.924 326.104ZM896.262 333.5H894.998V330.342H891.6V333.5H890.329V326.104H891.6V329.31H894.998V326.104H896.262V333.5ZM904.342 333.5H903.078V330.342H899.68V333.5H898.409V326.104H899.68V329.31H903.078V326.104H904.342V333.5ZM906.044 329.733C906.044 329.009 906.186 328.357 906.468 327.778C906.755 327.2 907.152 326.753 907.658 326.438C908.168 326.124 908.749 325.967 909.401 325.967C910.408 325.967 911.222 326.315 911.841 327.013C912.466 327.71 912.778 328.637 912.778 329.795V329.884C912.778 330.604 912.639 331.251 912.361 331.825C912.087 332.395 911.693 332.839 911.178 333.158C910.668 333.477 910.08 333.637 909.415 333.637C908.412 333.637 907.598 333.288 906.974 332.591C906.354 331.894 906.044 330.971 906.044 329.822V329.733ZM907.316 329.884C907.316 330.704 907.505 331.363 907.883 331.859C908.266 332.356 908.777 332.604 909.415 332.604C910.057 332.604 910.568 332.354 910.946 331.853C911.324 331.347 911.513 330.64 911.513 329.733C911.513 328.922 911.319 328.266 910.932 327.765C910.549 327.259 910.039 327.006 909.401 327.006C908.777 327.006 908.273 327.254 907.89 327.751C907.507 328.248 907.316 328.959 907.316 329.884ZM917.433 333.637C916.431 333.637 915.615 333.309 914.986 332.652C914.357 331.992 914.042 331.11 914.042 330.007V329.774C914.042 329.041 914.181 328.387 914.459 327.812C914.742 327.234 915.134 326.783 915.635 326.459C916.141 326.131 916.688 325.967 917.276 325.967C918.237 325.967 918.985 326.284 919.518 326.917C920.051 327.55 920.318 328.457 920.318 329.638V330.164H915.307C915.325 330.893 915.537 331.483 915.943 331.935C916.353 332.381 916.873 332.604 917.501 332.604C917.948 332.604 918.326 332.513 918.636 332.331C918.946 332.149 919.217 331.907 919.45 331.606L920.222 332.208C919.602 333.16 918.673 333.637 917.433 333.637ZM917.276 327.006C916.765 327.006 916.337 327.193 915.991 327.566C915.644 327.936 915.43 328.455 915.348 329.125H919.053V329.029C919.017 328.387 918.844 327.89 918.534 327.539C918.224 327.184 917.805 327.006 917.276 327.006Z" fill="#002C4D"/>
<path d="M630.477 432.842C630.354 433.895 629.964 434.708 629.308 435.282C628.656 435.852 627.788 436.137 626.703 436.137C625.527 436.137 624.584 435.715 623.873 434.872C623.167 434.029 622.813 432.901 622.813 431.488V430.531C622.813 429.606 622.978 428.793 623.306 428.091C623.638 427.389 624.108 426.851 624.714 426.478C625.32 426.099 626.022 425.91 626.819 425.91C627.877 425.91 628.724 426.206 629.362 426.799C630 427.387 630.372 428.202 630.477 429.246H629.157C629.043 428.453 628.795 427.879 628.412 427.523C628.034 427.168 627.503 426.99 626.819 426.99C625.981 426.99 625.322 427.3 624.844 427.92C624.37 428.54 624.133 429.422 624.133 430.565V431.529C624.133 432.609 624.358 433.468 624.81 434.106C625.261 434.744 625.892 435.063 626.703 435.063C627.432 435.063 627.991 434.899 628.378 434.571C628.77 434.239 629.03 433.662 629.157 432.842H630.477ZM632.192 436V428.604H635.077C636.062 428.604 636.816 428.777 637.34 429.123C637.868 429.465 638.133 429.968 638.133 430.634C638.133 430.976 638.03 431.285 637.825 431.563C637.62 431.837 637.317 432.047 636.916 432.192C637.363 432.297 637.72 432.502 637.989 432.808C638.263 433.113 638.399 433.478 638.399 433.901C638.399 434.58 638.149 435.1 637.647 435.46C637.151 435.82 636.447 436 635.535 436H632.192ZM633.457 432.753V434.981H635.549C636.077 434.981 636.472 434.883 636.731 434.688C636.996 434.492 637.128 434.216 637.128 433.86C637.128 433.122 636.586 432.753 635.501 432.753H633.457ZM633.457 431.741H635.091C636.276 431.741 636.868 431.395 636.868 430.702C636.868 430.009 636.308 429.652 635.187 429.629H633.457V431.741ZM643.144 436.137C642.141 436.137 641.325 435.809 640.696 435.152C640.067 434.492 639.753 433.61 639.753 432.507V432.274C639.753 431.541 639.892 430.887 640.17 430.312C640.452 429.734 640.844 429.283 641.346 428.959C641.852 428.631 642.398 428.467 642.986 428.467C643.948 428.467 644.695 428.784 645.229 429.417C645.762 430.05 646.028 430.957 646.028 432.138V432.664H641.018C641.036 433.393 641.248 433.983 641.653 434.435C642.063 434.881 642.583 435.104 643.212 435.104C643.659 435.104 644.037 435.013 644.347 434.831C644.657 434.649 644.928 434.407 645.16 434.106L645.933 434.708C645.313 435.66 644.383 436.137 643.144 436.137ZM642.986 429.506C642.476 429.506 642.048 429.693 641.701 430.066C641.355 430.436 641.141 430.955 641.059 431.625H644.764V431.529C644.727 430.887 644.554 430.39 644.244 430.039C643.934 429.684 643.515 429.506 642.986 429.506ZM652.912 429.629H650.431V436H649.166V429.629H646.732V428.604H652.912V429.629ZM658.928 428.604H660.192V436H658.928V430.606L655.517 436H654.252V428.604H655.517V434.004L658.928 428.604ZM668.266 436H667.001V432.842H663.604V436H662.332V428.604H663.604V431.81H667.001V428.604H668.266V436ZM673.27 435.104C673.721 435.104 674.115 434.968 674.452 434.694C674.789 434.421 674.976 434.079 675.013 433.669H676.209C676.186 434.093 676.04 434.496 675.771 434.879C675.503 435.262 675.143 435.567 674.691 435.795C674.245 436.023 673.771 436.137 673.27 436.137C672.262 436.137 671.46 435.802 670.863 435.132C670.271 434.457 669.975 433.537 669.975 432.37V432.158C669.975 431.438 670.107 430.798 670.371 430.237C670.635 429.677 671.014 429.242 671.506 428.932C672.003 428.622 672.588 428.467 673.263 428.467C674.092 428.467 674.78 428.715 675.327 429.212C675.879 429.709 676.173 430.354 676.209 431.146H675.013C674.976 430.668 674.794 430.276 674.466 429.971C674.142 429.661 673.741 429.506 673.263 429.506C672.62 429.506 672.121 429.738 671.766 430.203C671.415 430.663 671.239 431.331 671.239 432.206V432.445C671.239 433.298 671.415 433.954 671.766 434.414C672.117 434.874 672.618 435.104 673.27 435.104ZM679.935 432.849H679.012V436H677.74V428.604H679.012V431.734H679.839L682.327 428.604H683.858L680.933 432.158L684.104 436H682.498L679.935 432.849ZM684.706 432.233C684.706 431.509 684.847 430.857 685.13 430.278C685.417 429.7 685.813 429.253 686.319 428.938C686.83 428.624 687.411 428.467 688.062 428.467C689.07 428.467 689.883 428.815 690.503 429.513C691.127 430.21 691.439 431.137 691.439 432.295V432.384C691.439 433.104 691.3 433.751 691.022 434.325C690.749 434.895 690.355 435.339 689.84 435.658C689.329 435.977 688.742 436.137 688.076 436.137C687.074 436.137 686.26 435.788 685.636 435.091C685.016 434.394 684.706 433.471 684.706 432.322V432.233ZM685.978 432.384C685.978 433.204 686.167 433.863 686.545 434.359C686.928 434.856 687.438 435.104 688.076 435.104C688.719 435.104 689.229 434.854 689.607 434.353C689.986 433.847 690.175 433.14 690.175 432.233C690.175 431.422 689.981 430.766 689.594 430.265C689.211 429.759 688.701 429.506 688.062 429.506C687.438 429.506 686.935 429.754 686.552 430.251C686.169 430.748 685.978 431.459 685.978 432.384ZM696.095 436.137C695.092 436.137 694.276 435.809 693.647 435.152C693.019 434.492 692.704 433.61 692.704 432.507V432.274C692.704 431.541 692.843 430.887 693.121 430.312C693.404 429.734 693.796 429.283 694.297 428.959C694.803 428.631 695.35 428.467 695.938 428.467C696.899 428.467 697.646 428.784 698.18 429.417C698.713 430.05 698.979 430.957 698.979 432.138V432.664H693.969C693.987 433.393 694.199 433.983 694.604 434.435C695.015 434.881 695.534 435.104 696.163 435.104C696.61 435.104 696.988 435.013 697.298 434.831C697.608 434.649 697.879 434.407 698.111 434.106L698.884 434.708C698.264 435.66 697.334 436.137 696.095 436.137ZM695.938 429.506C695.427 429.506 694.999 429.693 694.652 430.066C694.306 430.436 694.092 430.955 694.01 431.625H697.715V431.529C697.678 430.887 697.505 430.39 697.195 430.039C696.885 429.684 696.466 429.506 695.938 429.506Z" fill="#002C4D"/>
<path d="M655.651 461.402H651.481L650.545 464H649.191L652.992 454.047H654.141L657.948 464H656.602L655.651 461.402ZM651.878 460.322H655.262L653.566 455.667L651.878 460.322ZM661.394 460.849H660.471V464H659.199V456.604H660.471V459.734H661.298L663.786 456.604H665.317L662.392 460.158L665.563 464H663.957L661.394 460.849ZM669.897 457.027C670.827 457.027 671.57 457.34 672.126 457.964C672.687 458.584 672.967 459.402 672.967 460.418V460.534C672.967 461.231 672.832 461.856 672.563 462.407C672.295 462.954 671.907 463.38 671.401 463.686C670.9 463.986 670.321 464.137 669.665 464.137C668.672 464.137 667.872 463.806 667.266 463.146C666.66 462.48 666.356 461.589 666.356 460.473V459.857C666.356 458.303 666.644 457.068 667.218 456.152C667.797 455.236 668.649 454.678 669.774 454.478C670.412 454.364 670.843 454.225 671.066 454.061C671.29 453.896 671.401 453.671 671.401 453.384H672.44C672.44 453.953 672.311 454.398 672.051 454.717C671.796 455.036 671.385 455.261 670.82 455.394L669.877 455.605C669.125 455.783 668.56 456.084 668.182 456.508C667.808 456.927 667.564 457.488 667.45 458.189C668.12 457.415 668.936 457.027 669.897 457.027ZM669.651 458.066C669.032 458.066 668.539 458.276 668.175 458.695C667.81 459.11 667.628 459.687 667.628 460.425V460.534C667.628 461.327 667.81 461.956 668.175 462.421C668.544 462.881 669.041 463.111 669.665 463.111C670.294 463.111 670.791 462.879 671.155 462.414C671.52 461.949 671.702 461.27 671.702 460.377C671.702 459.68 671.518 459.121 671.148 458.702C670.784 458.278 670.285 458.066 669.651 458.066ZM678.955 464C678.882 463.854 678.823 463.594 678.777 463.221C678.189 463.831 677.488 464.137 676.672 464.137C675.943 464.137 675.343 463.932 674.874 463.521C674.409 463.107 674.177 462.583 674.177 461.949C674.177 461.179 674.468 460.582 675.052 460.158C675.64 459.73 676.465 459.516 677.526 459.516H678.757V458.935C678.757 458.493 678.625 458.142 678.36 457.882C678.096 457.618 677.706 457.485 677.191 457.485C676.74 457.485 676.362 457.599 676.057 457.827C675.751 458.055 675.599 458.331 675.599 458.654H674.327C674.327 458.285 674.457 457.93 674.717 457.588C674.981 457.242 675.337 456.968 675.783 456.768C676.234 456.567 676.729 456.467 677.267 456.467C678.119 456.467 678.786 456.681 679.27 457.109C679.753 457.533 680.003 458.119 680.021 458.866V462.271C680.021 462.95 680.108 463.49 680.281 463.891V464H678.955ZM676.856 463.036C677.253 463.036 677.629 462.934 677.984 462.729C678.34 462.523 678.597 462.257 678.757 461.929V460.411H677.766C676.216 460.411 675.441 460.865 675.441 461.771C675.441 462.168 675.574 462.478 675.838 462.701C676.102 462.924 676.442 463.036 676.856 463.036ZM684.308 460.849H683.385V464H682.113V456.604H683.385V459.734H684.212L686.7 456.604H688.231L685.306 460.158L688.478 464H686.871L684.308 460.849ZM694.131 464C694.058 463.854 693.999 463.594 693.953 463.221C693.365 463.831 692.663 464.137 691.848 464.137C691.118 464.137 690.519 463.932 690.05 463.521C689.585 463.107 689.353 462.583 689.353 461.949C689.353 461.179 689.644 460.582 690.228 460.158C690.815 459.73 691.64 459.516 692.702 459.516H693.933V458.935C693.933 458.493 693.8 458.142 693.536 457.882C693.272 457.618 692.882 457.485 692.367 457.485C691.916 457.485 691.538 457.599 691.232 457.827C690.927 458.055 690.774 458.331 690.774 458.654H689.503C689.503 458.285 689.633 457.93 689.893 457.588C690.157 457.242 690.512 456.968 690.959 456.768C691.41 456.567 691.905 456.467 692.442 456.467C693.295 456.467 693.962 456.681 694.445 457.109C694.928 457.533 695.179 458.119 695.197 458.866V462.271C695.197 462.95 695.284 463.49 695.457 463.891V464H694.131ZM692.032 463.036C692.429 463.036 692.805 462.934 693.16 462.729C693.516 462.523 693.773 462.257 693.933 461.929V460.411H692.941C691.392 460.411 690.617 460.865 690.617 461.771C690.617 462.168 690.749 462.478 691.014 462.701C691.278 462.924 691.618 463.036 692.032 463.036ZM701.965 456.604H703.229V464H701.965V458.606L698.554 464H697.289V456.604H698.554V462.004L701.965 456.604ZM702.307 453.91C702.307 454.462 702.118 454.906 701.739 455.243C701.366 455.576 700.873 455.742 700.263 455.742C699.652 455.742 699.158 455.574 698.779 455.236C698.401 454.899 698.212 454.457 698.212 453.91H699.244C699.244 454.229 699.331 454.48 699.504 454.662C699.677 454.84 699.93 454.929 700.263 454.929C700.582 454.929 700.83 454.84 701.008 454.662C701.19 454.484 701.281 454.234 701.281 453.91H702.307Z" fill="#002C4D"/>
<path d="M672.739 484.529H671.529V489H670.217V479.047H671.529V483.436H672.555L676.034 479.047H677.668L673.867 483.873L677.948 489H676.342L672.739 484.529ZM681.845 489.137C680.842 489.137 680.026 488.809 679.397 488.152C678.769 487.492 678.454 486.61 678.454 485.507V485.274C678.454 484.541 678.593 483.887 678.871 483.312C679.154 482.734 679.546 482.283 680.047 481.959C680.553 481.631 681.1 481.467 681.688 481.467C682.649 481.467 683.396 481.784 683.93 482.417C684.463 483.05 684.729 483.957 684.729 485.138V485.664H679.719C679.737 486.393 679.949 486.983 680.354 487.435C680.765 487.881 681.284 488.104 681.913 488.104C682.36 488.104 682.738 488.013 683.048 487.831C683.358 487.649 683.629 487.407 683.861 487.106L684.634 487.708C684.014 488.66 683.084 489.137 681.845 489.137ZM681.688 482.506C681.177 482.506 680.749 482.693 680.402 483.066C680.056 483.436 679.842 483.955 679.76 484.625H683.465V484.529C683.428 483.887 683.255 483.39 682.945 483.039C682.635 482.684 682.216 482.506 681.688 482.506ZM692.242 489H690.978V485.842H687.58V489H686.309V481.604H687.58V484.81H690.978V481.604H692.242V489ZM700.179 485.787H699.29V489H698.025V485.787H697.137L695.065 489H693.466L696.111 485.172L693.719 481.604H695.25L697.157 484.666H698.025V481.604H699.29V484.666H700.151L702.072 481.604H703.604L701.204 485.179L703.85 489H702.25L700.179 485.787ZM707.931 489.137C706.928 489.137 706.112 488.809 705.483 488.152C704.854 487.492 704.54 486.61 704.54 485.507V485.274C704.54 484.541 704.679 483.887 704.957 483.312C705.24 482.734 705.632 482.283 706.133 481.959C706.639 481.631 707.186 481.467 707.773 481.467C708.735 481.467 709.482 481.784 710.016 482.417C710.549 483.05 710.815 483.957 710.815 485.138V485.664H705.805C705.823 486.393 706.035 486.983 706.44 487.435C706.851 487.881 707.37 488.104 707.999 488.104C708.446 488.104 708.824 488.013 709.134 487.831C709.444 487.649 709.715 487.407 709.947 487.106L710.72 487.708C710.1 488.66 709.17 489.137 707.931 489.137ZM707.773 482.506C707.263 482.506 706.835 482.693 706.488 483.066C706.142 483.436 705.928 483.955 705.846 484.625H709.551V484.529C709.514 483.887 709.341 483.39 709.031 483.039C708.721 482.684 708.302 482.506 707.773 482.506ZM716.544 487.325L719.06 481.604H720.639V489H719.374V483.62L716.981 489H716.106L713.666 483.504V489H712.401V481.604H714.042L716.544 487.325Z" fill="#002C4D"/>
<path d="M765.739 440.529H764.529V445H763.217V435.047H764.529V439.436H765.555L769.034 435.047H770.668L766.867 439.873L770.948 445H769.342L765.739 440.529ZM776.52 445C776.447 444.854 776.387 444.594 776.342 444.221C775.754 444.831 775.052 445.137 774.236 445.137C773.507 445.137 772.908 444.932 772.438 444.521C771.974 444.107 771.741 443.583 771.741 442.949C771.741 442.179 772.033 441.582 772.616 441.158C773.204 440.73 774.029 440.516 775.091 440.516H776.321V439.935C776.321 439.493 776.189 439.142 775.925 438.882C775.66 438.618 775.271 438.485 774.756 438.485C774.305 438.485 773.926 438.599 773.621 438.827C773.316 439.055 773.163 439.331 773.163 439.654H771.892C771.892 439.285 772.021 438.93 772.281 438.588C772.546 438.242 772.901 437.968 773.348 437.768C773.799 437.567 774.293 437.467 774.831 437.467C775.683 437.467 776.351 437.681 776.834 438.109C777.317 438.533 777.568 439.119 777.586 439.866V443.271C777.586 443.95 777.673 444.49 777.846 444.891V445H776.52ZM774.421 444.036C774.817 444.036 775.193 443.934 775.549 443.729C775.904 443.523 776.162 443.257 776.321 442.929V441.411H775.33C773.781 441.411 773.006 441.865 773.006 442.771C773.006 443.168 773.138 443.478 773.402 443.701C773.667 443.924 774.006 444.036 774.421 444.036ZM785.816 441.384C785.816 442.509 785.559 443.416 785.044 444.104C784.529 444.793 783.832 445.137 782.952 445.137C782.054 445.137 781.348 444.852 780.833 444.282V447.844H779.568V437.604H780.724L780.785 438.424C781.3 437.786 782.016 437.467 782.932 437.467C783.82 437.467 784.522 437.802 785.037 438.472C785.557 439.142 785.816 440.074 785.816 441.268V441.384ZM784.552 441.24C784.552 440.406 784.374 439.748 784.019 439.265C783.663 438.782 783.175 438.54 782.556 438.54C781.79 438.54 781.216 438.88 780.833 439.559V443.093C781.211 443.767 781.79 444.104 782.569 444.104C783.175 444.104 783.656 443.865 784.012 443.387C784.372 442.904 784.552 442.188 784.552 441.24ZM788.811 440.153H790.731C791.57 440.162 792.233 440.381 792.721 440.81C793.208 441.238 793.452 441.819 793.452 442.553C793.452 443.291 793.201 443.883 792.7 444.33C792.199 444.777 791.524 445 790.677 445H787.546V437.604H788.811V440.153ZM788.811 441.186V443.968H790.69C791.164 443.968 791.531 443.847 791.791 443.605C792.051 443.359 792.181 443.024 792.181 442.601C792.181 442.19 792.053 441.855 791.798 441.596C791.547 441.331 791.194 441.195 790.738 441.186H788.811ZM798.101 445.137C797.098 445.137 796.282 444.809 795.653 444.152C795.024 443.492 794.71 442.61 794.71 441.507V441.274C794.71 440.541 794.849 439.887 795.127 439.312C795.41 438.734 795.801 438.283 796.303 437.959C796.809 437.631 797.355 437.467 797.943 437.467C798.905 437.467 799.652 437.784 800.186 438.417C800.719 439.05 800.985 439.957 800.985 441.138V441.664H795.975C795.993 442.393 796.205 442.983 796.61 443.435C797.021 443.881 797.54 444.104 798.169 444.104C798.616 444.104 798.994 444.013 799.304 443.831C799.614 443.649 799.885 443.407 800.117 443.106L800.89 443.708C800.27 444.66 799.34 445.137 798.101 445.137ZM797.943 438.506C797.433 438.506 797.005 438.693 796.658 439.066C796.312 439.436 796.098 439.955 796.016 440.625H799.721V440.529C799.684 439.887 799.511 439.39 799.201 439.039C798.891 438.684 798.472 438.506 797.943 438.506ZM808.703 441.384C808.703 442.509 808.446 443.416 807.931 444.104C807.416 444.793 806.718 445.137 805.839 445.137C804.941 445.137 804.235 444.852 803.72 444.282V447.844H802.455V437.604H803.61L803.672 438.424C804.187 437.786 804.902 437.467 805.818 437.467C806.707 437.467 807.409 437.802 807.924 438.472C808.443 439.142 808.703 440.074 808.703 441.268V441.384ZM807.438 441.24C807.438 440.406 807.261 439.748 806.905 439.265C806.55 438.782 806.062 438.54 805.442 438.54C804.677 438.54 804.103 438.88 803.72 439.559V443.093C804.098 443.767 804.677 444.104 805.456 444.104C806.062 444.104 806.543 443.865 806.898 443.387C807.258 442.904 807.438 442.188 807.438 441.24ZM816.359 445H815.095V441.842H811.697V445H810.426V437.604H811.697V440.81H815.095V437.604H816.359V445ZM818.062 441.233C818.062 440.509 818.203 439.857 818.485 439.278C818.772 438.7 819.169 438.253 819.675 437.938C820.185 437.624 820.766 437.467 821.418 437.467C822.425 437.467 823.239 437.815 823.858 438.513C824.483 439.21 824.795 440.137 824.795 441.295V441.384C824.795 442.104 824.656 442.751 824.378 443.325C824.104 443.895 823.71 444.339 823.195 444.658C822.685 444.977 822.097 445.137 821.432 445.137C820.429 445.137 819.616 444.788 818.991 444.091C818.371 443.394 818.062 442.471 818.062 441.322V441.233ZM819.333 441.384C819.333 442.204 819.522 442.863 819.9 443.359C820.283 443.856 820.794 444.104 821.432 444.104C822.074 444.104 822.585 443.854 822.963 443.353C823.341 442.847 823.53 442.14 823.53 441.233C823.53 440.422 823.337 439.766 822.949 439.265C822.566 438.759 822.056 438.506 821.418 438.506C820.794 438.506 820.29 438.754 819.907 439.251C819.524 439.748 819.333 440.459 819.333 441.384ZM829.45 445.137C828.448 445.137 827.632 444.809 827.003 444.152C826.374 443.492 826.06 442.61 826.06 441.507V441.274C826.06 440.541 826.199 439.887 826.477 439.312C826.759 438.734 827.151 438.283 827.652 437.959C828.158 437.631 828.705 437.467 829.293 437.467C830.255 437.467 831.002 437.784 831.535 438.417C832.068 439.05 832.335 439.957 832.335 441.138V441.664H827.324C827.342 442.393 827.554 442.983 827.96 443.435C828.37 443.881 828.89 444.104 829.519 444.104C829.965 444.104 830.343 444.013 830.653 443.831C830.963 443.649 831.234 443.407 831.467 443.106L832.239 443.708C831.619 444.66 830.69 445.137 829.45 445.137ZM829.293 438.506C828.783 438.506 828.354 438.693 828.008 439.066C827.661 439.436 827.447 439.955 827.365 440.625H831.07V440.529C831.034 439.887 830.861 439.39 830.551 439.039C830.241 438.684 829.822 438.506 829.293 438.506Z" fill="#002C4D"/>
<path d="M838.226 463.127H833.427V466.107H835.901C836.94 466.121 837.752 466.388 838.335 466.907C838.918 467.427 839.21 468.133 839.21 469.026C839.21 469.924 838.916 470.64 838.328 471.173C837.74 471.706 836.938 471.982 835.922 472H832.107V462.047H838.226V463.127ZM833.427 467.188V470.927H835.826C836.478 470.927 836.984 470.754 837.344 470.407C837.708 470.061 837.891 469.596 837.891 469.013C837.891 468.452 837.715 468.01 837.364 467.687C837.018 467.363 836.523 467.197 835.881 467.188H833.427ZM843.858 472.137C842.856 472.137 842.04 471.809 841.411 471.152C840.782 470.492 840.468 469.61 840.468 468.507V468.274C840.468 467.541 840.607 466.887 840.885 466.312C841.167 465.734 841.559 465.283 842.061 464.959C842.566 464.631 843.113 464.467 843.701 464.467C844.663 464.467 845.41 464.784 845.943 465.417C846.477 466.05 846.743 466.957 846.743 468.138V468.664H841.732C841.751 469.393 841.963 469.983 842.368 470.435C842.778 470.881 843.298 471.104 843.927 471.104C844.373 471.104 844.752 471.013 845.062 470.831C845.371 470.649 845.643 470.407 845.875 470.106L846.647 470.708C846.028 471.66 845.098 472.137 843.858 472.137ZM843.701 465.506C843.191 465.506 842.762 465.693 842.416 466.066C842.07 466.436 841.855 466.955 841.773 467.625H845.479V467.529C845.442 466.887 845.269 466.39 844.959 466.039C844.649 465.684 844.23 465.506 843.701 465.506ZM851.18 471.104C851.631 471.104 852.025 470.968 852.362 470.694C852.7 470.421 852.886 470.079 852.923 469.669H854.119C854.096 470.093 853.951 470.496 853.682 470.879C853.413 471.262 853.053 471.567 852.602 471.795C852.155 472.023 851.681 472.137 851.18 472.137C850.173 472.137 849.37 471.802 848.773 471.132C848.181 470.457 847.885 469.537 847.885 468.37V468.158C847.885 467.438 848.017 466.798 848.281 466.237C848.546 465.677 848.924 465.242 849.416 464.932C849.913 464.622 850.498 464.467 851.173 464.467C852.002 464.467 852.69 464.715 853.237 465.212C853.789 465.709 854.083 466.354 854.119 467.146H852.923C852.886 466.668 852.704 466.276 852.376 465.971C852.052 465.661 851.651 465.506 851.173 465.506C850.53 465.506 850.031 465.738 849.676 466.203C849.325 466.663 849.149 467.331 849.149 468.206V468.445C849.149 469.298 849.325 469.954 849.676 470.414C850.027 470.874 850.528 471.104 851.18 471.104ZM857.845 468.849H856.922V472H855.65V464.604H856.922V467.734H857.749L860.237 464.604H861.769L858.843 468.158L862.015 472H860.408L857.845 468.849ZM866.062 472.137C865.059 472.137 864.243 471.809 863.614 471.152C862.985 470.492 862.671 469.61 862.671 468.507V468.274C862.671 467.541 862.81 466.887 863.088 466.312C863.37 465.734 863.762 465.283 864.264 464.959C864.77 464.631 865.316 464.467 865.904 464.467C866.866 464.467 867.613 464.784 868.146 465.417C868.68 466.05 868.946 466.957 868.946 468.138V468.664H863.936C863.954 469.393 864.166 469.983 864.571 470.435C864.981 470.881 865.501 471.104 866.13 471.104C866.576 471.104 866.955 471.013 867.265 470.831C867.575 470.649 867.846 470.407 868.078 470.106L868.851 470.708C868.231 471.66 867.301 472.137 866.062 472.137ZM865.904 465.506C865.394 465.506 864.965 465.693 864.619 466.066C864.273 466.436 864.059 466.955 863.977 467.625H867.682V467.529C867.645 466.887 867.472 466.39 867.162 466.039C866.852 465.684 866.433 465.506 865.904 465.506ZM874.675 470.325L877.19 464.604H878.77V472H877.505V466.62L875.112 472H874.237L871.797 466.504V472H870.532V464.604H872.173L874.675 470.325ZM886.856 472H885.592V465.649H882.188V472H880.916V464.604H886.856V472ZM893.672 464.604H894.937V472H893.672V466.606L890.261 472H888.996V464.604H890.261V470.004L893.672 464.604ZM903.215 468.384C903.215 469.509 902.957 470.416 902.442 471.104C901.927 471.793 901.23 472.137 900.351 472.137C899.453 472.137 898.746 471.852 898.231 471.282V474.844H896.967V464.604H898.122L898.184 465.424C898.699 464.786 899.414 464.467 900.33 464.467C901.219 464.467 901.921 464.802 902.436 465.472C902.955 466.142 903.215 467.074 903.215 468.268V468.384ZM901.95 468.24C901.95 467.406 901.772 466.748 901.417 466.265C901.062 465.782 900.574 465.54 899.954 465.54C899.188 465.54 898.614 465.88 898.231 466.559V470.093C898.61 470.767 899.188 471.104 899.968 471.104C900.574 471.104 901.055 470.865 901.41 470.387C901.77 469.904 901.95 469.188 901.95 468.24Z" fill="#002C4D"/>
<path d="M777.651 469.402H773.481L772.545 472H771.191L774.992 462.047H776.141L779.948 472H778.602L777.651 469.402ZM773.878 468.322H777.262L775.566 463.667L773.878 468.322ZM783.394 468.849H782.471V472H781.199V464.604H782.471V467.734H783.298L785.786 464.604H787.317L784.392 468.158L787.563 472H785.957L783.394 468.849ZM791.508 471.104C791.959 471.104 792.353 470.968 792.69 470.694C793.028 470.421 793.215 470.079 793.251 469.669H794.447C794.424 470.093 794.279 470.496 794.01 470.879C793.741 471.262 793.381 471.567 792.93 471.795C792.483 472.023 792.009 472.137 791.508 472.137C790.501 472.137 789.699 471.802 789.102 471.132C788.509 470.457 788.213 469.537 788.213 468.37V468.158C788.213 467.438 788.345 466.798 788.609 466.237C788.874 465.677 789.252 465.242 789.744 464.932C790.241 464.622 790.826 464.467 791.501 464.467C792.33 464.467 793.019 464.715 793.565 465.212C794.117 465.709 794.411 466.354 794.447 467.146H793.251C793.215 466.668 793.032 466.276 792.704 465.971C792.381 465.661 791.979 465.506 791.501 465.506C790.858 465.506 790.359 465.738 790.004 466.203C789.653 466.663 789.478 467.331 789.478 468.206V468.445C789.478 469.298 789.653 469.954 790.004 470.414C790.355 470.874 790.856 471.104 791.508 471.104ZM800.436 472C800.363 471.854 800.303 471.594 800.258 471.221C799.67 471.831 798.968 472.137 798.152 472.137C797.423 472.137 796.824 471.932 796.354 471.521C795.89 471.107 795.657 470.583 795.657 469.949C795.657 469.179 795.949 468.582 796.532 468.158C797.12 467.73 797.945 467.516 799.007 467.516H800.237V466.935C800.237 466.493 800.105 466.142 799.841 465.882C799.576 465.618 799.187 465.485 798.672 465.485C798.221 465.485 797.842 465.599 797.537 465.827C797.232 466.055 797.079 466.331 797.079 466.654H795.808C795.808 466.285 795.938 465.93 796.197 465.588C796.462 465.242 796.817 464.968 797.264 464.768C797.715 464.567 798.209 464.467 798.747 464.467C799.599 464.467 800.267 464.681 800.75 465.109C801.233 465.533 801.484 466.119 801.502 466.866V470.271C801.502 470.95 801.589 471.49 801.762 471.891V472H800.436ZM798.337 471.036C798.733 471.036 799.109 470.934 799.465 470.729C799.82 470.523 800.078 470.257 800.237 469.929V468.411H799.246C797.697 468.411 796.922 468.865 796.922 469.771C796.922 470.168 797.054 470.478 797.318 470.701C797.583 470.924 797.922 471.036 798.337 471.036ZM805.788 468.849H804.865V472H803.594V464.604H804.865V467.734H805.692L808.181 464.604H809.712L806.786 468.158L809.958 472H808.352L805.788 468.849ZM815.611 472C815.538 471.854 815.479 471.594 815.434 471.221C814.846 471.831 814.144 472.137 813.328 472.137C812.599 472.137 812 471.932 811.53 471.521C811.065 471.107 810.833 470.583 810.833 469.949C810.833 469.179 811.125 468.582 811.708 468.158C812.296 467.73 813.121 467.516 814.183 467.516H815.413V466.935C815.413 466.493 815.281 466.142 815.017 465.882C814.752 465.618 814.363 465.485 813.848 465.485C813.396 465.485 813.018 465.599 812.713 465.827C812.408 466.055 812.255 466.331 812.255 466.654H810.983C810.983 466.285 811.113 465.93 811.373 465.588C811.637 465.242 811.993 464.968 812.439 464.768C812.891 464.567 813.385 464.467 813.923 464.467C814.775 464.467 815.443 464.681 815.926 465.109C816.409 465.533 816.66 466.119 816.678 466.866V470.271C816.678 470.95 816.764 471.49 816.938 471.891V472H815.611ZM813.513 471.036C813.909 471.036 814.285 470.934 814.641 470.729C814.996 470.523 815.254 470.257 815.413 469.929V468.411H814.422C812.872 468.411 812.098 468.865 812.098 469.771C812.098 470.168 812.23 470.478 812.494 470.701C812.758 470.924 813.098 471.036 813.513 471.036ZM824.724 464.604V472H823.452V465.649H820.937L820.786 468.418C820.704 469.689 820.49 470.599 820.144 471.146C819.802 471.692 819.257 471.977 818.51 472H818.004V470.886L818.366 470.858C818.776 470.813 819.07 470.576 819.248 470.147C819.426 469.719 819.54 468.926 819.59 467.769L819.727 464.604H824.724Z" fill="#002C4D"/>
<path d="M891.537 303.547L894.791 311.668L898.044 303.547H899.747V313.5H898.434V309.624L898.557 305.44L895.29 313.5H894.285L891.024 305.461L891.154 309.624V313.5H889.841V303.547H891.537ZM906.651 306.104H907.916V313.5H906.651V308.106L903.24 313.5H901.975V306.104H903.24V311.504L906.651 306.104ZM914.013 308.127C914.013 307.781 913.881 307.507 913.617 307.307C913.352 307.102 912.99 306.999 912.53 306.999C912.083 306.999 911.709 307.115 911.409 307.348C911.112 307.58 910.964 307.854 910.964 308.168H909.707C909.707 307.525 909.975 306.999 910.513 306.589C911.051 306.179 911.723 305.974 912.53 305.974C913.396 305.974 914.07 306.16 914.553 306.534C915.036 306.903 915.278 307.432 915.278 308.12C915.278 308.453 915.178 308.758 914.977 309.036C914.777 309.314 914.492 309.535 914.123 309.699C914.984 309.991 915.415 310.565 915.415 311.422C915.415 312.101 915.153 312.639 914.628 313.035C914.104 313.432 913.405 313.63 912.53 313.63C911.678 313.63 910.973 313.423 910.417 313.008C909.866 312.589 909.59 312.023 909.59 311.312H910.848C910.848 311.673 911.008 311.982 911.327 312.242C911.65 312.497 912.051 312.625 912.53 312.625C913.013 312.625 913.403 312.513 913.699 312.29C913.995 312.067 914.143 311.777 914.143 311.422C914.143 311.007 914.018 310.711 913.767 310.533C913.521 310.351 913.136 310.26 912.612 310.26H911.347V309.193H912.721C913.583 309.171 914.013 308.815 914.013 308.127ZM920.125 313.637C919.122 313.637 918.306 313.309 917.677 312.652C917.048 311.992 916.734 311.11 916.734 310.007V309.774C916.734 309.041 916.873 308.387 917.151 307.812C917.433 307.234 917.825 306.783 918.327 306.459C918.833 306.131 919.379 305.967 919.967 305.967C920.929 305.967 921.676 306.284 922.209 306.917C922.743 307.55 923.009 308.457 923.009 309.638V310.164H917.999C918.017 310.893 918.229 311.483 918.634 311.935C919.044 312.381 919.564 312.604 920.193 312.604C920.639 312.604 921.018 312.513 921.328 312.331C921.638 312.149 921.909 311.907 922.141 311.606L922.914 312.208C922.294 313.16 921.364 313.637 920.125 313.637ZM919.967 307.006C919.457 307.006 919.028 307.193 918.682 307.566C918.336 307.936 918.122 308.455 918.04 309.125H921.745V309.029C921.708 308.387 921.535 307.89 921.225 307.539C920.915 307.184 920.496 307.006 919.967 307.006ZM926.783 310.349H925.86V313.5H924.588V306.104H925.86V309.234H926.687L929.175 306.104H930.707L927.781 309.658L930.953 313.5H929.346L926.783 310.349Z" fill="#002C4D"/>
<path d="M180.859 100.49V105.5H179.171V92.7031H183.891C185.292 92.7031 186.387 93.0605 187.178 93.7754C187.975 94.4902 188.374 95.4365 188.374 96.6143C188.374 97.8564 187.984 98.8145 187.205 99.4883C186.431 100.156 185.321 100.49 183.874 100.49H180.859ZM180.859 99.1104H183.891C184.793 99.1104 185.485 98.8994 185.965 98.4775C186.446 98.0498 186.686 97.4346 186.686 96.6318C186.686 95.8701 186.446 95.2607 185.965 94.8037C185.485 94.3467 184.826 94.1094 183.988 94.0918H180.859V99.1104ZM200.371 99.5146C200.371 100.769 200.16 101.864 199.738 102.802C199.316 103.733 198.718 104.445 197.945 104.938C197.171 105.43 196.269 105.676 195.238 105.676C194.23 105.676 193.336 105.43 192.557 104.938C191.778 104.439 191.171 103.733 190.738 102.819C190.31 101.899 190.09 100.836 190.079 99.6289V98.7061C190.079 97.4756 190.292 96.3887 190.72 95.4453C191.148 94.502 191.751 93.7812 192.531 93.2832C193.316 92.7793 194.212 92.5273 195.22 92.5273C196.246 92.5273 197.148 92.7764 197.927 93.2744C198.712 93.7666 199.316 94.4844 199.738 95.4277C200.16 96.3652 200.371 97.458 200.371 98.7061V99.5146ZM198.692 98.6885C198.692 97.1709 198.387 96.0078 197.778 95.1992C197.168 94.3848 196.316 93.9775 195.22 93.9775C194.154 93.9775 193.313 94.3848 192.698 95.1992C192.088 96.0078 191.775 97.1328 191.757 98.5742V99.5146C191.757 100.985 192.065 102.143 192.68 102.986C193.301 103.824 194.154 104.243 195.238 104.243C196.328 104.243 197.171 103.848 197.769 103.057C198.367 102.26 198.674 101.12 198.692 99.6377V98.6885ZM212.315 101.439C212.157 102.793 211.656 103.839 210.812 104.577C209.974 105.31 208.858 105.676 207.463 105.676C205.952 105.676 204.739 105.134 203.825 104.05C202.917 102.966 202.462 101.516 202.462 99.6992V98.4688C202.462 97.2793 202.673 96.2334 203.095 95.3311C203.523 94.4287 204.126 93.7373 204.906 93.2568C205.685 92.7705 206.587 92.5273 207.613 92.5273C208.972 92.5273 210.062 92.9082 210.882 93.6699C211.703 94.4258 212.18 95.4746 212.315 96.8164H210.619C210.472 95.7969 210.153 95.0586 209.661 94.6016C209.174 94.1445 208.492 93.916 207.613 93.916C206.535 93.916 205.688 94.3145 205.073 95.1113C204.463 95.9082 204.159 97.042 204.159 98.5127V99.752C204.159 101.141 204.449 102.245 205.029 103.065C205.609 103.886 206.42 104.296 207.463 104.296C208.401 104.296 209.119 104.085 209.617 103.663C210.121 103.235 210.455 102.494 210.619 101.439H212.315ZM224.04 101.439C223.881 102.793 223.38 103.839 222.537 104.577C221.699 105.31 220.583 105.676 219.188 105.676C217.676 105.676 216.463 105.134 215.549 104.05C214.641 102.966 214.187 101.516 214.187 99.6992V98.4688C214.187 97.2793 214.398 96.2334 214.82 95.3311C215.248 94.4287 215.851 93.7373 216.63 93.2568C217.41 92.7705 218.312 92.5273 219.337 92.5273C220.697 92.5273 221.787 92.9082 222.607 93.6699C223.427 94.4258 223.905 95.4746 224.04 96.8164H222.343C222.197 95.7969 221.877 95.0586 221.385 94.6016C220.899 94.1445 220.216 93.916 219.337 93.916C218.259 93.916 217.413 94.3145 216.797 95.1113C216.188 95.9082 215.883 97.042 215.883 98.5127V99.752C215.883 101.141 216.173 102.245 216.753 103.065C217.333 103.886 218.145 104.296 219.188 104.296C220.125 104.296 220.843 104.085 221.341 103.663C221.845 103.235 222.179 102.494 222.343 101.439H224.04ZM234.419 92.7031H236.107V105.5H234.419V95.6387L228.118 105.5H226.421V92.7031H228.118V102.564L234.419 92.7031ZM245.88 105.5V100.517H242.927L240.282 105.5H238.48L241.451 100.051C239.798 99.4004 238.972 98.2373 238.972 96.5615C238.972 95.3428 239.371 94.3965 240.167 93.7227C240.97 93.043 242.083 92.7031 243.507 92.7031H247.577V105.5H245.88ZM240.66 96.5615C240.66 97.335 240.9 97.9561 241.38 98.4248C241.867 98.8936 242.541 99.1309 243.402 99.1367H245.88V94.0918H243.481C242.567 94.0918 241.867 94.3086 241.38 94.7422C240.9 95.1758 240.66 95.7822 240.66 96.5615Z" fill="#C4C4C4"/>
<path d="M337.566 603.13L340.51 595.703H342.47L337.944 606.364C337.639 607.044 337.355 607.527 337.091 607.814C336.828 608.096 336.517 608.312 336.16 608.465C335.808 608.611 335.366 608.685 334.833 608.685C334.37 608.685 334.074 608.658 333.945 608.605L333.998 607.27L334.797 607.305C335.413 607.305 335.87 607.009 336.168 606.417L336.388 605.96L336.722 605.178L332.363 595.703H334.252L337.566 603.13ZM351.057 599.14C351.057 598.46 350.808 597.921 350.31 597.522C349.818 597.118 349.124 596.916 348.227 596.916C347.477 596.916 346.847 597.124 346.337 597.54C345.833 597.95 345.582 598.46 345.582 599.069H343.894C343.894 598.39 344.079 597.78 344.448 597.241C344.823 596.702 345.344 596.283 346.012 595.984C346.68 595.68 347.418 595.527 348.227 595.527C349.657 595.527 350.767 595.85 351.558 596.494C352.349 597.133 352.745 598.023 352.745 599.166C352.745 599.758 352.563 600.297 352.2 600.783C351.836 601.27 351.33 601.653 350.679 601.935C352.185 602.438 352.938 603.438 352.938 604.932C352.938 606.08 352.51 606.991 351.655 607.665C350.799 608.339 349.657 608.676 348.227 608.676C347.377 608.676 346.604 608.526 345.907 608.228C345.215 607.923 344.676 607.492 344.29 606.936C343.903 606.379 343.709 605.717 343.709 604.949H345.397C345.397 605.623 345.664 606.186 346.197 606.637C346.73 607.082 347.407 607.305 348.227 607.305C349.147 607.305 349.879 607.091 350.424 606.663C350.975 606.235 351.25 605.67 351.25 604.967C351.25 603.467 350.322 602.702 348.464 602.673H346.882V601.284H348.456C349.311 601.267 349.958 601.073 350.398 600.704C350.837 600.335 351.057 599.813 351.057 599.14ZM362.984 597.092H356.814V600.924H359.996C361.332 600.941 362.375 601.284 363.125 601.952C363.875 602.62 364.25 603.528 364.25 604.677C364.25 605.831 363.872 606.751 363.116 607.437C362.36 608.122 361.329 608.477 360.022 608.5H355.118V595.703H362.984V597.092ZM356.814 602.312V607.12H359.899C360.737 607.12 361.387 606.897 361.85 606.452C362.319 606.007 362.553 605.409 362.553 604.659C362.553 603.938 362.328 603.37 361.876 602.954C361.431 602.538 360.795 602.324 359.969 602.312H356.814ZM373.768 602.585H368.222V607.12H374.665V608.5H366.535V595.703H374.577V597.092H368.222V601.205H373.768V602.585ZM380.087 602.752H378.532V608.5H376.844V595.703H378.532V601.346H379.85L384.324 595.703H386.424L381.538 601.908L386.785 608.5H384.719L380.087 602.752ZM396.4 595.703H398.087V608.5H396.4V598.639L390.098 608.5H388.402V595.703H390.098V605.564L396.4 595.703ZM410.577 604.439C410.418 605.793 409.917 606.839 409.074 607.577C408.236 608.31 407.12 608.676 405.725 608.676C404.213 608.676 403 608.134 402.086 607.05C401.178 605.966 400.724 604.516 400.724 602.699V601.469C400.724 600.279 400.935 599.233 401.357 598.331C401.785 597.429 402.388 596.737 403.167 596.257C403.947 595.771 404.849 595.527 405.875 595.527C407.234 595.527 408.324 595.908 409.144 596.67C409.964 597.426 410.442 598.475 410.577 599.816H408.88C408.734 598.797 408.415 598.059 407.922 597.602C407.436 597.145 406.753 596.916 405.875 596.916C404.796 596.916 403.95 597.314 403.334 598.111C402.725 598.908 402.42 600.042 402.42 601.513V602.752C402.42 604.141 402.71 605.245 403.291 606.065C403.871 606.886 404.682 607.296 405.725 607.296C406.663 607.296 407.38 607.085 407.878 606.663C408.382 606.235 408.716 605.494 408.88 604.439H410.577ZM421.466 597.092H417.353V608.5H415.674V597.092H411.57V595.703H421.466V597.092ZM429.728 605.16H424.367L423.163 608.5H421.422L426.309 595.703H427.786L432.681 608.5H430.95L429.728 605.16ZM424.876 603.771H429.227L427.047 597.786L424.876 603.771ZM444.239 608.5H442.542V602.585H436.091V608.5H434.404V595.703H436.091V601.205H442.542V595.703H444.239V608.5Z" fill="#C4C4C4"/>
<path d="M776.494 643.752H774.938V649.5H773.25V636.703H774.938V642.346H776.256L780.73 636.703H782.831L777.944 642.908L783.191 649.5H781.125L776.494 643.752ZM791.804 646.16H786.443L785.239 649.5H783.499L788.385 636.703H789.862L794.757 649.5H793.026L791.804 646.16ZM786.953 644.771H791.303L789.124 638.786L786.953 644.771ZM798.167 644.49V649.5H796.48V636.703H801.2C802.6 636.703 803.696 637.061 804.487 637.775C805.284 638.49 805.682 639.437 805.682 640.614C805.682 641.856 805.292 642.814 804.513 643.488C803.74 644.156 802.629 644.49 801.182 644.49H798.167ZM798.167 643.11H801.2C802.102 643.11 802.793 642.899 803.274 642.478C803.754 642.05 803.995 641.435 803.995 640.632C803.995 639.87 803.754 639.261 803.274 638.804C802.793 638.347 802.134 638.109 801.296 638.092H798.167V643.11ZM815.772 638.092H809.602V649.5H807.906V636.703H815.772V638.092ZM819.622 641.924H822.803C824.139 641.941 825.182 642.284 825.932 642.952C826.682 643.62 827.057 644.528 827.057 645.677C827.057 646.831 826.679 647.751 825.923 648.437C825.167 649.122 824.136 649.477 822.83 649.5H817.934V636.703H819.622V641.924ZM819.622 643.312V648.12H822.707C823.544 648.12 824.195 647.897 824.658 647.452C825.126 647.007 825.361 646.409 825.361 645.659C825.361 644.938 825.135 644.37 824.684 643.954C824.239 643.538 823.603 643.324 822.777 643.312H819.622ZM830.292 649.5H828.604V636.703H830.292V649.5ZM842.842 645.439C842.684 646.793 842.183 647.839 841.339 648.577C840.501 649.31 839.385 649.676 837.991 649.676C836.479 649.676 835.266 649.134 834.352 648.05C833.444 646.966 832.99 645.516 832.99 643.699V642.469C832.99 641.279 833.201 640.233 833.623 639.331C834.05 638.429 834.654 637.737 835.433 637.257C836.212 636.771 837.115 636.527 838.14 636.527C839.5 636.527 840.589 636.908 841.41 637.67C842.23 638.426 842.708 639.475 842.842 640.816H841.146C841 639.797 840.68 639.059 840.188 638.602C839.702 638.145 839.019 637.916 838.14 637.916C837.062 637.916 836.215 638.314 835.6 639.111C834.991 639.908 834.686 641.042 834.686 642.513V643.752C834.686 645.141 834.976 646.245 835.556 647.065C836.136 647.886 836.948 648.296 837.991 648.296C838.928 648.296 839.646 648.085 840.144 647.663C840.648 647.235 840.982 646.494 841.146 645.439H842.842ZM853.732 638.092H849.619V649.5H847.94V638.092H843.835V636.703H853.732V638.092ZM861.994 646.16H856.632L855.428 649.5H853.688L858.575 636.703H860.051L864.947 649.5H863.215L861.994 646.16ZM857.142 644.771H861.493L859.313 638.786L857.142 644.771ZM876.504 649.5H874.808V643.585H868.357V649.5H866.669V636.703H868.357V642.205H874.808V636.703H876.504V649.5Z" fill="#C4C4C4"/>
<path d="M1031.81 555.252H1030.25V561H1028.56V548.203H1030.25V553.846H1031.57L1036.04 548.203H1038.14L1033.26 554.408L1038.5 561H1036.44L1031.81 555.252ZM1048.12 548.203H1049.81V561H1048.12V551.139L1041.82 561H1040.12V548.203H1041.82V558.064L1048.12 548.203ZM1061.46 549.592H1057.35V561H1055.67V549.592H1051.57V548.203H1061.46V549.592ZM1069.72 557.66H1064.36L1063.16 561H1061.42L1066.3 548.203H1067.78L1072.68 561H1070.95L1069.72 557.66ZM1064.87 556.271H1069.22L1067.04 550.286L1064.87 556.271ZM1082.47 548.203H1084.16V561H1082.47V551.139L1076.17 561H1074.47V548.203H1076.17V558.064L1082.47 548.203ZM1081.99 545.021C1081.99 545.73 1081.75 546.302 1081.26 546.735C1080.78 547.163 1080.15 547.377 1079.37 547.377C1078.58 547.377 1077.94 547.16 1077.46 546.727C1076.97 546.293 1076.73 545.725 1076.73 545.021H1078.06C1078.06 545.432 1078.17 545.754 1078.39 545.988C1078.61 546.217 1078.94 546.331 1079.37 546.331C1079.78 546.331 1080.09 546.217 1080.32 545.988C1080.56 545.76 1080.67 545.438 1080.67 545.021H1081.99Z" fill="#C4C4C4"/>
<path d="M652.337 136.902H648.167L647.231 139.5H645.877L649.678 129.547H650.827L654.634 139.5H653.288L652.337 136.902ZM648.564 135.822H651.948L650.252 131.167L648.564 135.822ZM658.08 136.349H657.157V139.5H655.885V132.104H657.157V135.234H657.984L660.472 132.104H662.003L659.078 135.658L662.25 139.5H660.643L658.08 136.349ZM666.194 138.604C666.645 138.604 667.039 138.468 667.376 138.194C667.714 137.921 667.901 137.579 667.937 137.169H669.133C669.111 137.593 668.965 137.996 668.696 138.379C668.427 138.762 668.067 139.067 667.616 139.295C667.169 139.523 666.695 139.637 666.194 139.637C665.187 139.637 664.385 139.302 663.788 138.632C663.195 137.957 662.899 137.037 662.899 135.87V135.658C662.899 134.938 663.031 134.298 663.295 133.737C663.56 133.177 663.938 132.742 664.43 132.432C664.927 132.122 665.513 131.967 666.187 131.967C667.016 131.967 667.705 132.215 668.251 132.712C668.803 133.209 669.097 133.854 669.133 134.646H667.937C667.901 134.168 667.718 133.776 667.39 133.471C667.067 133.161 666.666 133.006 666.187 133.006C665.544 133.006 665.045 133.238 664.69 133.703C664.339 134.163 664.164 134.831 664.164 135.706V135.945C664.164 136.798 664.339 137.454 664.69 137.914C665.041 138.374 665.542 138.604 666.194 138.604ZM672.975 137.647L674.698 132.104H676.051L673.078 140.642C672.617 141.872 671.886 142.487 670.883 142.487L670.644 142.467L670.172 142.378V141.353L670.514 141.38C670.943 141.38 671.275 141.293 671.512 141.12C671.754 140.947 671.952 140.63 672.107 140.17L672.387 139.418L669.749 132.104H671.129L672.975 137.647Z" fill="#002C4D"/>
<path d="M743.912 121.627H739.113V124.607H741.587C742.626 124.621 743.438 124.888 744.021 125.407C744.604 125.927 744.896 126.633 744.896 127.526C744.896 128.424 744.602 129.14 744.014 129.673C743.426 130.206 742.624 130.482 741.608 130.5H737.793V120.547H743.912V121.627ZM739.113 125.688V129.427H741.512C742.164 129.427 742.67 129.254 743.03 128.907C743.394 128.561 743.577 128.096 743.577 127.513C743.577 126.952 743.401 126.51 743.05 126.187C742.704 125.863 742.209 125.697 741.567 125.688H739.113ZM749.544 130.637C748.542 130.637 747.726 130.309 747.097 129.652C746.468 128.992 746.154 128.11 746.154 127.007V126.774C746.154 126.041 746.293 125.387 746.571 124.812C746.853 124.234 747.245 123.783 747.747 123.459C748.252 123.131 748.799 122.967 749.387 122.967C750.349 122.967 751.096 123.284 751.629 123.917C752.163 124.55 752.429 125.457 752.429 126.638V127.164H747.418C747.437 127.893 747.649 128.483 748.054 128.935C748.464 129.381 748.984 129.604 749.613 129.604C750.059 129.604 750.438 129.513 750.748 129.331C751.057 129.149 751.329 128.907 751.561 128.606L752.333 129.208C751.714 130.16 750.784 130.637 749.544 130.637ZM749.387 124.006C748.877 124.006 748.448 124.193 748.102 124.566C747.756 124.936 747.542 125.455 747.459 126.125H751.165V126.029C751.128 125.387 750.955 124.89 750.645 124.539C750.335 124.184 749.916 124.006 749.387 124.006ZM756.866 129.604C757.317 129.604 757.711 129.468 758.048 129.194C758.386 128.921 758.572 128.579 758.609 128.169H759.805C759.782 128.593 759.637 128.996 759.368 129.379C759.099 129.762 758.739 130.067 758.288 130.295C757.841 130.523 757.367 130.637 756.866 130.637C755.859 130.637 755.056 130.302 754.459 129.632C753.867 128.957 753.571 128.037 753.571 126.87V126.658C753.571 125.938 753.703 125.298 753.967 124.737C754.232 124.177 754.61 123.742 755.102 123.432C755.599 123.122 756.184 122.967 756.859 122.967C757.688 122.967 758.376 123.215 758.923 123.712C759.475 124.209 759.769 124.854 759.805 125.646H758.609C758.572 125.168 758.39 124.776 758.062 124.471C757.738 124.161 757.337 124.006 756.859 124.006C756.216 124.006 755.717 124.238 755.362 124.703C755.011 125.163 754.835 125.831 754.835 126.706V126.945C754.835 127.798 755.011 128.454 755.362 128.914C755.713 129.374 756.214 129.604 756.866 129.604ZM766.723 124.129H764.242V130.5H762.977V124.129H760.543V123.104H766.723V124.129ZM767.332 126.733C767.332 126.009 767.473 125.357 767.755 124.778C768.042 124.2 768.439 123.753 768.945 123.438C769.455 123.124 770.036 122.967 770.688 122.967C771.695 122.967 772.509 123.315 773.128 124.013C773.753 124.71 774.065 125.637 774.065 126.795V126.884C774.065 127.604 773.926 128.251 773.648 128.825C773.375 129.395 772.98 129.839 772.465 130.158C771.955 130.477 771.367 130.637 770.702 130.637C769.699 130.637 768.886 130.288 768.261 129.591C767.641 128.894 767.332 127.971 767.332 126.822V126.733ZM768.603 126.884C768.603 127.704 768.792 128.363 769.17 128.859C769.553 129.356 770.064 129.604 770.702 129.604C771.344 129.604 771.855 129.354 772.233 128.853C772.611 128.347 772.8 127.64 772.8 126.733C772.8 125.922 772.607 125.266 772.219 124.765C771.836 124.259 771.326 124.006 770.688 124.006C770.064 124.006 769.56 124.254 769.177 124.751C768.794 125.248 768.603 125.959 768.603 126.884ZM778.898 123.527C779.828 123.527 780.57 123.84 781.126 124.464C781.687 125.084 781.967 125.902 781.967 126.918V127.034C781.967 127.731 781.833 128.356 781.564 128.907C781.295 129.454 780.908 129.88 780.402 130.186C779.901 130.486 779.322 130.637 778.666 130.637C777.672 130.637 776.872 130.306 776.266 129.646C775.66 128.98 775.357 128.089 775.357 126.973V126.357C775.357 124.803 775.644 123.568 776.218 122.652C776.797 121.736 777.649 121.178 778.775 120.978C779.413 120.864 779.844 120.725 780.067 120.561C780.29 120.396 780.402 120.171 780.402 119.884H781.441C781.441 120.453 781.311 120.898 781.051 121.217C780.796 121.536 780.386 121.761 779.821 121.894L778.877 122.105C778.125 122.283 777.56 122.584 777.182 123.008C776.808 123.427 776.565 123.988 776.451 124.689C777.121 123.915 777.936 123.527 778.898 123.527ZM778.652 124.566C778.032 124.566 777.54 124.776 777.175 125.195C776.811 125.61 776.628 126.187 776.628 126.925V127.034C776.628 127.827 776.811 128.456 777.175 128.921C777.544 129.381 778.041 129.611 778.666 129.611C779.294 129.611 779.791 129.379 780.156 128.914C780.52 128.449 780.703 127.77 780.703 126.877C780.703 126.18 780.518 125.621 780.149 125.202C779.784 124.778 779.285 124.566 778.652 124.566ZM786.458 130.637C785.456 130.637 784.64 130.309 784.011 129.652C783.382 128.992 783.068 128.11 783.068 127.007V126.774C783.068 126.041 783.207 125.387 783.485 124.812C783.767 124.234 784.159 123.783 784.661 123.459C785.167 123.131 785.713 122.967 786.301 122.967C787.263 122.967 788.01 123.284 788.543 123.917C789.077 124.55 789.343 125.457 789.343 126.638V127.164H784.333C784.351 127.893 784.563 128.483 784.968 128.935C785.378 129.381 785.898 129.604 786.527 129.604C786.973 129.604 787.352 129.513 787.662 129.331C787.972 129.149 788.243 128.907 788.475 128.606L789.248 129.208C788.628 130.16 787.698 130.637 786.458 130.637ZM786.301 124.006C785.791 124.006 785.362 124.193 785.016 124.566C784.67 124.936 784.456 125.455 784.374 126.125H788.079V126.029C788.042 125.387 787.869 124.89 787.559 124.539C787.249 124.184 786.83 124.006 786.301 124.006Z" fill="#002C4D"/>
<path d="M736.834 160.961H735.768V165.5H734.456V160.961H733.328L730.511 165.5H728.871L732.22 160.25L729.13 155.547H730.682L733.328 159.867H734.456V155.547H735.768V159.867H736.848L739.494 155.547H741.039L737.949 160.243L741.298 165.5H739.665L736.834 160.961ZM741.873 161.733C741.873 161.009 742.014 160.357 742.296 159.778C742.583 159.2 742.98 158.753 743.486 158.438C743.996 158.124 744.577 157.967 745.229 157.967C746.236 157.967 747.05 158.315 747.669 159.013C748.294 159.71 748.606 160.637 748.606 161.795V161.884C748.606 162.604 748.467 163.251 748.189 163.825C747.916 164.395 747.521 164.839 747.006 165.158C746.496 165.477 745.908 165.637 745.243 165.637C744.24 165.637 743.427 165.288 742.802 164.591C742.182 163.894 741.873 162.971 741.873 161.822V161.733ZM743.144 161.884C743.144 162.704 743.333 163.363 743.711 163.859C744.094 164.356 744.605 164.604 745.243 164.604C745.885 164.604 746.396 164.354 746.774 163.853C747.152 163.347 747.341 162.64 747.341 161.733C747.341 160.922 747.148 160.266 746.76 159.765C746.377 159.259 745.867 159.006 745.229 159.006C744.605 159.006 744.101 159.254 743.718 159.751C743.335 160.248 743.144 160.959 743.144 161.884ZM756.146 158.104V165.5H754.875V159.149H752.359L752.208 161.918C752.126 163.189 751.912 164.099 751.566 164.646C751.224 165.192 750.68 165.477 749.932 165.5H749.426V164.386L749.789 164.358C750.199 164.313 750.493 164.076 750.67 163.647C750.848 163.219 750.962 162.426 751.012 161.269L751.149 158.104H756.146ZM759.557 160.653H761.478C762.317 160.662 762.98 160.881 763.467 161.31C763.955 161.738 764.199 162.319 764.199 163.053C764.199 163.791 763.948 164.383 763.447 164.83C762.945 165.277 762.271 165.5 761.423 165.5H758.292V158.104H759.557V160.653ZM766.837 165.5H765.566V158.104H766.837V165.5ZM759.557 161.686V164.468H761.437C761.911 164.468 762.278 164.347 762.538 164.105C762.797 163.859 762.927 163.524 762.927 163.101C762.927 162.69 762.8 162.355 762.544 162.096C762.294 161.831 761.941 161.695 761.485 161.686H759.557ZM773.304 163.825L775.82 158.104H777.399V165.5H776.134V160.12L773.742 165.5H772.867L770.426 160.004V165.5H769.162V158.104H770.802L773.304 163.825ZM782.683 158.527C783.613 158.527 784.356 158.84 784.912 159.464C785.472 160.084 785.752 160.902 785.752 161.918V162.034C785.752 162.731 785.618 163.356 785.349 163.907C785.08 164.454 784.693 164.88 784.187 165.186C783.686 165.486 783.107 165.637 782.451 165.637C781.457 165.637 780.657 165.306 780.051 164.646C779.445 163.98 779.142 163.089 779.142 161.973V161.357C779.142 159.803 779.429 158.568 780.003 157.652C780.582 156.736 781.434 156.178 782.56 155.978C783.198 155.864 783.629 155.725 783.852 155.561C784.075 155.396 784.187 155.171 784.187 154.884H785.226C785.226 155.453 785.096 155.898 784.836 156.217C784.581 156.536 784.171 156.761 783.606 156.894L782.663 157.105C781.911 157.283 781.346 157.584 780.967 158.008C780.594 158.427 780.35 158.988 780.236 159.689C780.906 158.915 781.722 158.527 782.683 158.527ZM782.437 159.566C781.817 159.566 781.325 159.776 780.96 160.195C780.596 160.61 780.414 161.187 780.414 161.925V162.034C780.414 162.827 780.596 163.456 780.96 163.921C781.33 164.381 781.826 164.611 782.451 164.611C783.08 164.611 783.576 164.379 783.941 163.914C784.306 163.449 784.488 162.77 784.488 161.877C784.488 161.18 784.303 160.621 783.934 160.202C783.569 159.778 783.07 159.566 782.437 159.566ZM790.244 165.637C789.241 165.637 788.425 165.309 787.796 164.652C787.167 163.992 786.853 163.11 786.853 162.007V161.774C786.853 161.041 786.992 160.387 787.27 159.812C787.553 159.234 787.944 158.783 788.446 158.459C788.952 158.131 789.499 157.967 790.086 157.967C791.048 157.967 791.795 158.284 792.329 158.917C792.862 159.55 793.128 160.457 793.128 161.638V162.164H788.118C788.136 162.893 788.348 163.483 788.753 163.935C789.164 164.381 789.683 164.604 790.312 164.604C790.759 164.604 791.137 164.513 791.447 164.331C791.757 164.149 792.028 163.907 792.26 163.606L793.033 164.208C792.413 165.16 791.483 165.637 790.244 165.637ZM790.086 159.006C789.576 159.006 789.148 159.193 788.801 159.566C788.455 159.936 788.241 160.455 788.159 161.125H791.864V161.029C791.827 160.387 791.654 159.89 791.344 159.539C791.034 159.184 790.615 159.006 790.086 159.006ZM800.012 159.129H797.531V165.5H796.266V159.129H793.833V158.104H800.012V159.129Z" fill="#002C4D"/>
<path d="M873.693 365.5H872.428V359.149H869.024V365.5H867.752V358.104H873.693V365.5ZM881.787 358.104V365.5H880.515V359.149H878L877.849 361.918C877.767 363.189 877.553 364.099 877.207 364.646C876.865 365.192 876.32 365.477 875.573 365.5H875.067V364.386L875.429 364.358C875.839 364.313 876.133 364.076 876.311 363.647C876.489 363.219 876.603 362.426 876.653 361.269L876.79 358.104H881.787ZM883.844 364.837C883.844 364.618 883.908 364.436 884.036 364.29C884.168 364.144 884.364 364.071 884.624 364.071C884.883 364.071 885.079 364.144 885.211 364.29C885.348 364.436 885.417 364.618 885.417 364.837C885.417 365.047 885.348 365.222 885.211 365.363C885.079 365.505 884.883 365.575 884.624 365.575C884.364 365.575 884.168 365.505 884.036 365.363C883.908 365.222 883.844 365.047 883.844 364.837ZM896.662 367.94H895.356V365.5H888.212V367.947H886.9L886.893 364.427H887.707C888.135 363.944 888.474 363.297 888.725 362.485C888.98 361.67 889.14 360.776 889.204 359.806L889.422 355.547H895.376V364.427H896.675L896.662 367.94ZM889.204 364.427H894.057V356.627H890.687L890.543 359.553C890.484 360.697 890.332 361.672 890.085 362.479C889.844 363.285 889.55 363.935 889.204 364.427ZM897.701 361.733C897.701 361.009 897.842 360.357 898.125 359.778C898.412 359.2 898.808 358.753 899.314 358.438C899.824 358.124 900.405 357.967 901.057 357.967C902.064 357.967 902.878 358.315 903.498 359.013C904.122 359.71 904.434 360.637 904.434 361.795V361.884C904.434 362.604 904.295 363.251 904.017 363.825C903.744 364.395 903.349 364.839 902.834 365.158C902.324 365.477 901.736 365.637 901.071 365.637C900.068 365.637 899.255 365.288 898.63 364.591C898.011 363.894 897.701 362.971 897.701 361.822V361.733ZM898.972 361.884C898.972 362.704 899.161 363.363 899.54 363.859C899.922 364.356 900.433 364.604 901.071 364.604C901.713 364.604 902.224 364.354 902.602 363.853C902.98 363.347 903.169 362.64 903.169 361.733C903.169 360.922 902.976 360.266 902.588 359.765C902.206 359.259 901.695 359.006 901.057 359.006C900.433 359.006 899.929 359.254 899.546 359.751C899.164 360.248 898.972 360.959 898.972 361.884ZM911.974 358.104V365.5H910.703V359.149H908.187L908.037 361.918C907.955 363.189 907.74 364.099 907.394 364.646C907.052 365.192 906.508 365.477 905.76 365.5H905.254V364.386L905.617 364.358C906.027 364.313 906.321 364.076 906.499 363.647C906.676 363.219 906.79 362.426 906.84 361.269L906.977 358.104H911.974ZM918.79 358.104H920.054V365.5H918.79V360.106L915.378 365.5H914.114V358.104H915.378V363.504L918.79 358.104ZM928.127 365.5H926.863V362.342H923.465V365.5H922.194V358.104H923.465V361.31H926.863V358.104H928.127V365.5ZM936.208 365.5H934.943V362.342H931.545V365.5H930.274V358.104H931.545V361.31H934.943V358.104H936.208V365.5ZM937.91 361.733C937.91 361.009 938.051 360.357 938.333 359.778C938.621 359.2 939.017 358.753 939.523 358.438C940.033 358.124 940.614 357.967 941.266 357.967C942.273 357.967 943.087 358.315 943.707 359.013C944.331 359.71 944.643 360.637 944.643 361.795V361.884C944.643 362.604 944.504 363.251 944.226 363.825C943.953 364.395 943.558 364.839 943.043 365.158C942.533 365.477 941.945 365.637 941.28 365.637C940.277 365.637 939.464 365.288 938.839 364.591C938.22 363.894 937.91 362.971 937.91 361.822V361.733ZM939.181 361.884C939.181 362.704 939.37 363.363 939.749 363.859C940.131 364.356 940.642 364.604 941.28 364.604C941.922 364.604 942.433 364.354 942.811 363.853C943.189 363.347 943.378 362.64 943.378 361.733C943.378 360.922 943.185 360.266 942.797 359.765C942.415 359.259 941.904 359.006 941.266 359.006C940.642 359.006 940.138 359.254 939.755 359.751C939.373 360.248 939.181 360.959 939.181 361.884ZM949.298 365.637C948.296 365.637 947.48 365.309 946.851 364.652C946.222 363.992 945.908 363.11 945.908 362.007V361.774C945.908 361.041 946.047 360.387 946.325 359.812C946.607 359.234 946.999 358.783 947.5 358.459C948.006 358.131 948.553 357.967 949.141 357.967C950.103 357.967 950.85 358.284 951.383 358.917C951.917 359.55 952.183 360.457 952.183 361.638V362.164H947.172C947.191 362.893 947.403 363.483 947.808 363.935C948.218 364.381 948.738 364.604 949.367 364.604C949.813 364.604 950.192 364.513 950.501 364.331C950.811 364.149 951.083 363.907 951.315 363.606L952.087 364.208C951.468 365.16 950.538 365.637 949.298 365.637ZM949.141 359.006C948.631 359.006 948.202 359.193 947.856 359.566C947.51 359.936 947.295 360.455 947.213 361.125H950.918V361.029C950.882 360.387 950.709 359.89 950.399 359.539C950.089 359.184 949.67 359.006 949.141 359.006Z" fill="#002C4D"/>
<path d="M807.117 307.547H808.429V317.5H807.117V309.83L802.215 317.5H800.896V307.547H802.215V315.217L807.117 307.547ZM816.12 311.129H813.638V317.5H812.374V311.129H809.94V310.104H816.12V311.129ZM819.654 314.349H818.731V317.5H817.459V310.104H818.731V313.234H819.558L822.046 310.104H823.578L820.652 313.658L823.824 317.5H822.217L819.654 314.349ZM827.331 315.647L829.053 310.104H830.407L827.433 318.642C826.973 319.872 826.241 320.487 825.239 320.487L825 320.467L824.528 320.378V319.353L824.87 319.38C825.298 319.38 825.631 319.293 825.868 319.12C826.109 318.947 826.307 318.63 826.462 318.17L826.743 317.418L824.104 310.104H825.485L827.331 315.647ZM831.097 316.468L831.535 315.928C832.027 315.29 832.307 314.333 832.375 313.057L832.492 310.104H837.256V316.468H838.207V319.674H836.942V317.5H831.781V319.674H830.516L830.523 316.468H831.097ZM832.594 316.468H835.992V311.272H833.715L833.64 313.036C833.563 314.508 833.214 315.652 832.594 316.468ZM842.028 315.647L843.75 310.104H845.104L842.13 318.642C841.67 319.872 840.939 320.487 839.936 320.487L839.697 320.467L839.225 320.378V319.353L839.567 319.38C839.995 319.38 840.328 319.293 840.565 319.12C840.806 318.947 841.005 318.63 841.16 318.17L841.44 317.418L838.801 310.104H840.182L842.028 315.647ZM848.542 314.349H847.62V317.5H846.348V310.104H847.62V313.234H848.447L850.935 310.104H852.466L849.541 313.658L852.712 317.5H851.106L848.542 314.349Z" fill="#002C4D"/>
<path d="M836.498 341.845C836.498 342.82 836.333 343.672 836.005 344.401C835.677 345.126 835.212 345.68 834.611 346.062C834.009 346.445 833.307 346.637 832.505 346.637C831.722 346.637 831.027 346.445 830.42 346.062C829.814 345.675 829.343 345.126 829.005 344.415C828.673 343.7 828.502 342.872 828.493 341.934V341.216C828.493 340.259 828.659 339.413 828.992 338.68C829.324 337.946 829.794 337.385 830.4 336.998C831.011 336.606 831.708 336.41 832.492 336.41C833.289 336.41 833.991 336.604 834.597 336.991C835.208 337.374 835.677 337.932 836.005 338.666C836.333 339.395 836.498 340.245 836.498 341.216V341.845ZM835.192 341.202C835.192 340.022 834.955 339.117 834.481 338.488C834.007 337.855 833.344 337.538 832.492 337.538C831.662 337.538 831.008 337.855 830.53 338.488C830.056 339.117 829.812 339.992 829.798 341.113V341.845C829.798 342.989 830.038 343.889 830.516 344.545C830.999 345.197 831.662 345.522 832.505 345.522C833.353 345.522 834.009 345.215 834.474 344.6C834.939 343.98 835.178 343.093 835.192 341.94V341.202ZM844.516 342.884C844.516 344.009 844.259 344.916 843.744 345.604C843.229 346.293 842.531 346.637 841.652 346.637C840.754 346.637 840.048 346.352 839.533 345.782V349.344H838.268V339.104H839.423L839.485 339.924C840 339.286 840.715 338.967 841.631 338.967C842.52 338.967 843.222 339.302 843.737 339.972C844.256 340.642 844.516 341.574 844.516 342.768V342.884ZM843.251 342.74C843.251 341.906 843.074 341.248 842.718 340.765C842.363 340.282 841.875 340.04 841.255 340.04C840.49 340.04 839.916 340.38 839.533 341.059V344.593C839.911 345.267 840.49 345.604 841.269 345.604C841.875 345.604 842.356 345.365 842.711 344.887C843.071 344.404 843.251 343.688 843.251 342.74ZM851.079 340.129H848.597V346.5H847.333V340.129H844.899V339.104H851.079V340.129ZM856.766 346.5C856.693 346.354 856.634 346.094 856.588 345.721C856 346.331 855.299 346.637 854.483 346.637C853.754 346.637 853.154 346.432 852.685 346.021C852.22 345.607 851.988 345.083 851.988 344.449C851.988 343.679 852.279 343.082 852.863 342.658C853.451 342.23 854.276 342.016 855.337 342.016H856.568V341.435C856.568 340.993 856.436 340.642 856.171 340.382C855.907 340.118 855.517 339.985 855.002 339.985C854.551 339.985 854.173 340.099 853.868 340.327C853.562 340.555 853.41 340.831 853.41 341.154H852.138C852.138 340.785 852.268 340.43 852.528 340.088C852.792 339.742 853.148 339.468 853.594 339.268C854.045 339.067 854.54 338.967 855.078 338.967C855.93 338.967 856.597 339.181 857.081 339.609C857.564 340.033 857.814 340.619 857.833 341.366V344.771C857.833 345.45 857.919 345.99 858.092 346.391V346.5H856.766ZM854.667 345.536C855.064 345.536 855.44 345.434 855.795 345.229C856.151 345.023 856.408 344.757 856.568 344.429V342.911H855.577C854.027 342.911 853.252 343.365 853.252 344.271C853.252 344.668 853.385 344.978 853.649 345.201C853.913 345.424 854.253 345.536 854.667 345.536ZM862.782 345.604C863.233 345.604 863.627 345.468 863.964 345.194C864.302 344.921 864.488 344.579 864.525 344.169H865.721C865.698 344.593 865.553 344.996 865.284 345.379C865.015 345.762 864.655 346.067 864.204 346.295C863.757 346.523 863.283 346.637 862.782 346.637C861.775 346.637 860.972 346.302 860.375 345.632C859.783 344.957 859.487 344.037 859.487 342.87V342.658C859.487 341.938 859.619 341.298 859.883 340.737C860.148 340.177 860.526 339.742 861.018 339.432C861.515 339.122 862.1 338.967 862.775 338.967C863.604 338.967 864.292 339.215 864.839 339.712C865.391 340.209 865.685 340.854 865.721 341.646H864.525C864.488 341.168 864.306 340.776 863.978 340.471C863.654 340.161 863.253 340.006 862.775 340.006C862.132 340.006 861.633 340.238 861.278 340.703C860.927 341.163 860.751 341.831 860.751 342.706V342.945C860.751 343.798 860.927 344.454 861.278 344.914C861.629 345.374 862.13 345.604 862.782 345.604ZM871.709 346.5C871.637 346.354 871.577 346.094 871.532 345.721C870.944 346.331 870.242 346.637 869.426 346.637C868.697 346.637 868.098 346.432 867.628 346.021C867.164 345.607 866.931 345.083 866.931 344.449C866.931 343.679 867.223 343.082 867.806 342.658C868.394 342.23 869.219 342.016 870.281 342.016H871.511V341.435C871.511 340.993 871.379 340.642 871.115 340.382C870.85 340.118 870.461 339.985 869.946 339.985C869.495 339.985 869.116 340.099 868.811 340.327C868.506 340.555 868.353 340.831 868.353 341.154H867.082C867.082 340.785 867.211 340.43 867.471 340.088C867.736 339.742 868.091 339.468 868.538 339.268C868.989 339.067 869.483 338.967 870.021 338.967C870.873 338.967 871.541 339.181 872.024 339.609C872.507 340.033 872.758 340.619 872.776 341.366V344.771C872.776 345.45 872.862 345.99 873.036 346.391V346.5H871.709ZM869.611 345.536C870.007 345.536 870.383 345.434 870.739 345.229C871.094 345.023 871.352 344.757 871.511 344.429V342.911H870.52C868.971 342.911 868.196 343.365 868.196 344.271C868.196 344.668 868.328 344.978 868.592 345.201C868.857 345.424 869.196 345.536 869.611 345.536ZM879.543 339.104H880.808V346.5H879.543V341.106L876.132 346.5H874.868V339.104H876.132V344.504L879.543 339.104ZM879.885 336.41C879.885 336.962 879.696 337.406 879.318 337.743C878.944 338.076 878.452 338.242 877.841 338.242C877.231 338.242 876.736 338.074 876.358 337.736C875.98 337.399 875.791 336.957 875.791 336.41H876.823C876.823 336.729 876.909 336.98 877.083 337.162C877.256 337.34 877.509 337.429 877.841 337.429C878.16 337.429 878.409 337.34 878.586 337.162C878.769 336.984 878.86 336.734 878.86 336.41H879.885Z" fill="#002C4D"/>
<path d="M694.443 369.5H693.124V360.627H688.215V369.5H686.903V359.547H694.443V369.5ZM699.057 367.647L700.78 362.104H702.133L699.16 370.642C698.699 371.872 697.968 372.487 696.965 372.487L696.726 372.467L696.254 372.378V371.353L696.596 371.38C697.025 371.38 697.357 371.293 697.594 371.12C697.836 370.947 698.034 370.63 698.189 370.17L698.469 369.418L695.831 362.104H697.211L699.057 367.647ZM706.139 368.604C706.59 368.604 706.985 368.468 707.322 368.194C707.659 367.921 707.846 367.579 707.882 367.169H709.079C709.056 367.593 708.91 367.996 708.641 368.379C708.372 368.762 708.012 369.067 707.561 369.295C707.114 369.523 706.64 369.637 706.139 369.637C705.132 369.637 704.33 369.302 703.733 368.632C703.14 367.957 702.844 367.037 702.844 365.87V365.658C702.844 364.938 702.976 364.298 703.241 363.737C703.505 363.177 703.883 362.742 704.375 362.432C704.872 362.122 705.458 361.967 706.132 361.967C706.962 361.967 707.65 362.215 708.197 362.712C708.748 363.209 709.042 363.854 709.079 364.646H707.882C707.846 364.168 707.664 363.776 707.335 363.471C707.012 363.161 706.611 363.006 706.132 363.006C705.49 363.006 704.991 363.238 704.635 363.703C704.284 364.163 704.109 364.831 704.109 365.706V365.945C704.109 366.798 704.284 367.454 704.635 367.914C704.986 368.374 705.487 368.604 706.139 368.604ZM715.997 363.129H713.515V369.5H712.25V363.129H709.817V362.104H715.997V363.129ZM718.608 364.653H720.529C721.367 364.662 722.03 364.881 722.518 365.31C723.006 365.738 723.25 366.319 723.25 367.053C723.25 367.791 722.999 368.383 722.498 368.83C721.996 369.277 721.322 369.5 720.474 369.5H717.343V362.104H718.608V364.653ZM725.888 369.5H724.617V362.104H725.888V369.5ZM718.608 365.686V368.468H720.488C720.962 368.468 721.329 368.347 721.588 368.105C721.848 367.859 721.978 367.524 721.978 367.101C721.978 366.69 721.85 366.355 721.595 366.096C721.345 365.831 720.991 365.695 720.536 365.686H718.608ZM734.139 369.5H732.875V366.342H729.477V369.5H728.206V362.104H729.477V365.31H732.875V362.104H734.139V369.5ZM742.219 369.5H740.955V366.342H737.557V369.5H736.286V362.104H737.557V365.31H740.955V362.104H742.219V369.5ZM743.921 365.733C743.921 365.009 744.063 364.357 744.345 363.778C744.632 363.2 745.029 362.753 745.535 362.438C746.045 362.124 746.626 361.967 747.278 361.967C748.285 361.967 749.098 362.315 749.718 363.013C750.343 363.71 750.655 364.637 750.655 365.795V365.884C750.655 366.604 750.516 367.251 750.238 367.825C749.964 368.395 749.57 368.839 749.055 369.158C748.545 369.477 747.957 369.637 747.292 369.637C746.289 369.637 745.475 369.288 744.851 368.591C744.231 367.894 743.921 366.971 743.921 365.822V365.733ZM745.193 365.884C745.193 366.704 745.382 367.363 745.76 367.859C746.143 368.356 746.653 368.604 747.292 368.604C747.934 368.604 748.444 368.354 748.823 367.853C749.201 367.347 749.39 366.64 749.39 365.733C749.39 364.922 749.196 364.266 748.809 363.765C748.426 363.259 747.916 363.006 747.278 363.006C746.653 363.006 746.15 363.254 745.767 363.751C745.384 364.248 745.193 364.959 745.193 365.884ZM754.873 365.788H751.537V364.756H754.873V365.788ZM762.378 360.627H757.58V363.607H760.054C761.093 363.621 761.904 363.888 762.488 364.407C763.071 364.927 763.363 365.633 763.363 366.526C763.363 367.424 763.069 368.14 762.481 368.673C761.893 369.206 761.091 369.482 760.075 369.5H756.26V359.547H762.378V360.627ZM757.58 364.688V368.427H759.979C760.631 368.427 761.137 368.254 761.497 367.907C761.861 367.561 762.043 367.096 762.043 366.513C762.043 365.952 761.868 365.51 761.517 365.187C761.171 364.863 760.676 364.697 760.034 364.688H757.58ZM769.508 369.5C769.435 369.354 769.376 369.094 769.331 368.721C768.743 369.331 768.041 369.637 767.225 369.637C766.496 369.637 765.897 369.432 765.427 369.021C764.962 368.607 764.73 368.083 764.73 367.449C764.73 366.679 765.022 366.082 765.605 365.658C766.193 365.23 767.018 365.016 768.08 365.016H769.31V364.435C769.31 363.993 769.178 363.642 768.914 363.382C768.649 363.118 768.26 362.985 767.745 362.985C767.293 362.985 766.915 363.099 766.61 363.327C766.305 363.555 766.152 363.831 766.152 364.154H764.88C764.88 363.785 765.01 363.43 765.27 363.088C765.534 362.742 765.89 362.468 766.336 362.268C766.788 362.067 767.282 361.967 767.82 361.967C768.672 361.967 769.34 362.181 769.823 362.609C770.306 363.033 770.556 363.619 770.575 364.366V367.771C770.575 368.45 770.661 368.99 770.834 369.391V369.5H769.508ZM767.41 368.536C767.806 368.536 768.182 368.434 768.538 368.229C768.893 368.023 769.151 367.757 769.31 367.429V365.911H768.319C766.769 365.911 765.995 366.365 765.995 367.271C765.995 367.668 766.127 367.978 766.391 368.201C766.655 368.424 766.995 368.536 767.41 368.536ZM774.861 366.349H773.938V369.5H772.667V362.104H773.938V365.234H774.765L777.253 362.104H778.785L775.859 365.658L779.031 369.5H777.424L774.861 366.349ZM785.614 363.129H783.132V369.5H781.868V363.129H779.434V362.104H785.614V363.129ZM791.301 369.5C791.228 369.354 791.169 369.094 791.124 368.721C790.536 369.331 789.834 369.637 789.018 369.637C788.289 369.637 787.69 369.432 787.22 369.021C786.755 368.607 786.523 368.083 786.523 367.449C786.523 366.679 786.815 366.082 787.398 365.658C787.986 365.23 788.811 365.016 789.873 365.016H791.103V364.435C791.103 363.993 790.971 363.642 790.707 363.382C790.442 363.118 790.053 362.985 789.538 362.985C789.086 362.985 788.708 363.099 788.403 363.327C788.097 363.555 787.945 363.831 787.945 364.154H786.673C786.673 363.785 786.803 363.43 787.063 363.088C787.327 362.742 787.683 362.468 788.129 362.268C788.581 362.067 789.075 361.967 789.613 361.967C790.465 361.967 791.133 362.181 791.616 362.609C792.099 363.033 792.349 363.619 792.368 364.366V367.771C792.368 368.45 792.454 368.99 792.627 369.391V369.5H791.301ZM789.203 368.536C789.599 368.536 789.975 368.434 790.331 368.229C790.686 368.023 790.944 367.757 791.103 367.429V365.911H790.112C788.562 365.911 787.788 366.365 787.788 367.271C787.788 367.668 787.92 367.978 788.184 368.201C788.448 368.424 788.788 368.536 789.203 368.536ZM799.135 362.104H800.4V369.5H799.135V364.106L795.724 369.5H794.459V362.104H795.724V367.504L799.135 362.104ZM799.477 359.41C799.477 359.962 799.288 360.406 798.91 360.743C798.536 361.076 798.044 361.242 797.433 361.242C796.822 361.242 796.328 361.074 795.95 360.736C795.571 360.399 795.382 359.957 795.382 359.41H796.415C796.415 359.729 796.501 359.98 796.674 360.162C796.847 360.34 797.1 360.429 797.433 360.429C797.752 360.429 798 360.34 798.178 360.162C798.361 359.984 798.452 359.734 798.452 359.41H799.477Z" fill="#002C4D"/>
<circle cx="721.686" cy="125.5" r="7" fill="#002C4D"/>
<circle cx="714.686" cy="160.5" r="7" fill="#002C4D"/>
<circle cx="881.686" cy="306.5" r="7" fill="#002C4D"/>
<circle cx="792.686" cy="321.5" r="7" fill="#002C4D"/>
<circle cx="820.686" cy="345.5" r="7" fill="#002C4D"/>
<circle cx="803.686" cy="347.5" r="7" fill="#002C4D"/>
<circle cx="840.686" cy="328.5" r="7" fill="#002C4D"/>
<circle cx="811.686" cy="328.5" r="7" fill="#002C4D"/>
<circle cx="849.686" cy="361.5" r="7" fill="#002C4D"/>
<circle cx="806.686" cy="380.5" r="7" fill="#002C4D"/>
<circle cx="715.686" cy="434.5" r="7" fill="#002C4D"/>
<circle cx="715.686" cy="460.5" r="7" fill="#002C4D"/>
<circle cx="738.686" cy="481.5" r="7" fill="#002C4D"/>
<circle cx="756" cy="465" r="7" fill="#002C4D"/>
<circle cx="748.686" cy="438.5" r="7" fill="#002C4D"/>
<circle cx="819.686" cy="363.5" r="7" fill="#002C4D"/>
<circle cx="685.686" cy="132.5" r="7" fill="#002C4D"/>
</svg>
